<ttFont>
    <TTGlyph name="A" xMin="-108" yMin="-45" xMax="669" yMax="769">
      <contour>
        <pt x="552" y="11" on="1"/>
        <pt x="522" y="-12" on="0"/>
        <pt x="463" y="-45" on="0"/>
        <pt x="440" y="-45" on="1"/>
        <pt x="436" y="-45" on="1"/>
        <pt x="414" y="-44" on="0"/>
        <pt x="373" y="-21" on="0"/>
        <pt x="341" y="13" on="0"/>
        <pt x="321" y="56" on="0"/>
        <pt x="321" y="77" on="1"/>
        <pt x="321" y="82" on="1"/>
        <pt x="323" y="99" on="0"/>
        <pt x="335" y="152" on="1"/>
        <pt x="341" y="176" on="0"/>
        <pt x="356" y="236" on="0"/>
        <pt x="365" y="270" on="1"/>
        <pt x="335" y="270" on="0"/>
        <pt x="273" y="276" on="0"/>
        <pt x="245" y="283" on="1"/>
        <pt x="238" y="284" on="0"/>
        <pt x="225" y="285" on="0"/>
        <pt x="218" y="285" on="1"/>
        <pt x="214" y="285" on="1"/>
        <pt x="179" y="232" on="0"/>
        <pt x="99" y="141" on="0"/>
        <pt x="22" y="72" on="0"/>
        <pt x="-48" y="28" on="0"/>
        <pt x="-72" y="23" on="1"/>
        <pt x="-108" y="88" on="1"/>
        <pt x="-94" y="89" on="0"/>
        <pt x="-48" y="119" on="0"/>
        <pt x="8" y="165" on="0"/>
        <pt x="67" y="223" on="0"/>
        <pt x="94" y="251" on="1"/>
        <pt x="92" y="249" on="0"/>
        <pt x="87" y="246" on="0"/>
        <pt x="82" y="244" on="1"/>
        <pt x="67" y="307" on="1"/>
        <pt x="87" y="318" on="0"/>
        <pt x="143" y="335" on="0"/>
        <pt x="173" y="342" on="1"/>
        <pt x="174" y="343" on="0"/>
        <pt x="175" y="345" on="0"/>
        <pt x="176" y="346" on="1"/>
        <pt x="186" y="363" on="0"/>
        <pt x="202" y="399" on="1"/>
        <pt x="216" y="430" on="0"/>
        <pt x="260" y="537" on="0"/>
        <pt x="292" y="623" on="1"/>
        <pt x="350" y="607" on="1"/>
        <pt x="350" y="595" on="0"/>
        <pt x="342" y="563" on="0"/>
        <pt x="331" y="526" on="0"/>
        <pt x="316" y="487" on="0"/>
        <pt x="308" y="468" on="1"/>
        <pt x="290" y="424" on="0"/>
        <pt x="266" y="375" on="1"/>
        <pt x="263" y="370" on="0"/>
        <pt x="257" y="357" on="0"/>
        <pt x="254" y="352" on="1"/>
        <pt x="262" y="352" on="1"/>
        <pt x="268" y="352" on="0"/>
        <pt x="280" y="352" on="0"/>
        <pt x="285" y="351" on="1"/>
        <pt x="293" y="350" on="0"/>
        <pt x="313" y="349" on="0"/>
        <pt x="324" y="349" on="1"/>
        <pt x="358" y="349" on="0"/>
        <pt x="385" y="352" on="1"/>
        <pt x="395" y="393" on="0"/>
        <pt x="414" y="475" on="0"/>
        <pt x="428" y="547" on="0"/>
        <pt x="436" y="608" on="0"/>
        <pt x="436" y="628" on="1"/>
        <pt x="436" y="647" on="0"/>
        <pt x="432" y="654" on="1"/>
        <pt x="422" y="673" on="0"/>
        <pt x="395" y="689" on="0"/>
        <pt x="380" y="689" on="1"/>
        <pt x="360" y="689" on="0"/>
        <pt x="319" y="668" on="0"/>
        <pt x="298" y="649" on="1"/>
        <pt x="283" y="635" on="0"/>
        <pt x="266" y="620" on="1"/>
        <pt x="252" y="607" on="0"/>
        <pt x="214" y="573" on="0"/>
        <pt x="194" y="555" on="1"/>
        <pt x="134" y="633" on="1"/>
        <pt x="164" y="662" on="0"/>
        <pt x="233" y="712" on="0"/>
        <pt x="301" y="748" on="0"/>
        <pt x="366" y="769" on="0"/>
        <pt x="393" y="769" on="1"/>
        <pt x="398" y="769" on="1"/>
        <pt x="423" y="768" on="0"/>
        <pt x="466" y="745" on="0"/>
        <pt x="497" y="705" on="0"/>
        <pt x="515" y="652" on="0"/>
        <pt x="515" y="621" on="1"/>
        <pt x="515" y="613" on="0"/>
        <pt x="515" y="601" on="0"/>
        <pt x="514" y="594" on="1"/>
        <pt x="512" y="576" on="0"/>
        <pt x="499" y="518" on="0"/>
        <pt x="481" y="445" on="0"/>
        <pt x="461" y="363" on="0"/>
        <pt x="452" y="322" on="1"/>
        <pt x="467" y="282" on="1"/>
        <pt x="459" y="280" on="0"/>
        <pt x="447" y="276" on="0"/>
        <pt x="440" y="275" on="1"/>
        <pt x="428" y="219" on="0"/>
        <pt x="411" y="124" on="0"/>
        <pt x="411" y="95" on="1"/>
        <pt x="411" y="77" on="0"/>
        <pt x="415" y="70" on="1"/>
        <pt x="428" y="47" on="0"/>
        <pt x="455" y="47" on="1"/>
        <pt x="480" y="47" on="0"/>
        <pt x="538" y="82" on="0"/>
        <pt x="559" y="106" on="1"/>
        <pt x="559" y="107" on="0"/>
        <pt x="572" y="123" on="0"/>
        <pt x="587" y="144" on="0"/>
        <pt x="600" y="165" on="0"/>
        <pt x="601" y="171" on="1"/>
        <pt x="669" y="109" on="1"/>
        <pt x="645" y="89" on="0"/>
        <pt x="584" y="35" on="0"/>
      </contour>
    </TTGlyph>
    <TTGlyph name="AE" xMin="-46" yMin="-18" xMax="897" yMax="773">
      <contour>
        <pt x="698" y="437" on="1"/>
        <pt x="694" y="438" on="0"/>
        <pt x="688" y="439" on="0"/>
        <pt x="684" y="439" on="1"/>
        <pt x="658" y="439" on="0"/>
        <pt x="614" y="410" on="1"/>
        <pt x="626" y="407" on="0"/>
        <pt x="637" y="407" on="1"/>
        <pt x="657" y="407" on="0"/>
        <pt x="691" y="424" on="0"/>
      </contour>
      <contour>
        <pt x="659" y="101" on="1"/>
        <pt x="674" y="110" on="0"/>
        <pt x="692" y="126" on="1"/>
        <pt x="708" y="140" on="0"/>
        <pt x="754" y="183" on="0"/>
        <pt x="783" y="215" on="1"/>
        <pt x="845" y="132" on="1"/>
        <pt x="826" y="115" on="0"/>
        <pt x="763" y="65" on="0"/>
        <pt x="689" y="17" on="0"/>
        <pt x="614" y="-17" on="0"/>
        <pt x="584" y="-18" on="1"/>
        <pt x="580" y="-18" on="1"/>
        <pt x="550" y="-18" on="0"/>
        <pt x="483" y="3" on="0"/>
        <pt x="424" y="43" on="0"/>
        <pt x="381" y="101" on="0"/>
        <pt x="374" y="139" on="1"/>
        <pt x="373" y="145" on="0"/>
        <pt x="372" y="158" on="0"/>
        <pt x="372" y="165" on="1"/>
        <pt x="372" y="191" on="0"/>
        <pt x="387" y="246" on="0"/>
        <pt x="398" y="273" on="1"/>
        <pt x="374" y="274" on="0"/>
        <pt x="325" y="280" on="0"/>
        <pt x="302" y="285" on="1"/>
        <pt x="290" y="288" on="0"/>
        <pt x="275" y="288" on="1"/>
        <pt x="271" y="288" on="0"/>
        <pt x="269" y="287" on="1"/>
        <pt x="234" y="234" on="0"/>
        <pt x="155" y="143" on="0"/>
        <pt x="78" y="74" on="0"/>
        <pt x="10" y="31" on="0"/>
        <pt x="-13" y="26" on="1"/>
        <pt x="-46" y="86" on="1"/>
        <pt x="-33" y="87" on="0"/>
        <pt x="16" y="119" on="0"/>
        <pt x="74" y="169" on="0"/>
        <pt x="136" y="230" on="0"/>
        <pt x="163" y="259" on="1"/>
        <pt x="155" y="255" on="1"/>
        <pt x="141" y="248" on="1"/>
        <pt x="127" y="306" on="1"/>
        <pt x="147" y="315" on="0"/>
        <pt x="201" y="333" on="0"/>
        <pt x="231" y="339" on="1"/>
        <pt x="233" y="341" on="0"/>
        <pt x="234" y="343" on="0"/>
        <pt x="236" y="345" on="1"/>
        <pt x="245" y="362" on="0"/>
        <pt x="261" y="398" on="1"/>
        <pt x="275" y="428" on="0"/>
        <pt x="318" y="535" on="0"/>
        <pt x="350" y="620" on="1"/>
        <pt x="404" y="605" on="1"/>
        <pt x="404" y="582" on="0"/>
        <pt x="378" y="506" on="0"/>
        <pt x="362" y="468" on="1"/>
        <pt x="344" y="424" on="0"/>
        <pt x="321" y="376" on="1"/>
        <pt x="317" y="370" on="0"/>
        <pt x="311" y="356" on="0"/>
        <pt x="307" y="349" on="1"/>
        <pt x="311" y="350" on="0"/>
        <pt x="319" y="350" on="1"/>
        <pt x="325" y="350" on="0"/>
        <pt x="336" y="349" on="0"/>
        <pt x="341" y="349" on="1"/>
        <pt x="350" y="347" on="0"/>
        <pt x="370" y="347" on="0"/>
        <pt x="381" y="347" on="1"/>
        <pt x="396" y="347" on="0"/>
        <pt x="427" y="349" on="0"/>
        <pt x="440" y="349" on="1"/>
        <pt x="441" y="349" on="1"/>
        <pt x="452" y="365" on="0"/>
        <pt x="473" y="392" on="0"/>
        <pt x="483" y="403" on="1"/>
        <pt x="472" y="426" on="0"/>
        <pt x="453" y="491" on="0"/>
        <pt x="453" y="526" on="1"/>
        <pt x="453" y="555" on="0"/>
        <pt x="469" y="611" on="0"/>
        <pt x="488" y="635" on="1"/>
        <pt x="490" y="637" on="0"/>
        <pt x="493" y="641" on="0"/>
        <pt x="495" y="643" on="1"/>
        <pt x="495" y="650" on="0"/>
        <pt x="492" y="655" on="1"/>
        <pt x="472" y="692" on="0"/>
        <pt x="437" y="692" on="1"/>
        <pt x="418" y="692" on="0"/>
        <pt x="374" y="670" on="0"/>
        <pt x="353" y="651" on="1"/>
        <pt x="338" y="638" on="0"/>
        <pt x="321" y="623" on="1"/>
        <pt x="307" y="610" on="0"/>
        <pt x="271" y="576" on="0"/>
        <pt x="251" y="559" on="1"/>
        <pt x="195" y="633" on="1"/>
        <pt x="225" y="661" on="0"/>
        <pt x="292" y="710" on="0"/>
        <pt x="359" y="746" on="0"/>
        <pt x="424" y="767" on="0"/>
        <pt x="451" y="767" on="1"/>
        <pt x="455" y="767" on="1"/>
        <pt x="488" y="765" on="0"/>
        <pt x="540" y="727" on="0"/>
        <pt x="554" y="695" on="1"/>
        <pt x="579" y="712" on="0"/>
        <pt x="632" y="741" on="0"/>
        <pt x="684" y="762" on="0"/>
        <pt x="731" y="773" on="0"/>
        <pt x="749" y="773" on="1"/>
        <pt x="756" y="773" on="0"/>
        <pt x="767" y="771" on="0"/>
        <pt x="772" y="769" on="1"/>
        <pt x="787" y="761" on="0"/>
        <pt x="806" y="747" on="1"/>
        <pt x="823" y="735" on="0"/>
        <pt x="868" y="695" on="0"/>
        <pt x="897" y="665" on="1"/>
        <pt x="809" y="637" on="1"/>
        <pt x="798" y="665" on="0"/>
        <pt x="745" y="685" on="0"/>
        <pt x="718" y="685" on="1"/>
        <pt x="680" y="685" on="0"/>
        <pt x="656" y="674" on="1"/>
        <pt x="644" y="668" on="0"/>
        <pt x="599" y="631" on="0"/>
        <pt x="554" y="584" on="0"/>
        <pt x="521" y="536" on="0"/>
        <pt x="521" y="519" on="1"/>
        <pt x="521" y="516" on="1"/>
        <pt x="523" y="503" on="0"/>
        <pt x="542" y="473" on="0"/>
        <pt x="556" y="459" on="1"/>
        <pt x="577" y="470" on="0"/>
        <pt x="626" y="490" on="0"/>
        <pt x="676" y="506" on="0"/>
        <pt x="721" y="516" on="0"/>
        <pt x="738" y="516" on="1"/>
        <pt x="762" y="516" on="0"/>
        <pt x="766" y="507" on="1"/>
        <pt x="770" y="501" on="0"/>
        <pt x="773" y="483" on="0"/>
        <pt x="773" y="473" on="1"/>
        <pt x="773" y="457" on="0"/>
        <pt x="764" y="420" on="0"/>
        <pt x="746" y="387" on="0"/>
        <pt x="720" y="359" on="0"/>
        <pt x="702" y="352" on="1"/>
        <pt x="676" y="342" on="0"/>
        <pt x="639" y="342" on="1"/>
        <pt x="616" y="342" on="0"/>
        <pt x="570" y="349" on="0"/>
        <pt x="550" y="355" on="1"/>
        <pt x="533" y="342" on="0"/>
        <pt x="507" y="319" on="0"/>
        <pt x="500" y="309" on="1"/>
        <pt x="492" y="298" on="0"/>
        <pt x="478" y="260" on="0"/>
        <pt x="467" y="212" on="0"/>
        <pt x="461" y="161" on="0"/>
        <pt x="461" y="138" on="1"/>
        <pt x="461" y="117" on="0"/>
        <pt x="467" y="82" on="0"/>
        <pt x="475" y="74" on="1"/>
        <pt x="482" y="66" on="0"/>
        <pt x="505" y="59" on="0"/>
        <pt x="520" y="59" on="1"/>
        <pt x="537" y="59" on="0"/>
        <pt x="576" y="67" on="0"/>
        <pt x="614" y="79" on="0"/>
        <pt x="648" y="94" on="0"/>
      </contour>
    </TTGlyph>
    <TTGlyph name="Aacute" xMin="-108" yMin="-45" xMax="669" yMax="970">
      <component glyphName="A" x="0" y="0" flags="0x204"/>
      <component glyphName="acute" x="349" y="207" flags="0x4"/>
    </TTGlyph>
    <TTGlyph name="Acircumflex" xMin="-108" yMin="-45" xMax="669" yMax="976">
      <component glyphName="A" x="0" y="0" flags="0x204"/>
      <component glyphName="circumflex" x="272" y="188" flags="0x4"/>
    </TTGlyph>
    <TTGlyph name="Adieresis" xMin="-108" yMin="-45" xMax="669" yMax="940">
      <component glyphName="A" x="0" y="0" flags="0x204"/>
      <component glyphName="dieresis" x="202" y="186" flags="0x4"/>
    </TTGlyph>
    <TTGlyph name="Agrave" xMin="-108" yMin="-45" xMax="669" yMax="992">
      <component glyphName="A" x="0" y="0" flags="0x204"/>
      <component glyphName="grave" x="197" y="219" flags="0x4"/>
    </TTGlyph>
    <TTGlyph name="Aring" xMin="-108" yMin="-45" xMax="669" yMax="1019">
      <component glyphName="A" x="0" y="0" flags="0x204"/>
      <component glyphName="ring" x="328" y="222" flags="0x4"/>
    </TTGlyph>
    <TTGlyph name="Atilde" xMin="-108" yMin="-45" xMax="672" yMax="970">
      <component glyphName="A" x="0" y="0" flags="0x4"/>
      <component glyphName="tilde" x="228" y="209" flags="0x4"/>
    </TTGlyph>
    <TTGlyph name="B" xMin="10" yMin="-17" xMax="645" yMax="767">
      <contour>
        <pt x="373" y="366" on="1"/>
        <pt x="357" y="365" on="0"/>
        <pt x="328" y="353" on="0"/>
        <pt x="314" y="344" on="1"/>
        <pt x="346" y="349" on="0"/>
      </contour>
      <contour>
        <pt x="278" y="549" on="1"/>
        <pt x="269" y="517" on="0"/>
        <pt x="239" y="420" on="0"/>
        <pt x="204" y="309" on="0"/>
        <pt x="166" y="193" on="0"/>
        <pt x="150" y="142" on="1"/>
        <pt x="157" y="115" on="0"/>
        <pt x="190" y="65" on="0"/>
        <pt x="229" y="55" on="1"/>
        <pt x="235" y="53" on="0"/>
        <pt x="246" y="53" on="0"/>
        <pt x="252" y="53" on="1"/>
        <pt x="285" y="53" on="0"/>
        <pt x="353" y="90" on="0"/>
        <pt x="410" y="145" on="0"/>
        <pt x="449" y="210" on="0"/>
        <pt x="454" y="239" on="1"/>
        <pt x="455" y="245" on="0"/>
        <pt x="455" y="256" on="0"/>
        <pt x="455" y="261" on="1"/>
        <pt x="455" y="290" on="0"/>
        <pt x="443" y="308" on="1"/>
        <pt x="419" y="289" on="0"/>
        <pt x="393" y="280" on="1"/>
        <pt x="337" y="259" on="0"/>
        <pt x="301" y="259" on="1"/>
        <pt x="271" y="259" on="0"/>
        <pt x="234" y="282" on="0"/>
        <pt x="223" y="303" on="1"/>
        <pt x="219" y="310" on="0"/>
        <pt x="219" y="318" on="1"/>
        <pt x="219" y="336" on="0"/>
        <pt x="247" y="375" on="0"/>
        <pt x="286" y="407" on="0"/>
        <pt x="329" y="429" on="0"/>
        <pt x="345" y="429" on="1"/>
        <pt x="348" y="429" on="1"/>
        <pt x="366" y="429" on="0"/>
        <pt x="413" y="420" on="0"/>
        <pt x="435" y="412" on="1"/>
        <pt x="453" y="426" on="0"/>
        <pt x="491" y="466" on="0"/>
        <pt x="523" y="518" on="0"/>
        <pt x="546" y="583" on="0"/>
        <pt x="549" y="624" on="1"/>
        <pt x="549" y="627" on="1"/>
        <pt x="549" y="641" on="0"/>
        <pt x="533" y="660" on="0"/>
        <pt x="506" y="671" on="0"/>
        <pt x="472" y="676" on="0"/>
        <pt x="454" y="676" on="1"/>
        <pt x="430" y="676" on="0"/>
        <pt x="385" y="669" on="0"/>
        <pt x="373" y="662" on="1"/>
        <pt x="364" y="657" on="0"/>
        <pt x="341" y="635" on="0"/>
        <pt x="315" y="604" on="0"/>
        <pt x="289" y="568" on="0"/>
      </contour>
      <contour>
        <pt x="220" y="667" on="1"/>
        <pt x="225" y="662" on="0"/>
        <pt x="235" y="652" on="0"/>
        <pt x="241" y="644" on="1"/>
        <pt x="249" y="650" on="1"/>
        <pt x="227" y="674" on="1"/>
      </contour>
      <contour>
        <pt x="502" y="361" on="1"/>
        <pt x="505" y="348" on="0"/>
        <pt x="521" y="273" on="0"/>
        <pt x="523" y="225" on="1"/>
        <pt x="523" y="211" on="1"/>
        <pt x="523" y="189" on="0"/>
        <pt x="518" y="145" on="0"/>
        <pt x="504" y="103" on="0"/>
        <pt x="481" y="66" on="0"/>
        <pt x="463" y="51" on="1"/>
        <pt x="441" y="33" on="0"/>
        <pt x="387" y="7" on="0"/>
        <pt x="330" y="-9" on="0"/>
        <pt x="273" y="-17" on="0"/>
        <pt x="247" y="-17" on="1"/>
        <pt x="210" y="-17" on="0"/>
        <pt x="153" y="-3" on="0"/>
        <pt x="140" y="10" on="1"/>
        <pt x="134" y="16" on="0"/>
        <pt x="122" y="32" on="0"/>
        <pt x="116" y="41" on="1"/>
        <pt x="113" y="31" on="0"/>
        <pt x="101" y="-2" on="0"/>
        <pt x="96" y="-17" on="1"/>
        <pt x="10" y="2" on="1"/>
        <pt x="19" y="23" on="0"/>
        <pt x="45" y="89" on="0"/>
        <pt x="61" y="131" on="1"/>
        <pt x="60" y="134" on="0"/>
        <pt x="55" y="144" on="0"/>
        <pt x="52" y="151" on="1"/>
        <pt x="76" y="169" on="1"/>
        <pt x="98" y="229" on="0"/>
        <pt x="146" y="365" on="0"/>
        <pt x="185" y="495" on="0"/>
        <pt x="210" y="608" on="0"/>
        <pt x="210" y="645" on="1"/>
        <pt x="210" y="653" on="0"/>
        <pt x="209" y="666" on="0"/>
        <pt x="208" y="671" on="1"/>
        <pt x="206" y="672" on="0"/>
        <pt x="202" y="672" on="1"/>
        <pt x="190" y="672" on="0"/>
        <pt x="164" y="655" on="0"/>
        <pt x="141" y="627" on="0"/>
        <pt x="122" y="591" on="0"/>
        <pt x="116" y="572" on="1"/>
        <pt x="47" y="634" on="1"/>
        <pt x="64" y="652" on="0"/>
        <pt x="83" y="678" on="0"/>
        <pt x="91" y="687" on="1"/>
        <pt x="104" y="703" on="0"/>
        <pt x="115" y="714" on="1"/>
        <pt x="127" y="724" on="0"/>
        <pt x="138" y="729" on="1"/>
        <pt x="145" y="732" on="0"/>
        <pt x="163" y="739" on="0"/>
        <pt x="175" y="744" on="1"/>
        <pt x="185" y="749" on="0"/>
        <pt x="198" y="749" on="1"/>
        <pt x="224" y="749" on="0"/>
        <pt x="266" y="708" on="0"/>
        <pt x="278" y="679" on="1"/>
        <pt x="313" y="713" on="0"/>
        <pt x="397" y="767" on="0"/>
        <pt x="440" y="767" on="1"/>
        <pt x="452" y="767" on="1"/>
        <pt x="482" y="764" on="0"/>
        <pt x="549" y="734" on="0"/>
        <pt x="607" y="691" on="0"/>
        <pt x="645" y="639" on="0"/>
        <pt x="645" y="614" on="1"/>
        <pt x="645" y="608" on="1"/>
        <pt x="643" y="591" on="0"/>
        <pt x="620" y="533" on="0"/>
        <pt x="581" y="465" on="0"/>
        <pt x="530" y="393" on="0"/>
        <pt x="502" y="362" on="1"/>
      </contour>
    </TTGlyph>
    <TTGlyph name="C" xMin="26" yMin="-27" xMax="530" yMax="761">
      <contour>
        <pt x="433" y="566" on="1"/>
        <pt x="433" y="587" on="0"/>
        <pt x="426" y="618" on="0"/>
        <pt x="422" y="628" on="1"/>
        <pt x="418" y="639" on="0"/>
        <pt x="412" y="648" on="1"/>
        <pt x="399" y="663" on="0"/>
        <pt x="371" y="663" on="1"/>
        <pt x="347" y="663" on="0"/>
        <pt x="286" y="637" on="0"/>
        <pt x="257" y="606" on="1"/>
        <pt x="242" y="590" on="0"/>
        <pt x="206" y="518" on="0"/>
        <pt x="170" y="426" on="0"/>
        <pt x="136" y="326" on="0"/>
        <pt x="110" y="237" on="0"/>
        <pt x="94" y="169" on="0"/>
        <pt x="94" y="156" on="1"/>
        <pt x="94" y="139" on="0"/>
        <pt x="117" y="101" on="0"/>
        <pt x="152" y="68" on="0"/>
        <pt x="193" y="47" on="0"/>
        <pt x="211" y="47" on="1"/>
        <pt x="220" y="47" on="0"/>
        <pt x="228" y="50" on="1"/>
        <pt x="247" y="57" on="0"/>
        <pt x="301" y="92" on="0"/>
        <pt x="358" y="134" on="0"/>
        <pt x="409" y="177" on="0"/>
        <pt x="424" y="194" on="1"/>
        <pt x="469" y="141" on="1"/>
        <pt x="461" y="129" on="0"/>
        <pt x="452" y="114" on="1"/>
        <pt x="441" y="97" on="0"/>
        <pt x="427" y="80" on="1"/>
        <pt x="413" y="62" on="0"/>
        <pt x="369" y="26" on="0"/>
        <pt x="337" y="9" on="1"/>
        <pt x="296" y="-11" on="0"/>
        <pt x="214" y="-27" on="0"/>
        <pt x="181" y="-27" on="1"/>
        <pt x="164" y="-27" on="0"/>
        <pt x="135" y="-24" on="0"/>
        <pt x="125" y="-20" on="1"/>
        <pt x="98" y="-13" on="0"/>
        <pt x="60" y="42" on="0"/>
        <pt x="36" y="118" on="0"/>
        <pt x="26" y="205" on="0"/>
        <pt x="26" y="244" on="1"/>
        <pt x="26" y="275" on="0"/>
        <pt x="59" y="371" on="0"/>
        <pt x="83" y="424" on="1"/>
        <pt x="107" y="478" on="0"/>
        <pt x="158" y="577" on="0"/>
        <pt x="175" y="612" on="1"/>
        <pt x="191" y="645" on="0"/>
        <pt x="258" y="700" on="0"/>
        <pt x="333" y="739" on="0"/>
        <pt x="402" y="761" on="0"/>
        <pt x="421" y="761" on="1"/>
        <pt x="429" y="761" on="1"/>
        <pt x="445" y="758" on="0"/>
        <pt x="481" y="712" on="0"/>
        <pt x="511" y="649" on="0"/>
        <pt x="530" y="580" on="0"/>
        <pt x="530" y="556" on="1"/>
      </contour>
    </TTGlyph>
    <TTGlyph name="Ccedilla" xMin="26" yMin="-312" xMax="525" yMax="759">
      <contour>
        <pt x="265" y="-63" on="1"/>
        <pt x="273" y="-67" on="0"/>
        <pt x="295" y="-91" on="0"/>
        <pt x="314" y="-122" on="0"/>
        <pt x="328" y="-157" on="0"/>
        <pt x="328" y="-172" on="1"/>
        <pt x="328" y="-183" on="0"/>
        <pt x="326" y="-187" on="1"/>
        <pt x="321" y="-200" on="0"/>
        <pt x="280" y="-242" on="0"/>
        <pt x="226" y="-283" on="0"/>
        <pt x="167" y="-312" on="0"/>
        <pt x="144" y="-312" on="1"/>
        <pt x="135" y="-312" on="0"/>
        <pt x="132" y="-311" on="1"/>
        <pt x="152" y="-233" on="1"/>
        <pt x="188" y="-226" on="0"/>
        <pt x="227" y="-204" on="0"/>
        <pt x="236" y="-194" on="1"/>
        <pt x="247" y="-183" on="0"/>
        <pt x="248" y="-170" on="1"/>
        <pt x="248" y="-163" on="0"/>
        <pt x="244" y="-157" on="1"/>
        <pt x="241" y="-152" on="0"/>
        <pt x="230" y="-144" on="0"/>
        <pt x="219" y="-144" on="1"/>
        <pt x="211" y="-144" on="0"/>
        <pt x="193" y="-148" on="0"/>
        <pt x="180" y="-154" on="1"/>
        <pt x="108" y="-131" on="1"/>
        <pt x="166" y="-24" on="1"/>
        <pt x="152" y="-23" on="0"/>
        <pt x="131" y="-20" on="0"/>
        <pt x="124" y="-18" on="1"/>
        <pt x="97" y="-11" on="0"/>
        <pt x="60" y="44" on="0"/>
        <pt x="36" y="119" on="0"/>
        <pt x="26" y="205" on="0"/>
        <pt x="26" y="245" on="1"/>
        <pt x="26" y="275" on="0"/>
        <pt x="60" y="371" on="0"/>
        <pt x="107" y="476" on="0"/>
        <pt x="158" y="576" on="0"/>
        <pt x="175" y="611" on="1"/>
        <pt x="191" y="644" on="0"/>
        <pt x="258" y="698" on="0"/>
        <pt x="331" y="737" on="0"/>
        <pt x="400" y="759" on="0"/>
        <pt x="419" y="759" on="1"/>
        <pt x="424" y="759" on="0"/>
        <pt x="426" y="758" on="1"/>
        <pt x="442" y="756" on="0"/>
        <pt x="477" y="710" on="0"/>
        <pt x="506" y="648" on="0"/>
        <pt x="525" y="582" on="0"/>
        <pt x="525" y="558" on="1"/>
        <pt x="433" y="568" on="1"/>
        <pt x="433" y="589" on="0"/>
        <pt x="426" y="619" on="0"/>
        <pt x="422" y="630" on="1"/>
        <pt x="418" y="641" on="0"/>
        <pt x="412" y="650" on="1"/>
        <pt x="405" y="657" on="0"/>
        <pt x="383" y="666" on="0"/>
        <pt x="369" y="666" on="1"/>
        <pt x="344" y="666" on="0"/>
        <pt x="281" y="639" on="0"/>
        <pt x="252" y="607" on="1"/>
        <pt x="237" y="591" on="0"/>
        <pt x="201" y="519" on="0"/>
        <pt x="165" y="427" on="0"/>
        <pt x="131" y="326" on="0"/>
        <pt x="105" y="237" on="0"/>
        <pt x="89" y="169" on="0"/>
        <pt x="89" y="156" on="1"/>
        <pt x="89" y="139" on="0"/>
        <pt x="112" y="99" on="0"/>
        <pt x="148" y="66" on="0"/>
        <pt x="190" y="44" on="0"/>
        <pt x="209" y="44" on="1"/>
        <pt x="219" y="44" on="0"/>
        <pt x="226" y="48" on="1"/>
        <pt x="245" y="55" on="0"/>
        <pt x="299" y="90" on="0"/>
        <pt x="356" y="131" on="0"/>
        <pt x="406" y="174" on="0"/>
        <pt x="421" y="190" on="1"/>
        <pt x="464" y="141" on="1"/>
        <pt x="456" y="130" on="0"/>
        <pt x="437" y="100" on="0"/>
        <pt x="408" y="65" on="0"/>
        <pt x="365" y="28" on="0"/>
        <pt x="333" y="12" on="1"/>
        <pt x="310" y="1" on="0"/>
        <pt x="264" y="-14" on="0"/>
        <pt x="242" y="-18" on="1"/>
        <pt x="215" y="-83" on="1"/>
        <pt x="226" y="-75" on="0"/>
        <pt x="251" y="-62" on="0"/>
        <pt x="259" y="-62" on="1"/>
        <pt x="261" y="-62" on="0"/>
        <pt x="263" y="-63" on="0"/>
      </contour>
    </TTGlyph>
    <TTGlyph name="D" xMin="10" yMin="-25" xMax="647" yMax="765">
      <contour>
        <pt x="467" y="250" on="1"/>
        <pt x="486" y="281" on="0"/>
        <pt x="516" y="365" on="0"/>
        <pt x="536" y="456" on="0"/>
        <pt x="546" y="544" on="0"/>
        <pt x="546" y="580" on="1"/>
        <pt x="546" y="616" on="0"/>
        <pt x="541" y="639" on="1"/>
        <pt x="533" y="666" on="0"/>
        <pt x="491" y="685" on="0"/>
        <pt x="464" y="685" on="1"/>
        <pt x="437" y="685" on="0"/>
        <pt x="381" y="675" on="0"/>
        <pt x="361" y="670" on="1"/>
        <pt x="347" y="667" on="0"/>
        <pt x="313" y="650" on="0"/>
        <pt x="298" y="641" on="1"/>
        <pt x="298" y="638" on="1"/>
        <pt x="298" y="637" on="1"/>
        <pt x="298" y="627" on="0"/>
        <pt x="285" y="575" on="0"/>
        <pt x="264" y="499" on="0"/>
        <pt x="235" y="407" on="0"/>
        <pt x="202" y="307" on="0"/>
        <pt x="167" y="206" on="0"/>
        <pt x="150" y="160" on="1"/>
        <pt x="156" y="139" on="0"/>
        <pt x="172" y="95" on="0"/>
        <pt x="192" y="59" on="0"/>
        <pt x="214" y="36" on="0"/>
        <pt x="225" y="36" on="1"/>
        <pt x="242" y="36" on="0"/>
        <pt x="304" y="73" on="0"/>
        <pt x="373" y="134" on="0"/>
        <pt x="442" y="211" on="0"/>
      </contour>
      <contour>
        <pt x="451" y="764" on="1"/>
        <pt x="479" y="761" on="0"/>
        <pt x="547" y="721" on="0"/>
        <pt x="607" y="662" on="0"/>
        <pt x="647" y="594" on="0"/>
        <pt x="647" y="563" on="1"/>
        <pt x="647" y="555" on="1"/>
        <pt x="645" y="534" on="0"/>
        <pt x="619" y="448" on="0"/>
        <pt x="581" y="341" on="0"/>
        <pt x="533" y="225" on="0"/>
        <pt x="483" y="122" on="0"/>
        <pt x="434" y="46" on="0"/>
        <pt x="415" y="32" on="1"/>
        <pt x="372" y="3" on="0"/>
        <pt x="290" y="-25" on="0"/>
        <pt x="256" y="-25" on="1"/>
        <pt x="233" y="-25" on="0"/>
        <pt x="217" y="-19" on="1"/>
        <pt x="193" y="-13" on="0"/>
        <pt x="141" y="36" on="0"/>
        <pt x="118" y="74" on="1"/>
        <pt x="104" y="42" on="0"/>
        <pt x="84" y="-6" on="0"/>
        <pt x="76" y="-20" on="1"/>
        <pt x="10" y="-3" on="1"/>
        <pt x="21" y="24" on="0"/>
        <pt x="59" y="127" on="0"/>
        <pt x="104" y="253" on="0"/>
        <pt x="150" y="389" on="0"/>
        <pt x="188" y="510" on="0"/>
        <pt x="211" y="601" on="0"/>
        <pt x="211" y="620" on="1"/>
        <pt x="210" y="655" on="0"/>
        <pt x="189" y="655" on="1"/>
        <pt x="181" y="655" on="0"/>
        <pt x="159" y="643" on="0"/>
        <pt x="136" y="625" on="0"/>
        <pt x="112" y="603" on="0"/>
        <pt x="102" y="592" on="1"/>
        <pt x="100" y="594" on="0"/>
        <pt x="96" y="600" on="1"/>
        <pt x="92" y="605" on="0"/>
        <pt x="77" y="628" on="0"/>
        <pt x="65" y="649" on="1"/>
        <pt x="87" y="689" on="0"/>
        <pt x="164" y="740" on="0"/>
        <pt x="199" y="743" on="1"/>
        <pt x="204" y="743" on="1"/>
        <pt x="221" y="743" on="0"/>
        <pt x="253" y="727" on="0"/>
        <pt x="266" y="713" on="1"/>
        <pt x="302" y="732" on="0"/>
        <pt x="394" y="765" on="0"/>
        <pt x="435" y="765" on="1"/>
        <pt x="439" y="765" on="0"/>
        <pt x="446" y="765" on="0"/>
      </contour>
    </TTGlyph>
    <TTGlyph name="E" xMin="36" yMin="-18" xMax="561" yMax="773">
      <contour>
        <pt x="362" y="437" on="1"/>
        <pt x="358" y="438" on="0"/>
        <pt x="352" y="439" on="0"/>
        <pt x="348" y="439" on="1"/>
        <pt x="322" y="439" on="0"/>
        <pt x="279" y="410" on="1"/>
        <pt x="289" y="407" on="0"/>
        <pt x="300" y="407" on="1"/>
        <pt x="321" y="407" on="0"/>
        <pt x="355" y="424" on="0"/>
      </contour>
      <contour>
        <pt x="324" y="101" on="1"/>
        <pt x="338" y="110" on="0"/>
        <pt x="356" y="126" on="1"/>
        <pt x="372" y="140" on="0"/>
        <pt x="418" y="183" on="0"/>
        <pt x="447" y="215" on="1"/>
        <pt x="509" y="132" on="1"/>
        <pt x="490" y="115" on="0"/>
        <pt x="427" y="65" on="0"/>
        <pt x="353" y="17" on="0"/>
        <pt x="278" y="-17" on="0"/>
        <pt x="248" y="-18" on="1"/>
        <pt x="244" y="-18" on="1"/>
        <pt x="214" y="-18" on="0"/>
        <pt x="147" y="3" on="0"/>
        <pt x="88" y="43" on="0"/>
        <pt x="45" y="101" on="0"/>
        <pt x="38" y="139" on="1"/>
        <pt x="37" y="145" on="0"/>
        <pt x="36" y="158" on="0"/>
        <pt x="36" y="165" on="1"/>
        <pt x="36" y="196" on="0"/>
        <pt x="57" y="263" on="0"/>
        <pt x="89" y="327" on="0"/>
        <pt x="129" y="383" on="0"/>
        <pt x="147" y="403" on="1"/>
        <pt x="136" y="426" on="0"/>
        <pt x="117" y="491" on="0"/>
        <pt x="117" y="526" on="1"/>
        <pt x="117" y="555" on="0"/>
        <pt x="133" y="611" on="0"/>
        <pt x="153" y="635" on="1"/>
        <pt x="176" y="664" on="0"/>
        <pt x="245" y="715" on="0"/>
        <pt x="318" y="752" on="0"/>
        <pt x="388" y="773" on="0"/>
        <pt x="413" y="773" on="1"/>
        <pt x="420" y="773" on="0"/>
        <pt x="431" y="771" on="0"/>
        <pt x="436" y="769" on="1"/>
        <pt x="451" y="761" on="0"/>
        <pt x="470" y="747" on="1"/>
        <pt x="487" y="735" on="0"/>
        <pt x="532" y="695" on="0"/>
        <pt x="561" y="665" on="1"/>
        <pt x="473" y="637" on="1"/>
        <pt x="462" y="665" on="0"/>
        <pt x="409" y="685" on="0"/>
        <pt x="382" y="685" on="1"/>
        <pt x="343" y="685" on="0"/>
        <pt x="321" y="674" on="1"/>
        <pt x="309" y="668" on="0"/>
        <pt x="263" y="631" on="0"/>
        <pt x="218" y="584" on="0"/>
        <pt x="184" y="536" on="0"/>
        <pt x="184" y="519" on="1"/>
        <pt x="184" y="518" on="0"/>
        <pt x="185" y="517" on="0"/>
        <pt x="185" y="516" on="1"/>
        <pt x="187" y="503" on="0"/>
        <pt x="206" y="473" on="0"/>
        <pt x="219" y="459" on="1"/>
        <pt x="240" y="470" on="0"/>
        <pt x="290" y="490" on="0"/>
        <pt x="340" y="506" on="0"/>
        <pt x="385" y="516" on="0"/>
        <pt x="402" y="516" on="1"/>
        <pt x="425" y="516" on="0"/>
        <pt x="430" y="507" on="1"/>
        <pt x="434" y="501" on="0"/>
        <pt x="437" y="483" on="0"/>
        <pt x="437" y="473" on="1"/>
        <pt x="437" y="457" on="0"/>
        <pt x="428" y="420" on="0"/>
        <pt x="410" y="387" on="0"/>
        <pt x="384" y="359" on="0"/>
        <pt x="367" y="352" on="1"/>
        <pt x="340" y="342" on="0"/>
        <pt x="303" y="342" on="1"/>
        <pt x="280" y="342" on="0"/>
        <pt x="234" y="349" on="0"/>
        <pt x="214" y="355" on="1"/>
        <pt x="198" y="342" on="0"/>
        <pt x="171" y="319" on="0"/>
        <pt x="164" y="309" on="1"/>
        <pt x="156" y="298" on="0"/>
        <pt x="142" y="260" on="0"/>
        <pt x="131" y="212" on="0"/>
        <pt x="125" y="161" on="0"/>
        <pt x="125" y="138" on="1"/>
        <pt x="125" y="117" on="0"/>
        <pt x="131" y="82" on="0"/>
        <pt x="139" y="74" on="1"/>
        <pt x="146" y="66" on="0"/>
        <pt x="169" y="59" on="0"/>
        <pt x="184" y="59" on="1"/>
        <pt x="201" y="59" on="0"/>
        <pt x="240" y="67" on="0"/>
        <pt x="278" y="79" on="0"/>
        <pt x="312" y="94" on="0"/>
      </contour>
    </TTGlyph>
    <TTGlyph name="Eacute" xMin="36" yMin="-18" xMax="561" yMax="973">
      <component glyphName="E" x="0" y="0" flags="0x204"/>
      <component glyphName="acute" x="307" y="210" flags="0x4"/>
    </TTGlyph>
    <TTGlyph name="Ecircumflex" xMin="36" yMin="-18" xMax="561" yMax="962">
      <component glyphName="E" x="0" y="0" flags="0x204"/>
      <component glyphName="circumflex" x="223" y="174" flags="0x4"/>
    </TTGlyph>
    <TTGlyph name="Edieresis" xMin="36" yMin="-18" xMax="561" yMax="938">
      <component glyphName="E" x="0" y="0" flags="0x204"/>
      <component glyphName="dieresis" x="194" y="184" flags="0x4"/>
    </TTGlyph>
    <TTGlyph name="Egrave" xMin="36" yMin="-18" xMax="561" yMax="986">
      <component glyphName="E" x="0" y="0" flags="0x204"/>
      <component glyphName="grave" x="156" y="213" flags="0x4"/>
    </TTGlyph>
    <TTGlyph name="Eth" xMin="31" yMin="-25" xMax="693" yMax="765">
      <contour>
        <pt x="51" y="398" on="1"/>
        <pt x="56" y="398" on="0"/>
        <pt x="68" y="397" on="0"/>
        <pt x="76" y="397" on="1"/>
        <pt x="101" y="397" on="0"/>
        <pt x="170" y="401" on="0"/>
        <pt x="202" y="404" on="1"/>
        <pt x="214" y="441" on="0"/>
        <pt x="234" y="509" on="0"/>
        <pt x="249" y="565" on="0"/>
        <pt x="257" y="607" on="0"/>
        <pt x="257" y="618" on="1"/>
        <pt x="257" y="620" on="1"/>
        <pt x="257" y="639" on="0"/>
        <pt x="245" y="655" on="0"/>
        <pt x="236" y="655" on="1"/>
        <pt x="227" y="655" on="0"/>
        <pt x="205" y="643" on="0"/>
        <pt x="182" y="625" on="0"/>
        <pt x="158" y="603" on="0"/>
        <pt x="148" y="592" on="1"/>
        <pt x="146" y="594" on="0"/>
        <pt x="142" y="600" on="1"/>
        <pt x="138" y="605" on="0"/>
        <pt x="123" y="628" on="0"/>
        <pt x="111" y="649" on="1"/>
        <pt x="133" y="689" on="0"/>
        <pt x="210" y="740" on="0"/>
        <pt x="245" y="743" on="1"/>
        <pt x="250" y="743" on="1"/>
        <pt x="267" y="743" on="0"/>
        <pt x="299" y="727" on="0"/>
        <pt x="312" y="713" on="1"/>
        <pt x="348" y="732" on="0"/>
        <pt x="440" y="765" on="0"/>
        <pt x="481" y="765" on="1"/>
        <pt x="485" y="765" on="0"/>
        <pt x="493" y="764" on="0"/>
        <pt x="496" y="764" on="1"/>
        <pt x="524" y="761" on="0"/>
        <pt x="593" y="721" on="0"/>
        <pt x="653" y="662" on="0"/>
        <pt x="693" y="594" on="0"/>
        <pt x="693" y="563" on="1"/>
        <pt x="693" y="555" on="1"/>
        <pt x="691" y="534" on="0"/>
        <pt x="665" y="448" on="0"/>
        <pt x="627" y="341" on="0"/>
        <pt x="579" y="225" on="0"/>
        <pt x="529" y="122" on="0"/>
        <pt x="480" y="46" on="0"/>
        <pt x="461" y="32" on="1"/>
        <pt x="418" y="3" on="0"/>
        <pt x="336" y="-25" on="0"/>
        <pt x="302" y="-25" on="1"/>
        <pt x="279" y="-25" on="0"/>
        <pt x="263" y="-19" on="1"/>
        <pt x="239" y="-12" on="0"/>
        <pt x="187" y="36" on="0"/>
        <pt x="164" y="74" on="1"/>
        <pt x="150" y="42" on="0"/>
        <pt x="130" y="-6" on="0"/>
        <pt x="122" y="-20" on="1"/>
        <pt x="56" y="-3" on="1"/>
        <pt x="65" y="18" on="0"/>
        <pt x="93" y="92" on="0"/>
        <pt x="126" y="185" on="0"/>
        <pt x="163" y="289" on="0"/>
        <pt x="180" y="341" on="1"/>
        <pt x="143" y="333" on="0"/>
        <pt x="109" y="333" on="1"/>
        <pt x="87" y="333" on="0"/>
        <pt x="48" y="342" on="0"/>
        <pt x="31" y="354" on="1"/>
      </contour>
      <contour>
        <pt x="282" y="412" on="1"/>
        <pt x="287" y="412" on="0"/>
        <pt x="297" y="413" on="0"/>
        <pt x="302" y="413" on="1"/>
        <pt x="339" y="413" on="0"/>
        <pt x="402" y="404" on="0"/>
        <pt x="410" y="396" on="1"/>
        <pt x="387" y="343" on="1"/>
        <pt x="356" y="351" on="0"/>
        <pt x="302" y="358" on="0"/>
        <pt x="282" y="358" on="1"/>
        <pt x="269" y="358" on="0"/>
        <pt x="264" y="357" on="1"/>
        <pt x="247" y="307" on="0"/>
        <pt x="213" y="206" on="0"/>
        <pt x="196" y="160" on="1"/>
        <pt x="202" y="139" on="0"/>
        <pt x="218" y="95" on="0"/>
        <pt x="238" y="59" on="0"/>
        <pt x="260" y="36" on="0"/>
        <pt x="271" y="36" on="1"/>
        <pt x="288" y="36" on="0"/>
        <pt x="350" y="73" on="0"/>
        <pt x="419" y="134" on="0"/>
        <pt x="488" y="211" on="0"/>
        <pt x="513" y="250" on="1"/>
        <pt x="532" y="281" on="0"/>
        <pt x="562" y="365" on="0"/>
        <pt x="582" y="456" on="0"/>
        <pt x="592" y="544" on="0"/>
        <pt x="592" y="580" on="1"/>
        <pt x="592" y="616" on="0"/>
        <pt x="587" y="639" on="1"/>
        <pt x="580" y="666" on="0"/>
        <pt x="537" y="685" on="0"/>
        <pt x="510" y="685" on="1"/>
        <pt x="483" y="685" on="0"/>
        <pt x="428" y="675" on="0"/>
        <pt x="408" y="670" on="1"/>
        <pt x="393" y="667" on="0"/>
        <pt x="360" y="650" on="0"/>
        <pt x="344" y="641" on="1"/>
        <pt x="344" y="638" on="1"/>
        <pt x="344" y="637" on="1"/>
        <pt x="344" y="628" on="0"/>
        <pt x="334" y="587" on="0"/>
        <pt x="317" y="527" on="0"/>
        <pt x="295" y="453" on="0"/>
      </contour>
    </TTGlyph>
    <TTGlyph name="Euro" xMin="-20" yMin="92" xMax="481" yMax="658">
      <contour>
        <pt x="260" y="568" on="1"/>
        <pt x="247" y="562" on="0"/>
        <pt x="207" y="503" on="0"/>
        <pt x="187" y="462" on="1"/>
        <pt x="189" y="462" on="1"/>
        <pt x="228" y="462" on="0"/>
        <pt x="246" y="456" on="1"/>
        <pt x="221" y="391" on="1"/>
        <pt x="211" y="399" on="0"/>
        <pt x="182" y="409" on="0"/>
        <pt x="165" y="411" on="1"/>
        <pt x="158" y="394" on="0"/>
        <pt x="147" y="363" on="0"/>
        <pt x="142" y="347" on="1"/>
        <pt x="147" y="347" on="0"/>
        <pt x="153" y="348" on="1"/>
        <pt x="158" y="348" on="0"/>
        <pt x="170" y="349" on="0"/>
        <pt x="178" y="349" on="1"/>
        <pt x="192" y="349" on="0"/>
        <pt x="220" y="345" on="0"/>
        <pt x="228" y="340" on="1"/>
        <pt x="209" y="286" on="1"/>
        <pt x="195" y="290" on="0"/>
        <pt x="165" y="292" on="0"/>
        <pt x="154" y="292" on="1"/>
        <pt x="148" y="292" on="0"/>
        <pt x="139" y="291" on="0"/>
        <pt x="136" y="291" on="1"/>
        <pt x="130" y="291" on="1"/>
        <pt x="130" y="286" on="0"/>
        <pt x="129" y="278" on="0"/>
        <pt x="129" y="273" on="1"/>
        <pt x="129" y="268" on="0"/>
        <pt x="130" y="261" on="0"/>
        <pt x="131" y="257" on="1"/>
        <pt x="135" y="235" on="0"/>
        <pt x="158" y="203" on="0"/>
        <pt x="188" y="181" on="0"/>
        <pt x="221" y="170" on="0"/>
        <pt x="236" y="170" on="1"/>
        <pt x="251" y="170" on="0"/>
        <pt x="262" y="176" on="1"/>
        <pt x="272" y="182" on="0"/>
        <pt x="287" y="193" on="1"/>
        <pt x="299" y="202" on="0"/>
        <pt x="336" y="233" on="0"/>
        <pt x="359" y="256" on="1"/>
        <pt x="419" y="209" on="1"/>
        <pt x="408" y="194" on="0"/>
        <pt x="360" y="156" on="0"/>
        <pt x="303" y="120" on="0"/>
        <pt x="245" y="94" on="0"/>
        <pt x="224" y="92" on="1"/>
        <pt x="220" y="92" on="1"/>
        <pt x="198" y="92" on="0"/>
        <pt x="138" y="129" on="0"/>
        <pt x="83" y="178" on="0"/>
        <pt x="43" y="229" on="0"/>
        <pt x="41" y="243" on="1"/>
        <pt x="40" y="244" on="0"/>
        <pt x="40" y="247" on="1"/>
        <pt x="40" y="255" on="0"/>
        <pt x="45" y="280" on="1"/>
        <pt x="25" y="280" on="1"/>
        <pt x="15" y="280" on="0"/>
        <pt x="-9" y="280" on="0"/>
        <pt x="-20" y="281" on="1"/>
        <pt x="-2" y="344" on="1"/>
        <pt x="12" y="340" on="0"/>
        <pt x="49" y="339" on="0"/>
        <pt x="57" y="339" on="1"/>
        <pt x="61" y="339" on="1"/>
        <pt x="71" y="370" on="0"/>
        <pt x="85" y="408" on="1"/>
        <pt x="53" y="403" on="0"/>
        <pt x="-2" y="392" on="0"/>
        <pt x="-19" y="388" on="1"/>
        <pt x="-3" y="458" on="1"/>
        <pt x="6" y="455" on="0"/>
        <pt x="26" y="455" on="1"/>
        <pt x="42" y="455" on="0"/>
        <pt x="82" y="457" on="0"/>
        <pt x="104" y="459" on="1"/>
        <pt x="127" y="516" on="0"/>
        <pt x="182" y="611" on="0"/>
        <pt x="208" y="631" on="1"/>
        <pt x="228" y="645" on="0"/>
        <pt x="290" y="658" on="0"/>
        <pt x="322" y="658" on="1"/>
        <pt x="362" y="658" on="0"/>
        <pt x="432" y="642" on="0"/>
        <pt x="446" y="631" on="1"/>
        <pt x="455" y="622" on="0"/>
        <pt x="463" y="610" on="1"/>
        <pt x="470" y="599" on="0"/>
        <pt x="481" y="569" on="0"/>
        <pt x="481" y="550" on="1"/>
        <pt x="481" y="546" on="1"/>
        <pt x="401" y="547" on="1"/>
        <pt x="393" y="567" on="0"/>
        <pt x="353" y="583" on="0"/>
        <pt x="330" y="583" on="1"/>
        <pt x="311" y="583" on="0"/>
        <pt x="274" y="575" on="0"/>
      </contour>
    </TTGlyph>
    <TTGlyph name="F" xMin="-10" yMin="-23" xMax="618" yMax="782">
      <contour>
        <pt x="457" y="671" on="1"/>
        <pt x="427" y="623" on="0"/>
        <pt x="388" y="514" on="0"/>
        <pt x="370" y="446" on="1"/>
        <pt x="393" y="444" on="0"/>
        <pt x="434" y="429" on="0"/>
        <pt x="445" y="417" on="1"/>
        <pt x="401" y="361" on="1"/>
        <pt x="385" y="376" on="0"/>
        <pt x="355" y="376" on="1"/>
        <pt x="351" y="376" on="1"/>
        <pt x="342" y="337" on="0"/>
        <pt x="319" y="250" on="0"/>
        <pt x="294" y="169" on="0"/>
        <pt x="267" y="100" on="0"/>
        <pt x="252" y="79" on="1"/>
        <pt x="237" y="59" on="0"/>
        <pt x="222" y="40" on="1"/>
        <pt x="208" y="23" on="0"/>
        <pt x="177" y="-12" on="0"/>
        <pt x="160" y="-23" on="1"/>
        <pt x="105" y="35" on="1"/>
        <pt x="130" y="54" on="0"/>
        <pt x="174" y="102" on="0"/>
        <pt x="209" y="154" on="0"/>
        <pt x="234" y="207" on="0"/>
        <pt x="240" y="231" on="1"/>
        <pt x="243" y="244" on="0"/>
        <pt x="253" y="309" on="0"/>
        <pt x="261" y="350" on="1"/>
        <pt x="256" y="348" on="0"/>
        <pt x="249" y="342" on="0"/>
        <pt x="245" y="340" on="1"/>
        <pt x="228" y="330" on="0"/>
        <pt x="203" y="330" on="1"/>
        <pt x="177" y="330" on="0"/>
        <pt x="120" y="348" on="0"/>
        <pt x="99" y="359" on="1"/>
        <pt x="129" y="418" on="1"/>
        <pt x="140" y="413" on="0"/>
        <pt x="176" y="404" on="0"/>
        <pt x="197" y="404" on="1"/>
        <pt x="216" y="404" on="0"/>
        <pt x="258" y="415" on="0"/>
        <pt x="278" y="426" on="1"/>
        <pt x="280" y="433" on="0"/>
        <pt x="283" y="445" on="0"/>
        <pt x="285" y="452" on="1"/>
        <pt x="295" y="485" on="0"/>
        <pt x="316" y="551" on="0"/>
        <pt x="339" y="611" on="0"/>
        <pt x="361" y="663" on="0"/>
        <pt x="372" y="681" on="1"/>
        <pt x="345" y="690" on="0"/>
        <pt x="270" y="707" on="0"/>
        <pt x="238" y="707" on="1"/>
        <pt x="218" y="707" on="0"/>
        <pt x="205" y="701" on="1"/>
        <pt x="191" y="696" on="0"/>
        <pt x="168" y="681" on="1"/>
        <pt x="148" y="668" on="0"/>
        <pt x="84" y="621" on="0"/>
        <pt x="38" y="582" on="1"/>
        <pt x="-10" y="667" on="1"/>
        <pt x="11" y="683" on="0"/>
        <pt x="77" y="723" on="0"/>
        <pt x="152" y="758" on="0"/>
        <pt x="228" y="782" on="0"/>
        <pt x="259" y="782" on="1"/>
        <pt x="263" y="782" on="0"/>
        <pt x="271" y="782" on="0"/>
        <pt x="275" y="781" on="1"/>
        <pt x="289" y="779" on="0"/>
        <pt x="324" y="767" on="0"/>
        <pt x="364" y="754" on="0"/>
        <pt x="407" y="742" on="0"/>
        <pt x="429" y="740" on="1"/>
        <pt x="436" y="739" on="0"/>
        <pt x="448" y="739" on="0"/>
        <pt x="456" y="739" on="1"/>
        <pt x="499" y="739" on="0"/>
        <pt x="574" y="758" on="0"/>
        <pt x="592" y="765" on="1"/>
        <pt x="618" y="702" on="1"/>
        <pt x="606" y="699" on="0"/>
        <pt x="569" y="690" on="0"/>
        <pt x="525" y="681" on="0"/>
        <pt x="478" y="673" on="0"/>
      </contour>
    </TTGlyph>
    <TTGlyph name="G" xMin="-10" yMin="-31" xMax="658" yMax="766">
      <contour>
        <pt x="551" y="286" on="1"/>
        <pt x="555" y="309" on="0"/>
        <pt x="568" y="390" on="0"/>
        <pt x="581" y="483" on="0"/>
        <pt x="593" y="575" on="0"/>
        <pt x="597" y="608" on="1"/>
        <pt x="589" y="599" on="0"/>
        <pt x="556" y="561" on="0"/>
        <pt x="512" y="513" on="0"/>
        <pt x="462" y="462" on="0"/>
        <pt x="416" y="420" on="0"/>
        <pt x="377" y="393" on="0"/>
        <pt x="366" y="393" on="1"/>
        <pt x="365" y="393" on="0"/>
        <pt x="364" y="394" on="1"/>
        <pt x="352" y="396" on="0"/>
        <pt x="309" y="413" on="0"/>
        <pt x="285" y="424" on="1"/>
        <pt x="276" y="404" on="0"/>
        <pt x="258" y="369" on="0"/>
        <pt x="248" y="355" on="1"/>
        <pt x="233" y="335" on="0"/>
        <pt x="203" y="280" on="0"/>
        <pt x="186" y="248" on="1"/>
        <pt x="219" y="229" on="0"/>
        <pt x="291" y="201" on="0"/>
        <pt x="326" y="201" on="1"/>
        <pt x="360" y="201" on="0"/>
        <pt x="388" y="215" on="1"/>
        <pt x="379" y="131" on="1"/>
        <pt x="374" y="131" on="0"/>
        <pt x="363" y="130" on="0"/>
        <pt x="357" y="130" on="1"/>
        <pt x="334" y="130" on="0"/>
        <pt x="280" y="138" on="0"/>
        <pt x="225" y="151" on="0"/>
        <pt x="176" y="168" on="0"/>
        <pt x="160" y="177" on="1"/>
        <pt x="178" y="163" on="0"/>
        <pt x="238" y="119" on="0"/>
        <pt x="302" y="77" on="0"/>
        <pt x="363" y="47" on="0"/>
        <pt x="382" y="47" on="1"/>
        <pt x="385" y="47" on="0"/>
        <pt x="387" y="48" on="1"/>
        <pt x="409" y="51" on="0"/>
        <pt x="461" y="102" on="0"/>
        <pt x="509" y="174" on="0"/>
        <pt x="545" y="254" on="0"/>
      </contour>
      <contour>
        <pt x="245" y="679" on="1"/>
        <pt x="244" y="680" on="0"/>
        <pt x="241" y="680" on="1"/>
        <pt x="221" y="680" on="0"/>
        <pt x="205" y="634" on="0"/>
        <pt x="205" y="606" on="1"/>
        <pt x="205" y="580" on="0"/>
        <pt x="216" y="535" on="0"/>
        <pt x="226" y="529" on="1"/>
        <pt x="229" y="532" on="0"/>
        <pt x="242" y="557" on="0"/>
        <pt x="255" y="592" on="0"/>
        <pt x="266" y="631" on="0"/>
        <pt x="266" y="647" on="1"/>
        <pt x="266" y="661" on="0"/>
        <pt x="257" y="677" on="0"/>
      </contour>
      <contour>
        <pt x="656" y="686" on="1"/>
        <pt x="657" y="669" on="0"/>
        <pt x="658" y="635" on="0"/>
        <pt x="658" y="616" on="1"/>
        <pt x="658" y="559" on="0"/>
        <pt x="650" y="435" on="0"/>
        <pt x="636" y="324" on="0"/>
        <pt x="616" y="237" on="0"/>
        <pt x="605" y="215" on="1"/>
        <pt x="590" y="185" on="0"/>
        <pt x="546" y="100" on="0"/>
        <pt x="495" y="23" on="0"/>
        <pt x="438" y="-31" on="0"/>
        <pt x="410" y="-31" on="1"/>
        <pt x="404" y="-31" on="1"/>
        <pt x="378" y="-28" on="0"/>
        <pt x="305" y="-7" on="0"/>
        <pt x="227" y="31" on="0"/>
        <pt x="153" y="85" on="0"/>
        <pt x="128" y="120" on="1"/>
        <pt x="119" y="99" on="0"/>
        <pt x="110" y="78" on="1"/>
        <pt x="102" y="59" on="0"/>
        <pt x="85" y="15" on="0"/>
        <pt x="77" y="-6" on="1"/>
        <pt x="-10" y="12" on="1"/>
        <pt x="8" y="40" on="0"/>
        <pt x="57" y="131" on="0"/>
        <pt x="83" y="186" on="1"/>
        <pt x="78" y="194" on="0"/>
        <pt x="68" y="209" on="0"/>
        <pt x="63" y="216" on="1"/>
        <pt x="60" y="223" on="0"/>
        <pt x="60" y="232" on="1"/>
        <pt x="60" y="243" on="0"/>
        <pt x="61" y="247" on="1"/>
        <pt x="62" y="251" on="0"/>
        <pt x="63" y="254" on="1"/>
        <pt x="66" y="260" on="0"/>
        <pt x="70" y="264" on="1"/>
        <pt x="74" y="268" on="0"/>
        <pt x="85" y="275" on="0"/>
        <pt x="93" y="275" on="1"/>
        <pt x="94" y="275" on="1"/>
        <pt x="106" y="272" on="0"/>
        <pt x="121" y="267" on="1"/>
        <pt x="144" y="318" on="0"/>
        <pt x="188" y="419" on="0"/>
        <pt x="207" y="466" on="1"/>
        <pt x="181" y="481" on="0"/>
        <pt x="146" y="515" on="0"/>
        <pt x="144" y="530" on="1"/>
        <pt x="143" y="537" on="0"/>
        <pt x="142" y="554" on="0"/>
        <pt x="142" y="563" on="1"/>
        <pt x="142" y="587" on="0"/>
        <pt x="149" y="644" on="0"/>
        <pt x="164" y="697" on="0"/>
        <pt x="189" y="740" on="0"/>
        <pt x="207" y="749" on="1"/>
        <pt x="224" y="757" on="0"/>
        <pt x="263" y="766" on="0"/>
        <pt x="282" y="766" on="1"/>
        <pt x="310" y="766" on="0"/>
        <pt x="350" y="745" on="0"/>
        <pt x="350" y="722" on="1"/>
        <pt x="350" y="710" on="0"/>
        <pt x="345" y="661" on="0"/>
        <pt x="334" y="598" on="0"/>
        <pt x="318" y="525" on="0"/>
        <pt x="307" y="489" on="1"/>
        <pt x="313" y="488" on="0"/>
        <pt x="327" y="487" on="0"/>
        <pt x="335" y="487" on="1"/>
        <pt x="338" y="487" on="1"/>
        <pt x="368" y="487" on="0"/>
        <pt x="436" y="534" on="0"/>
        <pt x="504" y="601" on="0"/>
        <pt x="565" y="675" on="0"/>
        <pt x="588" y="701" on="1"/>
        <pt x="596" y="708" on="0"/>
        <pt x="613" y="711" on="0"/>
        <pt x="620" y="711" on="1"/>
        <pt x="621" y="711" on="0"/>
        <pt x="623" y="710" on="0"/>
        <pt x="624" y="710" on="1"/>
        <pt x="626" y="710" on="1"/>
        <pt x="632" y="709" on="0"/>
        <pt x="638" y="706" on="1"/>
        <pt x="651" y="701" on="0"/>
      </contour>
    </TTGlyph>
    <TTGlyph name="H" xMin="10" yMin="-38" xMax="695" yMax="761">
      <contour>
        <pt x="532" y="240" on="1"/>
        <pt x="532" y="216" on="0"/>
        <pt x="544" y="145" on="0"/>
        <pt x="562" y="74" on="0"/>
        <pt x="586" y="15" on="0"/>
        <pt x="598" y="4" on="1"/>
        <pt x="526" y="-38" on="1"/>
        <pt x="514" y="-26" on="0"/>
        <pt x="486" y="44" on="0"/>
        <pt x="461" y="132" on="0"/>
        <pt x="444" y="224" on="0"/>
        <pt x="444" y="257" on="1"/>
        <pt x="444" y="265" on="0"/>
        <pt x="445" y="278" on="0"/>
        <pt x="446" y="285" on="1"/>
        <pt x="447" y="288" on="0"/>
        <pt x="449" y="297" on="0"/>
        <pt x="451" y="303" on="1"/>
        <pt x="418" y="314" on="0"/>
        <pt x="352" y="330" on="0"/>
        <pt x="326" y="330" on="1"/>
        <pt x="318" y="330" on="0"/>
        <pt x="306" y="329" on="0"/>
        <pt x="301" y="328" on="1"/>
        <pt x="292" y="326" on="0"/>
        <pt x="268" y="316" on="0"/>
        <pt x="256" y="311" on="1"/>
        <pt x="244" y="267" on="0"/>
        <pt x="217" y="192" on="0"/>
        <pt x="203" y="166" on="1"/>
        <pt x="183" y="133" on="0"/>
        <pt x="160" y="100" on="1"/>
        <pt x="140" y="71" on="0"/>
        <pt x="87" y="6" on="0"/>
        <pt x="55" y="-20" on="1"/>
        <pt x="10" y="23" on="1"/>
        <pt x="20" y="36" on="0"/>
        <pt x="52" y="83" on="0"/>
        <pt x="89" y="145" on="0"/>
        <pt x="128" y="218" on="0"/>
        <pt x="146" y="257" on="1"/>
        <pt x="144" y="255" on="1"/>
        <pt x="142" y="253" on="0"/>
        <pt x="139" y="253" on="1"/>
        <pt x="90" y="322" on="1"/>
        <pt x="104" y="335" on="0"/>
        <pt x="162" y="364" on="0"/>
        <pt x="195" y="377" on="1"/>
        <pt x="196" y="380" on="0"/>
        <pt x="198" y="386" on="0"/>
        <pt x="199" y="389" on="1"/>
        <pt x="217" y="452" on="0"/>
        <pt x="238" y="564" on="0"/>
        <pt x="238" y="605" on="1"/>
        <pt x="238" y="635" on="0"/>
        <pt x="225" y="673" on="0"/>
        <pt x="214" y="678" on="1"/>
        <pt x="212" y="678" on="1"/>
        <pt x="211" y="678" on="0"/>
        <pt x="208" y="679" on="0"/>
        <pt x="206" y="679" on="1"/>
        <pt x="201" y="679" on="0"/>
        <pt x="185" y="674" on="0"/>
        <pt x="162" y="659" on="0"/>
        <pt x="135" y="631" on="0"/>
        <pt x="119" y="607" on="1"/>
        <pt x="79" y="659" on="1"/>
        <pt x="92" y="679" on="0"/>
        <pt x="127" y="714" on="0"/>
        <pt x="166" y="740" on="0"/>
        <pt x="205" y="757" on="0"/>
        <pt x="222" y="759" on="1"/>
        <pt x="224" y="760" on="0"/>
        <pt x="228" y="760" on="1"/>
        <pt x="244" y="760" on="0"/>
        <pt x="275" y="739" on="0"/>
        <pt x="299" y="706" on="0"/>
        <pt x="313" y="665" on="0"/>
        <pt x="314" y="644" on="1"/>
        <pt x="314" y="639" on="1"/>
        <pt x="314" y="625" on="0"/>
        <pt x="309" y="576" on="0"/>
        <pt x="300" y="513" on="0"/>
        <pt x="286" y="439" on="0"/>
        <pt x="278" y="400" on="1"/>
        <pt x="285" y="402" on="0"/>
        <pt x="298" y="404" on="0"/>
        <pt x="303" y="404" on="1"/>
        <pt x="306" y="406" on="0"/>
        <pt x="312" y="406" on="1"/>
        <pt x="326" y="406" on="0"/>
        <pt x="365" y="399" on="0"/>
        <pt x="407" y="388" on="0"/>
        <pt x="450" y="375" on="0"/>
        <pt x="469" y="369" on="1"/>
        <pt x="479" y="402" on="0"/>
        <pt x="505" y="483" on="0"/>
        <pt x="534" y="566" on="0"/>
        <pt x="563" y="645" on="0"/>
        <pt x="591" y="710" on="0"/>
        <pt x="614" y="754" on="0"/>
        <pt x="622" y="761" on="1"/>
        <pt x="695" y="722" on="1"/>
        <pt x="687" y="709" on="0"/>
        <pt x="657" y="637" on="0"/>
        <pt x="621" y="541" on="0"/>
        <pt x="584" y="432" on="0"/>
        <pt x="553" y="335" on="0"/>
        <pt x="533" y="260" on="0"/>
        <pt x="532" y="246" on="1"/>
      </contour>
    </TTGlyph>
    <TTGlyph name="I" xMin="-41" yMin="-30" xMax="465" yMax="762">
      <contour>
        <pt x="318" y="566" on="1"/>
        <pt x="328" y="573" on="0"/>
        <pt x="360" y="606" on="0"/>
        <pt x="375" y="625" on="1"/>
        <pt x="386" y="639" on="0"/>
        <pt x="402" y="666" on="0"/>
        <pt x="402" y="675" on="1"/>
        <pt x="402" y="683" on="0"/>
        <pt x="395" y="686" on="1"/>
        <pt x="393" y="688" on="0"/>
        <pt x="388" y="688" on="1"/>
        <pt x="376" y="688" on="0"/>
        <pt x="354" y="661" on="0"/>
        <pt x="335" y="622" on="0"/>
        <pt x="321" y="580" on="0"/>
      </contour>
      <contour>
        <pt x="196" y="392" on="1"/>
        <pt x="195" y="391" on="1"/>
        <pt x="162" y="456" on="1"/>
        <pt x="178" y="464" on="0"/>
        <pt x="208" y="481" on="0"/>
        <pt x="212" y="483" on="1"/>
        <pt x="220" y="530" on="0"/>
        <pt x="234" y="597" on="0"/>
        <pt x="239" y="608" on="1"/>
        <pt x="247" y="626" on="0"/>
        <pt x="279" y="679" on="0"/>
        <pt x="321" y="728" on="0"/>
        <pt x="368" y="762" on="0"/>
        <pt x="392" y="762" on="1"/>
        <pt x="395" y="762" on="1"/>
        <pt x="433" y="760" on="0"/>
        <pt x="465" y="703" on="0"/>
        <pt x="465" y="668" on="1"/>
        <pt x="465" y="658" on="0"/>
        <pt x="463" y="639" on="0"/>
        <pt x="461" y="630" on="1"/>
        <pt x="458" y="614" on="0"/>
        <pt x="427" y="573" on="0"/>
        <pt x="382" y="527" on="0"/>
        <pt x="325" y="480" on="0"/>
        <pt x="297" y="459" on="1"/>
        <pt x="285" y="406" on="0"/>
        <pt x="259" y="287" on="0"/>
        <pt x="248" y="232" on="1"/>
        <pt x="235" y="177" on="0"/>
        <pt x="213" y="90" on="0"/>
        <pt x="202" y="71" on="1"/>
        <pt x="190" y="51" on="0"/>
        <pt x="156" y="14" on="0"/>
        <pt x="116" y="-14" on="0"/>
        <pt x="72" y="-30" on="0"/>
        <pt x="51" y="-30" on="1"/>
        <pt x="35" y="-30" on="0"/>
        <pt x="19" y="-24" on="1"/>
        <pt x="1" y="-17" on="0"/>
        <pt x="-22" y="19" on="0"/>
        <pt x="-36" y="67" on="0"/>
        <pt x="-41" y="125" on="0"/>
        <pt x="-41" y="154" on="1"/>
        <pt x="-41" y="164" on="1"/>
        <pt x="-1" y="229" on="1"/>
        <pt x="11" y="225" on="0"/>
        <pt x="37" y="222" on="0"/>
        <pt x="50" y="222" on="1"/>
        <pt x="86" y="222" on="0"/>
        <pt x="116" y="233" on="1"/>
        <pt x="120" y="154" on="1"/>
        <pt x="104" y="146" on="0"/>
        <pt x="79" y="140" on="0"/>
        <pt x="69" y="140" on="1"/>
        <pt x="52" y="140" on="0"/>
        <pt x="32" y="149" on="0"/>
        <pt x="27" y="154" on="1"/>
        <pt x="27" y="143" on="1"/>
        <pt x="27" y="107" on="0"/>
        <pt x="51" y="51" on="0"/>
        <pt x="74" y="51" on="1"/>
        <pt x="90" y="51" on="0"/>
        <pt x="105" y="65" on="1"/>
        <pt x="117" y="74" on="0"/>
        <pt x="142" y="139" on="0"/>
        <pt x="165" y="230" on="0"/>
        <pt x="186" y="339" on="0"/>
      </contour>
    </TTGlyph>
    <TTGlyph name="Iacute" xMin="-41" yMin="-30" xMax="563" yMax="960">
      <component glyphName="I" x="0" y="0" flags="0x4"/>
      <component glyphName="acute" x="333" y="197" flags="0x4"/>
    </TTGlyph>
    <TTGlyph name="Icircumflex" xMin="-41" yMin="-30" xMax="555" yMax="953">
      <component glyphName="I" x="0" y="0" flags="0x4"/>
      <component glyphName="circumflex" x="240" y="165" flags="0x4"/>
    </TTGlyph>
    <TTGlyph name="Idieresis" xMin="-41" yMin="-30" xMax="569" yMax="925">
      <component glyphName="I" x="0" y="0" flags="0x4"/>
      <component glyphName="dieresis" x="213" y="171" flags="0x4"/>
    </TTGlyph>
    <TTGlyph name="Igrave" xMin="-41" yMin="-30" xMax="465" yMax="987">
      <component glyphName="I" x="0" y="0" flags="0x4"/>
      <component glyphName="grave" x="162" y="214" flags="0x4"/>
    </TTGlyph>
    <TTGlyph name="J" xMin="5" yMin="-328" xMax="514" yMax="764">
      <contour>
        <pt x="135" y="-79" on="1"/>
        <pt x="121" y="-99" on="0"/>
        <pt x="97" y="-151" on="0"/>
        <pt x="91" y="-174" on="1"/>
        <pt x="86" y="-196" on="0"/>
        <pt x="86" y="-209" on="1"/>
        <pt x="86" y="-224" on="0"/>
        <pt x="94" y="-224" on="1"/>
        <pt x="100" y="-224" on="0"/>
        <pt x="132" y="-176" on="0"/>
        <pt x="176" y="-96" on="0"/>
        <pt x="228" y="5" on="0"/>
        <pt x="252" y="58" on="1"/>
        <pt x="222" y="29" on="0"/>
        <pt x="162" y="-39" on="0"/>
      </contour>
      <contour>
        <pt x="189" y="519" on="1"/>
        <pt x="178" y="494" on="0"/>
        <pt x="168" y="419" on="0"/>
        <pt x="168" y="379" on="1"/>
        <pt x="168" y="352" on="0"/>
        <pt x="172" y="299" on="0"/>
        <pt x="181" y="255" on="0"/>
        <pt x="195" y="223" on="0"/>
        <pt x="204" y="217" on="1"/>
        <pt x="212" y="210" on="0"/>
        <pt x="241" y="205" on="0"/>
        <pt x="258" y="205" on="1"/>
        <pt x="272" y="205" on="0"/>
        <pt x="301" y="208" on="0"/>
        <pt x="315" y="210" on="1"/>
        <pt x="324" y="232" on="0"/>
        <pt x="329" y="249" on="1"/>
        <pt x="336" y="274" on="0"/>
        <pt x="356" y="340" on="0"/>
        <pt x="375" y="413" on="0"/>
        <pt x="394" y="488" on="0"/>
        <pt x="402" y="524" on="1"/>
        <pt x="410" y="562" on="0"/>
        <pt x="420" y="628" on="0"/>
        <pt x="420" y="651" on="1"/>
        <pt x="420" y="699" on="0"/>
        <pt x="399" y="702" on="1"/>
        <pt x="397" y="702" on="0"/>
        <pt x="394" y="703" on="0"/>
        <pt x="392" y="703" on="1"/>
        <pt x="368" y="703" on="0"/>
        <pt x="308" y="667" on="0"/>
        <pt x="250" y="612" on="0"/>
        <pt x="201" y="547" on="0"/>
      </contour>
      <contour>
        <pt x="383" y="159" on="1"/>
        <pt x="373" y="128" on="0"/>
        <pt x="353" y="74" on="0"/>
        <pt x="344" y="54" on="1"/>
        <pt x="328" y="20" on="0"/>
        <pt x="286" y="-63" on="0"/>
        <pt x="236" y="-148" on="0"/>
        <pt x="183" y="-228" on="0"/>
        <pt x="132" y="-290" on="0"/>
        <pt x="85" y="-328" on="0"/>
        <pt x="67" y="-328" on="1"/>
        <pt x="59" y="-328" on="0"/>
        <pt x="52" y="-324" on="1"/>
        <pt x="29" y="-310" on="0"/>
        <pt x="5" y="-241" on="0"/>
        <pt x="5" y="-198" on="1"/>
        <pt x="5" y="-148" on="0"/>
        <pt x="37" y="-45" on="0"/>
        <pt x="69" y="-7" on="1"/>
        <pt x="81" y="8" on="0"/>
        <pt x="120" y="43" on="0"/>
        <pt x="169" y="82" on="0"/>
        <pt x="225" y="123" on="0"/>
        <pt x="255" y="144" on="1"/>
        <pt x="227" y="150" on="0"/>
        <pt x="170" y="174" on="0"/>
        <pt x="121" y="207" on="0"/>
        <pt x="85" y="246" on="0"/>
        <pt x="79" y="266" on="1"/>
        <pt x="76" y="275" on="0"/>
        <pt x="74" y="297" on="0"/>
        <pt x="74" y="310" on="1"/>
        <pt x="74" y="341" on="0"/>
        <pt x="87" y="423" on="0"/>
        <pt x="112" y="510" on="0"/>
        <pt x="147" y="597" on="0"/>
        <pt x="190" y="671" on="0"/>
        <pt x="239" y="726" on="0"/>
        <pt x="266" y="738" on="1"/>
        <pt x="327" y="764" on="0"/>
        <pt x="377" y="764" on="1"/>
        <pt x="424" y="764" on="0"/>
        <pt x="483" y="725" on="0"/>
        <pt x="494" y="697" on="1"/>
        <pt x="497" y="691" on="0"/>
        <pt x="497" y="675" on="1"/>
        <pt x="497" y="648" on="0"/>
        <pt x="483" y="553" on="0"/>
        <pt x="459" y="436" on="0"/>
        <pt x="428" y="308" on="0"/>
        <pt x="411" y="248" on="1"/>
        <pt x="422" y="255" on="0"/>
        <pt x="452" y="277" on="0"/>
        <pt x="476" y="292" on="1"/>
        <pt x="514" y="226" on="1"/>
        <pt x="500" y="220" on="0"/>
        <pt x="472" y="209" on="0"/>
        <pt x="441" y="194" on="0"/>
        <pt x="405" y="173" on="0"/>
      </contour>
    </TTGlyph>
    <TTGlyph name="K" xMin="-5" yMin="-50" xMax="707" yMax="771">
      <contour>
        <pt x="255" y="327" on="1"/>
        <pt x="261" y="319" on="0"/>
        <pt x="271" y="319" on="1"/>
        <pt x="283" y="319" on="0"/>
        <pt x="312" y="336" on="0"/>
        <pt x="330" y="350" on="1"/>
        <pt x="322" y="352" on="0"/>
        <pt x="313" y="352" on="1"/>
        <pt x="304" y="352" on="0"/>
        <pt x="283" y="349" on="0"/>
        <pt x="265" y="343" on="0"/>
        <pt x="253" y="336" on="0"/>
        <pt x="253" y="332" on="1"/>
        <pt x="253" y="329" on="0"/>
      </contour>
      <contour>
        <pt x="463" y="17" on="1"/>
        <pt x="466" y="15" on="0"/>
        <pt x="472" y="13" on="1"/>
        <pt x="482" y="10" on="0"/>
        <pt x="506" y="10" on="1"/>
        <pt x="525" y="10" on="0"/>
        <pt x="587" y="19" on="0"/>
        <pt x="634" y="32" on="1"/>
        <pt x="648" y="-28" on="1"/>
        <pt x="622" y="-41" on="0"/>
        <pt x="575" y="-50" on="0"/>
        <pt x="552" y="-50" on="1"/>
        <pt x="527" y="-50" on="0"/>
        <pt x="485" y="-43" on="0"/>
        <pt x="470" y="-40" on="1"/>
        <pt x="455" y="-37" on="0"/>
        <pt x="415" y="-17" on="0"/>
        <pt x="379" y="10" on="0"/>
        <pt x="354" y="41" on="0"/>
        <pt x="354" y="54" on="1"/>
        <pt x="354" y="56" on="1"/>
        <pt x="355" y="68" on="0"/>
        <pt x="364" y="133" on="0"/>
        <pt x="375" y="212" on="0"/>
        <pt x="383" y="288" on="0"/>
        <pt x="383" y="311" on="1"/>
        <pt x="383" y="323" on="1"/>
        <pt x="367" y="311" on="0"/>
        <pt x="331" y="288" on="0"/>
        <pt x="295" y="270" on="0"/>
        <pt x="262" y="259" on="0"/>
        <pt x="249" y="259" on="1"/>
        <pt x="241" y="259" on="0"/>
        <pt x="234" y="262" on="1"/>
        <pt x="219" y="268" on="0"/>
        <pt x="204" y="286" on="1"/>
        <pt x="195" y="263" on="0"/>
        <pt x="171" y="203" on="0"/>
        <pt x="146" y="141" on="0"/>
        <pt x="120" y="81" on="0"/>
        <pt x="98" y="32" on="0"/>
        <pt x="81" y="0" on="0"/>
        <pt x="77" y="-2" on="1"/>
        <pt x="-5" y="16" on="1"/>
        <pt x="40" y="105" on="0"/>
        <pt x="98" y="234" on="0"/>
        <pt x="115" y="277" on="1"/>
        <pt x="135" y="327" on="0"/>
        <pt x="146" y="361" on="1"/>
        <pt x="156" y="396" on="0"/>
        <pt x="180" y="482" on="0"/>
        <pt x="200" y="565" on="0"/>
        <pt x="213" y="636" on="0"/>
        <pt x="213" y="657" on="1"/>
        <pt x="213" y="673" on="0"/>
        <pt x="208" y="678" on="1"/>
        <pt x="207" y="678" on="1"/>
        <pt x="206" y="678" on="0"/>
        <pt x="205" y="679" on="0"/>
        <pt x="204" y="679" on="1"/>
        <pt x="201" y="679" on="0"/>
        <pt x="185" y="673" on="0"/>
        <pt x="157" y="653" on="0"/>
        <pt x="115" y="615" on="0"/>
        <pt x="85" y="582" on="1"/>
        <pt x="33" y="636" on="1"/>
        <pt x="50" y="653" on="0"/>
        <pt x="92" y="697" on="0"/>
        <pt x="138" y="736" on="0"/>
        <pt x="184" y="764" on="0"/>
        <pt x="205" y="765" on="1"/>
        <pt x="207" y="765" on="1"/>
        <pt x="226" y="765" on="0"/>
        <pt x="259" y="745" on="0"/>
        <pt x="283" y="715" on="0"/>
        <pt x="297" y="679" on="0"/>
        <pt x="297" y="664" on="1"/>
        <pt x="297" y="656" on="0"/>
        <pt x="296" y="653" on="1"/>
        <pt x="295" y="647" on="0"/>
        <pt x="284" y="593" on="0"/>
        <pt x="267" y="518" on="0"/>
        <pt x="248" y="432" on="0"/>
        <pt x="239" y="396" on="1"/>
        <pt x="258" y="405" on="0"/>
        <pt x="297" y="417" on="0"/>
        <pt x="314" y="419" on="1"/>
        <pt x="322" y="419" on="1"/>
        <pt x="349" y="419" on="0"/>
        <pt x="381" y="404" on="1"/>
        <pt x="403" y="425" on="0"/>
        <pt x="451" y="492" on="0"/>
        <pt x="499" y="568" on="0"/>
        <pt x="547" y="647" on="0"/>
        <pt x="589" y="714" on="0"/>
        <pt x="624" y="763" on="0"/>
        <pt x="636" y="771" on="1"/>
        <pt x="707" y="725" on="1"/>
        <pt x="690" y="708" on="0"/>
        <pt x="641" y="640" on="0"/>
        <pt x="585" y="559" on="0"/>
        <pt x="526" y="473" on="0"/>
        <pt x="499" y="437" on="1"/>
        <pt x="484" y="417" on="0"/>
        <pt x="453" y="383" on="0"/>
        <pt x="440" y="372" on="1"/>
        <pt x="457" y="359" on="0"/>
        <pt x="477" y="335" on="0"/>
        <pt x="477" y="324" on="1"/>
        <pt x="477" y="323" on="0"/>
        <pt x="476" y="323" on="0"/>
        <pt x="476" y="322" on="1"/>
        <pt x="474" y="311" on="0"/>
        <pt x="466" y="257" on="0"/>
        <pt x="457" y="187" on="0"/>
        <pt x="450" y="112" on="0"/>
        <pt x="450" y="81" on="1"/>
        <pt x="450" y="56" on="0"/>
        <pt x="455" y="22" on="0"/>
      </contour>
    </TTGlyph>
    <TTGlyph name="L" xMin="-51" yMin="-97" xMax="605" yMax="763">
      <contour>
        <pt x="28" y="84" on="1"/>
        <pt x="33" y="79" on="0"/>
        <pt x="39" y="79" on="1"/>
        <pt x="52" y="79" on="0"/>
        <pt x="90" y="108" on="0"/>
        <pt x="108" y="129" on="1"/>
        <pt x="105" y="129" on="0"/>
        <pt x="100" y="130" on="0"/>
        <pt x="98" y="130" on="1"/>
        <pt x="69" y="130" on="0"/>
        <pt x="26" y="104" on="0"/>
        <pt x="26" y="91" on="1"/>
        <pt x="26" y="86" on="0"/>
      </contour>
      <contour>
        <pt x="334" y="570" on="1"/>
        <pt x="331" y="561" on="1"/>
        <pt x="340" y="566" on="0"/>
        <pt x="364" y="581" on="0"/>
        <pt x="369" y="586" on="1"/>
        <pt x="389" y="606" on="0"/>
        <pt x="422" y="653" on="0"/>
        <pt x="422" y="667" on="1"/>
        <pt x="422" y="672" on="0"/>
        <pt x="418" y="675" on="1"/>
        <pt x="418" y="681" on="0"/>
        <pt x="410" y="683" on="1"/>
        <pt x="408" y="683" on="1"/>
        <pt x="398" y="683" on="0"/>
        <pt x="388" y="671" on="1"/>
        <pt x="374" y="658" on="0"/>
        <pt x="348" y="609" on="0"/>
        <pt x="338" y="583" on="1"/>
        <pt x="334" y="573" on="0"/>
        <pt x="333" y="569" on="1"/>
      </contour>
      <contour>
        <pt x="605" y="-35" on="1"/>
        <pt x="590" y="-43" on="0"/>
        <pt x="534" y="-65" on="0"/>
        <pt x="468" y="-84" on="0"/>
        <pt x="402" y="-97" on="0"/>
        <pt x="378" y="-97" on="1"/>
        <pt x="361" y="-97" on="0"/>
        <pt x="349" y="-92" on="1"/>
        <pt x="334" y="-85" on="0"/>
        <pt x="290" y="-45" on="0"/>
        <pt x="240" y="6" on="0"/>
        <pt x="191" y="63" on="0"/>
        <pt x="172" y="86" on="1"/>
        <pt x="159" y="70" on="0"/>
        <pt x="130" y="30" on="0"/>
        <pt x="98" y="-4" on="0"/>
        <pt x="66" y="-28" on="0"/>
        <pt x="50" y="-28" on="1"/>
        <pt x="43" y="-28" on="0"/>
        <pt x="40" y="-27" on="1"/>
        <pt x="23" y="-22" on="0"/>
        <pt x="-10" y="8" on="0"/>
        <pt x="-35" y="49" on="0"/>
        <pt x="-51" y="94" on="0"/>
        <pt x="-51" y="113" on="1"/>
        <pt x="-51" y="129" on="0"/>
        <pt x="-44" y="140" on="1"/>
        <pt x="-37" y="151" on="0"/>
        <pt x="0" y="172" on="0"/>
        <pt x="49" y="188" on="0"/>
        <pt x="102" y="197" on="0"/>
        <pt x="126" y="197" on="1"/>
        <pt x="130" y="197" on="0"/>
        <pt x="138" y="197" on="0"/>
        <pt x="142" y="196" on="1"/>
        <pt x="142" y="197" on="1"/>
        <pt x="144" y="206" on="0"/>
        <pt x="156" y="250" on="0"/>
        <pt x="174" y="311" on="0"/>
        <pt x="196" y="385" on="0"/>
        <pt x="209" y="425" on="1"/>
        <pt x="201" y="422" on="0"/>
        <pt x="193" y="418" on="1"/>
        <pt x="186" y="415" on="0"/>
        <pt x="169" y="407" on="0"/>
        <pt x="162" y="403" on="1"/>
        <pt x="144" y="484" on="1"/>
        <pt x="161" y="491" on="0"/>
        <pt x="197" y="506" on="0"/>
        <pt x="211" y="512" on="1"/>
        <pt x="228" y="519" on="0"/>
        <pt x="243" y="525" on="1"/>
        <pt x="256" y="564" on="0"/>
        <pt x="283" y="635" on="0"/>
        <pt x="308" y="692" on="0"/>
        <pt x="331" y="733" on="0"/>
        <pt x="341" y="742" on="1"/>
        <pt x="352" y="753" on="0"/>
        <pt x="381" y="763" on="0"/>
        <pt x="395" y="763" on="1"/>
        <pt x="414" y="763" on="0"/>
        <pt x="452" y="749" on="0"/>
        <pt x="482" y="726" on="0"/>
        <pt x="500" y="696" on="0"/>
        <pt x="500" y="680" on="1"/>
        <pt x="500" y="675" on="1"/>
        <pt x="498" y="653" on="0"/>
        <pt x="465" y="595" on="0"/>
        <pt x="419" y="539" on="0"/>
        <pt x="365" y="493" on="0"/>
        <pt x="341" y="483" on="1"/>
        <pt x="333" y="479" on="0"/>
        <pt x="313" y="472" on="0"/>
        <pt x="303" y="467" on="1"/>
        <pt x="296" y="435" on="0"/>
        <pt x="276" y="349" on="0"/>
        <pt x="253" y="259" on="0"/>
        <pt x="229" y="175" on="0"/>
        <pt x="217" y="147" on="1"/>
        <pt x="237" y="124" on="0"/>
        <pt x="284" y="65" on="0"/>
        <pt x="332" y="11" on="0"/>
        <pt x="378" y="-26" on="0"/>
        <pt x="396" y="-26" on="1"/>
        <pt x="401" y="-26" on="1"/>
        <pt x="408" y="-26" on="0"/>
        <pt x="436" y="-22" on="0"/>
        <pt x="477" y="-9" on="0"/>
        <pt x="531" y="16" on="0"/>
        <pt x="564" y="38" on="1"/>
      </contour>
    </TTGlyph>
    <TTGlyph name="Lslash" xMin="10" yMin="-97" xMax="667" yMax="763">
      <contour>
        <pt x="125" y="331" on="1"/>
        <pt x="132" y="332" on="0"/>
        <pt x="159" y="338" on="0"/>
        <pt x="194" y="348" on="0"/>
        <pt x="233" y="361" on="0"/>
        <pt x="252" y="367" on="1"/>
        <pt x="257" y="381" on="0"/>
        <pt x="265" y="411" on="0"/>
        <pt x="270" y="425" on="1"/>
        <pt x="262" y="422" on="0"/>
        <pt x="254" y="418" on="1"/>
        <pt x="247" y="415" on="0"/>
        <pt x="231" y="407" on="0"/>
        <pt x="223" y="403" on="1"/>
        <pt x="206" y="484" on="1"/>
        <pt x="223" y="491" on="0"/>
        <pt x="259" y="506" on="0"/>
        <pt x="273" y="512" on="1"/>
        <pt x="290" y="519" on="0"/>
        <pt x="304" y="525" on="1"/>
        <pt x="317" y="564" on="0"/>
        <pt x="344" y="635" on="0"/>
        <pt x="370" y="692" on="0"/>
        <pt x="393" y="733" on="0"/>
        <pt x="402" y="742" on="1"/>
        <pt x="424" y="763" on="0"/>
        <pt x="458" y="763" on="1"/>
        <pt x="477" y="763" on="0"/>
        <pt x="514" y="749" on="0"/>
        <pt x="543" y="726" on="0"/>
        <pt x="561" y="696" on="0"/>
        <pt x="561" y="680" on="1"/>
        <pt x="561" y="675" on="1"/>
        <pt x="559" y="653" on="0"/>
        <pt x="526" y="595" on="0"/>
        <pt x="480" y="539" on="0"/>
        <pt x="426" y="493" on="0"/>
        <pt x="402" y="483" on="1"/>
        <pt x="394" y="479" on="0"/>
        <pt x="375" y="472" on="0"/>
        <pt x="365" y="467" on="1"/>
        <pt x="361" y="453" on="0"/>
        <pt x="354" y="419" on="0"/>
        <pt x="349" y="400" on="1"/>
        <pt x="384" y="411" on="0"/>
        <pt x="451" y="425" on="0"/>
        <pt x="469" y="425" on="1"/>
        <pt x="480" y="425" on="0"/>
        <pt x="483" y="422" on="1"/>
        <pt x="462" y="352" on="1"/>
        <pt x="452" y="352" on="1"/>
        <pt x="415" y="352" on="0"/>
        <pt x="353" y="338" on="0"/>
        <pt x="333" y="331" on="1"/>
        <pt x="319" y="279" on="0"/>
        <pt x="292" y="180" on="0"/>
        <pt x="279" y="147" on="1"/>
        <pt x="299" y="124" on="0"/>
        <pt x="346" y="65" on="0"/>
        <pt x="394" y="11" on="0"/>
        <pt x="440" y="-26" on="0"/>
        <pt x="458" y="-26" on="1"/>
        <pt x="463" y="-26" on="1"/>
        <pt x="469" y="-26" on="0"/>
        <pt x="497" y="-22" on="0"/>
        <pt x="539" y="-9" on="0"/>
        <pt x="593" y="16" on="0"/>
        <pt x="626" y="38" on="1"/>
        <pt x="667" y="-35" on="1"/>
        <pt x="652" y="-43" on="0"/>
        <pt x="596" y="-65" on="0"/>
        <pt x="530" y="-84" on="0"/>
        <pt x="463" y="-97" on="0"/>
        <pt x="439" y="-97" on="1"/>
        <pt x="423" y="-97" on="0"/>
        <pt x="411" y="-92" on="1"/>
        <pt x="396" y="-85" on="0"/>
        <pt x="352" y="-45" on="0"/>
        <pt x="302" y="6" on="0"/>
        <pt x="253" y="63" on="0"/>
        <pt x="234" y="86" on="1"/>
        <pt x="221" y="70" on="0"/>
        <pt x="192" y="30" on="0"/>
        <pt x="160" y="-4" on="0"/>
        <pt x="128" y="-28" on="0"/>
        <pt x="112" y="-28" on="1"/>
        <pt x="110" y="-28" on="0"/>
        <pt x="103" y="-28" on="0"/>
        <pt x="101" y="-27" on="1"/>
        <pt x="84" y="-22" on="0"/>
        <pt x="51" y="8" on="0"/>
        <pt x="26" y="49" on="0"/>
        <pt x="10" y="94" on="0"/>
        <pt x="10" y="113" on="1"/>
        <pt x="10" y="129" on="0"/>
        <pt x="17" y="140" on="1"/>
        <pt x="24" y="151" on="0"/>
        <pt x="62" y="172" on="0"/>
        <pt x="110" y="188" on="0"/>
        <pt x="164" y="197" on="0"/>
        <pt x="187" y="197" on="1"/>
        <pt x="192" y="197" on="0"/>
        <pt x="200" y="197" on="0"/>
        <pt x="204" y="196" on="1"/>
        <pt x="204" y="197" on="1"/>
        <pt x="206" y="206" on="0"/>
        <pt x="218" y="253" on="0"/>
        <pt x="228" y="285" on="1"/>
        <pt x="204" y="275" on="0"/>
        <pt x="159" y="263" on="0"/>
        <pt x="140" y="263" on="1"/>
        <pt x="121" y="263" on="0"/>
        <pt x="110" y="270" on="1"/>
      </contour>
      <contour>
        <pt x="89" y="84" on="1"/>
        <pt x="94" y="79" on="0"/>
        <pt x="100" y="79" on="1"/>
        <pt x="114" y="79" on="0"/>
        <pt x="151" y="108" on="0"/>
        <pt x="169" y="129" on="1"/>
        <pt x="167" y="129" on="0"/>
        <pt x="162" y="130" on="0"/>
        <pt x="160" y="130" on="1"/>
        <pt x="131" y="130" on="0"/>
        <pt x="87" y="104" on="0"/>
        <pt x="87" y="91" on="1"/>
        <pt x="87" y="86" on="0"/>
      </contour>
      <contour>
        <pt x="394" y="569" on="1"/>
        <pt x="395" y="570" on="1"/>
        <pt x="393" y="564" on="0"/>
        <pt x="393" y="562" on="1"/>
        <pt x="401" y="567" on="0"/>
        <pt x="425" y="581" on="0"/>
        <pt x="430" y="586" on="1"/>
        <pt x="450" y="606" on="0"/>
        <pt x="483" y="653" on="0"/>
        <pt x="483" y="667" on="1"/>
        <pt x="483" y="672" on="0"/>
        <pt x="480" y="675" on="1"/>
        <pt x="478" y="682" on="0"/>
        <pt x="471" y="683" on="1"/>
        <pt x="469" y="683" on="1"/>
        <pt x="460" y="683" on="0"/>
        <pt x="450" y="671" on="1"/>
        <pt x="435" y="658" on="0"/>
        <pt x="410" y="609" on="0"/>
        <pt x="399" y="583" on="1"/>
        <pt x="395" y="573" on="0"/>
      </contour>
    </TTGlyph>
    <TTGlyph name="M" xMin="46" yMin="-154" xMax="1047" yMax="777">
      <contour>
        <pt x="1047" y="-93" on="1"/>
        <pt x="994" y="-112" on="0"/>
        <pt x="913" y="-136" on="0"/>
        <pt x="853" y="-149" on="0"/>
        <pt x="811" y="-154" on="0"/>
        <pt x="798" y="-154" on="1"/>
        <pt x="788" y="-154" on="0"/>
        <pt x="777" y="-153" on="0"/>
        <pt x="773" y="-152" on="1"/>
        <pt x="769" y="-151" on="0"/>
        <pt x="766" y="-150" on="1"/>
        <pt x="751" y="-141" on="0"/>
        <pt x="723" y="-96" on="0"/>
        <pt x="700" y="-33" on="0"/>
        <pt x="686" y="44" on="0"/>
        <pt x="686" y="86" on="1"/>
        <pt x="686" y="112" on="0"/>
        <pt x="689" y="136" on="1"/>
        <pt x="692" y="166" on="0"/>
        <pt x="712" y="253" on="0"/>
        <pt x="738" y="352" on="0"/>
        <pt x="766" y="456" on="0"/>
        <pt x="790" y="549" on="0"/>
        <pt x="805" y="623" on="0"/>
        <pt x="805" y="643" on="1"/>
        <pt x="805" y="654" on="0"/>
        <pt x="802" y="659" on="1"/>
        <pt x="797" y="668" on="0"/>
        <pt x="779" y="668" on="1"/>
        <pt x="765" y="668" on="0"/>
        <pt x="729" y="658" on="0"/>
        <pt x="689" y="641" on="0"/>
        <pt x="649" y="618" on="0"/>
        <pt x="632" y="605" on="1"/>
        <pt x="624" y="576" on="0"/>
        <pt x="602" y="500" on="1"/>
        <pt x="593" y="468" on="0"/>
        <pt x="565" y="376" on="0"/>
        <pt x="528" y="252" on="0"/>
        <pt x="479" y="92" on="0"/>
        <pt x="449" y="-9" on="1"/>
        <pt x="345" y="12" on="1"/>
        <pt x="359" y="50" on="0"/>
        <pt x="401" y="160" on="0"/>
        <pt x="446" y="284" on="0"/>
        <pt x="491" y="413" on="0"/>
        <pt x="527" y="525" on="0"/>
        <pt x="549" y="611" on="0"/>
        <pt x="549" y="631" on="1"/>
        <pt x="549" y="639" on="0"/>
        <pt x="548" y="641" on="1"/>
        <pt x="544" y="652" on="0"/>
        <pt x="526" y="660" on="0"/>
        <pt x="514" y="660" on="1"/>
        <pt x="499" y="660" on="0"/>
        <pt x="464" y="650" on="0"/>
        <pt x="431" y="635" on="0"/>
        <pt x="402" y="617" on="0"/>
        <pt x="394" y="610" on="1"/>
        <pt x="386" y="603" on="0"/>
        <pt x="365" y="583" on="0"/>
        <pt x="353" y="572" on="1"/>
        <pt x="344" y="544" on="0"/>
        <pt x="318" y="473" on="1"/>
        <pt x="307" y="442" on="0"/>
        <pt x="276" y="356" on="0"/>
        <pt x="234" y="237" on="0"/>
        <pt x="181" y="85" on="0"/>
        <pt x="147" y="-12" on="1"/>
        <pt x="46" y="26" on="1"/>
        <pt x="85" y="122" on="0"/>
        <pt x="146" y="272" on="0"/>
        <pt x="192" y="387" on="0"/>
        <pt x="224" y="469" on="0"/>
        <pt x="235" y="497" on="1"/>
        <pt x="261" y="563" on="0"/>
        <pt x="267" y="584" on="1"/>
        <pt x="272" y="601" on="0"/>
        <pt x="281" y="641" on="0"/>
        <pt x="281" y="657" on="1"/>
        <pt x="281" y="673" on="0"/>
        <pt x="270" y="694" on="0"/>
        <pt x="257" y="695" on="1"/>
        <pt x="255" y="695" on="0"/>
        <pt x="238" y="689" on="0"/>
        <pt x="202" y="661" on="0"/>
        <pt x="144" y="602" on="0"/>
        <pt x="101" y="548" on="1"/>
        <pt x="84" y="653" on="1"/>
        <pt x="99" y="669" on="0"/>
        <pt x="154" y="712" on="0"/>
        <pt x="215" y="751" on="0"/>
        <pt x="274" y="777" on="0"/>
        <pt x="294" y="777" on="1"/>
        <pt x="298" y="777" on="0"/>
        <pt x="304" y="775" on="1"/>
        <pt x="313" y="773" on="0"/>
        <pt x="329" y="754" on="0"/>
        <pt x="342" y="726" on="0"/>
        <pt x="351" y="691" on="0"/>
        <pt x="354" y="673" on="1"/>
        <pt x="375" y="687" on="0"/>
        <pt x="426" y="715" on="0"/>
        <pt x="477" y="736" on="0"/>
        <pt x="523" y="749" on="0"/>
        <pt x="538" y="749" on="1"/>
        <pt x="542" y="749" on="1"/>
        <pt x="559" y="747" on="0"/>
        <pt x="594" y="716" on="0"/>
        <pt x="607" y="694" on="1"/>
        <pt x="625" y="704" on="0"/>
        <pt x="675" y="727" on="0"/>
        <pt x="725" y="745" on="0"/>
        <pt x="771" y="757" on="0"/>
        <pt x="786" y="757" on="1"/>
        <pt x="787" y="757" on="1"/>
        <pt x="805" y="757" on="0"/>
        <pt x="848" y="724" on="0"/>
        <pt x="885" y="677" on="0"/>
        <pt x="911" y="626" on="0"/>
        <pt x="912" y="607" on="1"/>
        <pt x="912" y="596" on="0"/>
        <pt x="891" y="523" on="0"/>
        <pt x="858" y="418" on="0"/>
        <pt x="820" y="292" on="0"/>
        <pt x="787" y="165" on="0"/>
        <pt x="765" y="47" on="0"/>
        <pt x="765" y="4" on="1"/>
        <pt x="765" y="-51" on="0"/>
        <pt x="785" y="-71" on="1"/>
        <pt x="803" y="-86" on="0"/>
        <pt x="841" y="-99" on="0"/>
        <pt x="861" y="-99" on="1"/>
        <pt x="888" y="-99" on="0"/>
        <pt x="940" y="-80" on="0"/>
        <pt x="985" y="-56" on="0"/>
        <pt x="1019" y="-32" on="0"/>
        <pt x="1027" y="-27" on="1"/>
      </contour>
    </TTGlyph>
    <TTGlyph name="N" xMin="15" yMin="-124" xMax="768" yMax="758">
      <contour>
        <pt x="768" y="-65" on="1"/>
        <pt x="679" y="-102" on="0"/>
        <pt x="564" y="-124" on="0"/>
        <pt x="534" y="-124" on="1"/>
        <pt x="523" y="-124" on="0"/>
        <pt x="508" y="-123" on="0"/>
        <pt x="503" y="-122" on="1"/>
        <pt x="497" y="-121" on="0"/>
        <pt x="494" y="-120" on="1"/>
        <pt x="472" y="-112" on="0"/>
        <pt x="444" y="-67" on="0"/>
        <pt x="427" y="-7" on="0"/>
        <pt x="420" y="60" on="0"/>
        <pt x="420" y="90" on="1"/>
        <pt x="420" y="137" on="0"/>
        <pt x="426" y="163" on="1"/>
        <pt x="429" y="177" on="0"/>
        <pt x="451" y="241" on="0"/>
        <pt x="481" y="327" on="0"/>
        <pt x="514" y="423" on="0"/>
        <pt x="542" y="514" on="0"/>
        <pt x="560" y="589" on="0"/>
        <pt x="560" y="610" on="1"/>
        <pt x="560" y="617" on="0"/>
        <pt x="558" y="625" on="1"/>
        <pt x="548" y="654" on="0"/>
        <pt x="512" y="679" on="0"/>
        <pt x="490" y="679" on="1"/>
        <pt x="473" y="679" on="0"/>
        <pt x="457" y="673" on="1"/>
        <pt x="445" y="668" on="0"/>
        <pt x="406" y="643" on="0"/>
        <pt x="364" y="610" on="0"/>
        <pt x="325" y="573" on="0"/>
        <pt x="312" y="556" on="1"/>
        <pt x="298" y="514" on="0"/>
        <pt x="259" y="400" on="0"/>
        <pt x="216" y="277" on="0"/>
        <pt x="171" y="157" on="0"/>
        <pt x="134" y="60" on="0"/>
        <pt x="105" y="-4" on="0"/>
        <pt x="100" y="-9" on="1"/>
        <pt x="15" y="13" on="1"/>
        <pt x="26" y="33" on="0"/>
        <pt x="67" y="134" on="0"/>
        <pt x="116" y="264" on="0"/>
        <pt x="167" y="407" on="0"/>
        <pt x="210" y="533" on="0"/>
        <pt x="239" y="625" on="0"/>
        <pt x="242" y="639" on="1"/>
        <pt x="243" y="644" on="0"/>
        <pt x="243" y="651" on="1"/>
        <pt x="243" y="663" on="0"/>
        <pt x="234" y="672" on="0"/>
        <pt x="226" y="672" on="1"/>
        <pt x="215" y="672" on="0"/>
        <pt x="189" y="659" on="0"/>
        <pt x="182" y="655" on="1"/>
        <pt x="171" y="648" on="0"/>
        <pt x="159" y="637" on="1"/>
        <pt x="148" y="627" on="0"/>
        <pt x="119" y="592" on="0"/>
        <pt x="102" y="565" on="1"/>
        <pt x="62" y="641" on="1"/>
        <pt x="78" y="658" on="0"/>
        <pt x="130" y="698" on="0"/>
        <pt x="184" y="732" on="0"/>
        <pt x="234" y="754" on="0"/>
        <pt x="248" y="754" on="1"/>
        <pt x="250" y="754" on="0"/>
        <pt x="252" y="753" on="0"/>
        <pt x="253" y="753" on="1"/>
        <pt x="262" y="751" on="0"/>
        <pt x="284" y="740" on="0"/>
        <pt x="306" y="723" on="0"/>
        <pt x="326" y="700" on="0"/>
        <pt x="332" y="686" on="1"/>
        <pt x="348" y="696" on="0"/>
        <pt x="398" y="721" on="0"/>
        <pt x="451" y="743" on="0"/>
        <pt x="500" y="758" on="0"/>
        <pt x="517" y="758" on="1"/>
        <pt x="523" y="758" on="0"/>
        <pt x="525" y="757" on="1"/>
        <pt x="540" y="754" on="0"/>
        <pt x="580" y="729" on="0"/>
        <pt x="616" y="693" on="0"/>
        <pt x="641" y="648" on="0"/>
        <pt x="641" y="626" on="1"/>
        <pt x="641" y="615" on="1"/>
        <pt x="638" y="591" on="0"/>
        <pt x="619" y="500" on="0"/>
        <pt x="594" y="395" on="0"/>
        <pt x="566" y="291" on="0"/>
        <pt x="553" y="255" on="1"/>
        <pt x="545" y="234" on="0"/>
        <pt x="530" y="182" on="0"/>
        <pt x="525" y="155" on="1"/>
        <pt x="520" y="126" on="0"/>
        <pt x="515" y="69" on="0"/>
        <pt x="515" y="43" on="1"/>
        <pt x="515" y="8" on="0"/>
        <pt x="527" y="-42" on="0"/>
        <pt x="542" y="-47" on="1"/>
        <pt x="542" y="-48" on="0"/>
        <pt x="544" y="-48" on="1"/>
        <pt x="552" y="-48" on="1"/>
        <pt x="559" y="-48" on="0"/>
        <pt x="586" y="-44" on="0"/>
        <pt x="628" y="-32" on="0"/>
        <pt x="687" y="-8" on="0"/>
        <pt x="727" y="12" on="1"/>
      </contour>
    </TTGlyph>
    <TTGlyph name="Ntilde" xMin="15" yMin="-124" xMax="768" yMax="971">
      <component glyphName="N" x="0" y="0" flags="0x204"/>
      <component glyphName="tilde" x="228" y="210" flags="0x4"/>
    </TTGlyph>
    <TTGlyph name="O" xMin="31" yMin="-28" xMax="750" yMax="765">
      <contour>
        <pt x="506" y="468" on="1"/>
        <pt x="509" y="487" on="0"/>
        <pt x="509" y="507" on="1"/>
        <pt x="509" y="514" on="0"/>
        <pt x="509" y="526" on="0"/>
        <pt x="508" y="534" on="1"/>
        <pt x="484" y="534" on="0"/>
        <pt x="418" y="541" on="0"/>
        <pt x="353" y="559" on="0"/>
        <pt x="297" y="590" on="0"/>
        <pt x="283" y="614" on="1"/>
        <pt x="281" y="616" on="0"/>
        <pt x="280" y="620" on="0"/>
        <pt x="279" y="622" on="1"/>
        <pt x="265" y="617" on="0"/>
        <pt x="237" y="601" on="0"/>
        <pt x="224" y="587" on="1"/>
        <pt x="215" y="577" on="0"/>
        <pt x="194" y="532" on="0"/>
        <pt x="172" y="471" on="0"/>
        <pt x="151" y="401" on="0"/>
        <pt x="134" y="333" on="0"/>
        <pt x="124" y="274" on="0"/>
        <pt x="124" y="255" on="1"/>
        <pt x="124" y="245" on="0"/>
        <pt x="125" y="242" on="1"/>
        <pt x="128" y="219" on="0"/>
        <pt x="169" y="157" on="0"/>
        <pt x="224" y="100" on="0"/>
        <pt x="281" y="60" on="0"/>
        <pt x="301" y="60" on="1"/>
        <pt x="304" y="60" on="1"/>
        <pt x="317" y="61" on="0"/>
        <pt x="354" y="107" on="0"/>
        <pt x="395" y="178" on="0"/>
        <pt x="438" y="267" on="0"/>
        <pt x="474" y="357" on="0"/>
        <pt x="501" y="439" on="0"/>
      </contour>
      <contour>
        <pt x="484" y="622" on="1"/>
        <pt x="476" y="644" on="0"/>
        <pt x="469" y="657" on="1"/>
        <pt x="452" y="675" on="0"/>
        <pt x="407" y="697" on="0"/>
        <pt x="390" y="697" on="1"/>
        <pt x="378" y="697" on="0"/>
        <pt x="374" y="691" on="1"/>
        <pt x="368" y="683" on="0"/>
        <pt x="368" y="675" on="1"/>
        <pt x="368" y="644" on="0"/>
        <pt x="443" y="623" on="1"/>
        <pt x="453" y="620" on="0"/>
        <pt x="463" y="620" on="1"/>
        <pt x="468" y="620" on="0"/>
        <pt x="479" y="621" on="0"/>
      </contour>
      <contour>
        <pt x="750" y="652" on="1"/>
        <pt x="738" y="642" on="0"/>
        <pt x="701" y="615" on="0"/>
        <pt x="656" y="587" on="0"/>
        <pt x="607" y="561" on="0"/>
        <pt x="584" y="552" on="1"/>
        <pt x="587" y="519" on="0"/>
        <pt x="587" y="485" on="1"/>
        <pt x="587" y="436" on="0"/>
        <pt x="572" y="332" on="0"/>
        <pt x="553" y="284" on="1"/>
        <pt x="532" y="229" on="0"/>
        <pt x="465" y="118" on="0"/>
        <pt x="384" y="28" on="0"/>
        <pt x="298" y="-28" on="0"/>
        <pt x="258" y="-28" on="1"/>
        <pt x="254" y="-28" on="0"/>
        <pt x="248" y="-27" on="0"/>
        <pt x="244" y="-27" on="1"/>
        <pt x="219" y="-23" on="0"/>
        <pt x="168" y="13" on="0"/>
        <pt x="120" y="69" on="0"/>
        <pt x="79" y="138" on="0"/>
        <pt x="49" y="211" on="0"/>
        <pt x="31" y="281" on="0"/>
        <pt x="31" y="310" on="1"/>
        <pt x="31" y="316" on="0"/>
        <pt x="32" y="329" on="0"/>
        <pt x="33" y="335" on="1"/>
        <pt x="40" y="376" on="0"/>
        <pt x="78" y="490" on="0"/>
        <pt x="135" y="601" on="0"/>
        <pt x="206" y="692" on="0"/>
        <pt x="247" y="709" on="1"/>
        <pt x="256" y="713" on="0"/>
        <pt x="292" y="718" on="0"/>
        <pt x="300" y="720" on="1"/>
        <pt x="316" y="737" on="0"/>
        <pt x="352" y="761" on="0"/>
        <pt x="366" y="764" on="1"/>
        <pt x="369" y="764" on="0"/>
        <pt x="376" y="765" on="0"/>
        <pt x="380" y="765" on="1"/>
        <pt x="398" y="765" on="0"/>
        <pt x="448" y="753" on="0"/>
        <pt x="499" y="732" on="0"/>
        <pt x="542" y="702" on="0"/>
        <pt x="553" y="684" on="1"/>
        <pt x="562" y="667" on="0"/>
        <pt x="570" y="634" on="1"/>
        <pt x="610" y="651" on="0"/>
        <pt x="682" y="695" on="0"/>
        <pt x="703" y="707" on="1"/>
      </contour>
    </TTGlyph>
    <TTGlyph name="OE" xMin="31" yMin="-28" xMax="903" yMax="765">
      <contour>
        <pt x="304" y="60" on="1"/>
        <pt x="317" y="61" on="0"/>
        <pt x="354" y="107" on="0"/>
        <pt x="395" y="178" on="0"/>
        <pt x="438" y="267" on="0"/>
        <pt x="474" y="357" on="0"/>
        <pt x="501" y="439" on="0"/>
        <pt x="506" y="468" on="1"/>
        <pt x="509" y="487" on="0"/>
        <pt x="509" y="507" on="1"/>
        <pt x="509" y="514" on="0"/>
        <pt x="509" y="526" on="0"/>
        <pt x="508" y="534" on="1"/>
        <pt x="484" y="534" on="0"/>
        <pt x="418" y="541" on="0"/>
        <pt x="353" y="559" on="0"/>
        <pt x="297" y="590" on="0"/>
        <pt x="283" y="614" on="1"/>
        <pt x="281" y="616" on="0"/>
        <pt x="280" y="620" on="0"/>
        <pt x="279" y="622" on="1"/>
        <pt x="265" y="617" on="0"/>
        <pt x="237" y="601" on="0"/>
        <pt x="224" y="587" on="1"/>
        <pt x="215" y="577" on="0"/>
        <pt x="194" y="532" on="0"/>
        <pt x="172" y="471" on="0"/>
        <pt x="151" y="401" on="0"/>
        <pt x="134" y="333" on="0"/>
        <pt x="124" y="274" on="0"/>
        <pt x="124" y="255" on="1"/>
        <pt x="124" y="245" on="0"/>
        <pt x="125" y="242" on="1"/>
        <pt x="128" y="219" on="0"/>
        <pt x="169" y="157" on="0"/>
        <pt x="224" y="100" on="0"/>
        <pt x="281" y="60" on="0"/>
        <pt x="301" y="60" on="1"/>
      </contour>
      <contour>
        <pt x="374" y="691" on="1"/>
        <pt x="368" y="683" on="0"/>
        <pt x="368" y="675" on="1"/>
        <pt x="368" y="644" on="0"/>
        <pt x="443" y="623" on="1"/>
        <pt x="453" y="620" on="0"/>
        <pt x="463" y="620" on="1"/>
        <pt x="468" y="620" on="0"/>
        <pt x="479" y="621" on="0"/>
        <pt x="484" y="622" on="1"/>
        <pt x="476" y="644" on="0"/>
        <pt x="469" y="657" on="1"/>
        <pt x="452" y="675" on="0"/>
        <pt x="407" y="697" on="0"/>
        <pt x="390" y="697" on="1"/>
        <pt x="378" y="697" on="0"/>
      </contour>
      <contour>
        <pt x="705" y="407" on="1"/>
        <pt x="700" y="408" on="0"/>
        <pt x="693" y="409" on="0"/>
        <pt x="690" y="409" on="1"/>
        <pt x="675" y="409" on="0"/>
        <pt x="642" y="393" on="0"/>
        <pt x="621" y="379" on="1"/>
        <pt x="631" y="376" on="0"/>
        <pt x="642" y="376" on="1"/>
        <pt x="662" y="376" on="0"/>
        <pt x="697" y="393" on="0"/>
      </contour>
      <contour>
        <pt x="672" y="101" on="1"/>
        <pt x="686" y="110" on="0"/>
        <pt x="704" y="126" on="1"/>
        <pt x="720" y="140" on="0"/>
        <pt x="766" y="183" on="0"/>
        <pt x="795" y="215" on="1"/>
        <pt x="856" y="132" on="1"/>
        <pt x="838" y="115" on="0"/>
        <pt x="774" y="65" on="0"/>
        <pt x="701" y="17" on="0"/>
        <pt x="625" y="-17" on="0"/>
        <pt x="595" y="-18" on="1"/>
        <pt x="591" y="-18" on="1"/>
        <pt x="546" y="-18" on="0"/>
        <pt x="451" y="25" on="0"/>
        <pt x="419" y="67" on="1"/>
        <pt x="380" y="25" on="0"/>
        <pt x="296" y="-28" on="0"/>
        <pt x="258" y="-28" on="1"/>
        <pt x="254" y="-28" on="0"/>
        <pt x="248" y="-27" on="0"/>
        <pt x="244" y="-27" on="1"/>
        <pt x="219" y="-23" on="0"/>
        <pt x="168" y="13" on="0"/>
        <pt x="120" y="69" on="0"/>
        <pt x="79" y="138" on="0"/>
        <pt x="49" y="211" on="0"/>
        <pt x="31" y="281" on="0"/>
        <pt x="31" y="310" on="1"/>
        <pt x="31" y="316" on="0"/>
        <pt x="32" y="329" on="0"/>
        <pt x="33" y="335" on="1"/>
        <pt x="40" y="376" on="0"/>
        <pt x="78" y="490" on="0"/>
        <pt x="135" y="601" on="0"/>
        <pt x="206" y="692" on="0"/>
        <pt x="247" y="709" on="1"/>
        <pt x="256" y="713" on="0"/>
        <pt x="292" y="718" on="0"/>
        <pt x="300" y="720" on="1"/>
        <pt x="316" y="737" on="0"/>
        <pt x="352" y="761" on="0"/>
        <pt x="366" y="764" on="1"/>
        <pt x="369" y="764" on="0"/>
        <pt x="376" y="765" on="0"/>
        <pt x="380" y="765" on="1"/>
        <pt x="398" y="765" on="0"/>
        <pt x="448" y="753" on="0"/>
        <pt x="499" y="732" on="0"/>
        <pt x="542" y="702" on="0"/>
        <pt x="553" y="684" on="1"/>
        <pt x="556" y="678" on="0"/>
        <pt x="563" y="661" on="0"/>
        <pt x="566" y="650" on="1"/>
        <pt x="590" y="669" on="0"/>
        <pt x="642" y="702" on="0"/>
        <pt x="692" y="726" on="0"/>
        <pt x="737" y="740" on="0"/>
        <pt x="753" y="740" on="1"/>
        <pt x="760" y="740" on="0"/>
        <pt x="768" y="738" on="1"/>
        <pt x="784" y="731" on="0"/>
        <pt x="804" y="720" on="1"/>
        <pt x="821" y="709" on="0"/>
        <pt x="871" y="675" on="0"/>
        <pt x="903" y="647" on="1"/>
        <pt x="817" y="611" on="1"/>
        <pt x="806" y="634" on="0"/>
        <pt x="761" y="651" on="0"/>
        <pt x="737" y="651" on="1"/>
        <pt x="715" y="651" on="0"/>
        <pt x="675" y="640" on="0"/>
        <pt x="663" y="633" on="1"/>
        <pt x="649" y="625" on="0"/>
        <pt x="604" y="579" on="0"/>
        <pt x="583" y="551" on="1"/>
        <pt x="584" y="550" on="0"/>
        <pt x="584" y="549" on="0"/>
        <pt x="585" y="548" on="1"/>
        <pt x="586" y="533" on="0"/>
        <pt x="587" y="503" on="0"/>
        <pt x="587" y="486" on="1"/>
        <pt x="587" y="475" on="0"/>
        <pt x="587" y="452" on="0"/>
        <pt x="586" y="439" on="1"/>
        <pt x="626" y="458" on="0"/>
        <pt x="715" y="485" on="0"/>
        <pt x="743" y="485" on="1"/>
        <pt x="766" y="485" on="0"/>
        <pt x="772" y="475" on="1"/>
        <pt x="778" y="463" on="0"/>
        <pt x="778" y="442" on="1"/>
        <pt x="778" y="426" on="0"/>
        <pt x="769" y="389" on="0"/>
        <pt x="752" y="355" on="0"/>
        <pt x="726" y="328" on="0"/>
        <pt x="708" y="322" on="1"/>
        <pt x="694" y="316" on="0"/>
        <pt x="661" y="311" on="0"/>
        <pt x="643" y="311" on="1"/>
        <pt x="623" y="311" on="0"/>
        <pt x="583" y="316" on="0"/>
        <pt x="565" y="321" on="1"/>
        <pt x="561" y="303" on="0"/>
        <pt x="553" y="284" on="1"/>
        <pt x="537" y="242" on="0"/>
        <pt x="493" y="160" on="0"/>
        <pt x="465" y="122" on="1"/>
        <pt x="470" y="106" on="0"/>
        <pt x="482" y="79" on="0"/>
        <pt x="486" y="74" on="1"/>
        <pt x="500" y="59" on="0"/>
        <pt x="531" y="59" on="1"/>
        <pt x="549" y="59" on="0"/>
        <pt x="588" y="67" on="0"/>
        <pt x="626" y="79" on="0"/>
        <pt x="660" y="94" on="0"/>
      </contour>
    </TTGlyph>
    <TTGlyph name="Oacute" xMin="31" yMin="-28" xMax="750" yMax="947">
      <component glyphName="O" x="0" y="0" flags="0x204"/>
      <component glyphName="acute" x="404" y="184" flags="0x4"/>
    </TTGlyph>
    <TTGlyph name="Ocircumflex" xMin="31" yMin="-28" xMax="750" yMax="963">
      <component glyphName="O" x="0" y="0" flags="0x204"/>
      <component glyphName="circumflex" x="269" y="175" flags="0x4"/>
    </TTGlyph>
    <TTGlyph name="Odieresis" xMin="31" yMin="-28" xMax="750" yMax="937">
      <component glyphName="O" x="0" y="0" flags="0x204"/>
      <component glyphName="dieresis" x="228" y="183" flags="0x4"/>
    </TTGlyph>
    <TTGlyph name="Ograve" xMin="31" yMin="-28" xMax="750" yMax="981">
      <component glyphName="O" x="0" y="0" flags="0x204"/>
      <component glyphName="grave" x="232" y="208" flags="0x4"/>
    </TTGlyph>
    <TTGlyph name="Oslash" xMin="20" yMin="-28" xMax="766" yMax="772">
      <contour>
        <pt x="522" y="468" on="1"/>
        <pt x="525" y="487" on="0"/>
        <pt x="525" y="507" on="1"/>
        <pt x="525" y="514" on="0"/>
        <pt x="524" y="526" on="0"/>
        <pt x="523" y="534" on="1"/>
        <pt x="515" y="534" on="0"/>
        <pt x="498" y="535" on="0"/>
        <pt x="487" y="536" on="1"/>
        <pt x="451" y="489" on="0"/>
        <pt x="375" y="387" on="0"/>
        <pt x="299" y="284" on="0"/>
        <pt x="228" y="186" on="0"/>
        <pt x="198" y="144" on="1"/>
        <pt x="213" y="127" on="0"/>
        <pt x="245" y="97" on="0"/>
        <pt x="276" y="74" on="0"/>
        <pt x="305" y="60" on="0"/>
        <pt x="316" y="60" on="1"/>
        <pt x="319" y="60" on="1"/>
        <pt x="332" y="61" on="0"/>
        <pt x="369" y="107" on="0"/>
        <pt x="411" y="178" on="0"/>
        <pt x="454" y="267" on="0"/>
        <pt x="490" y="357" on="0"/>
        <pt x="517" y="439" on="0"/>
      </contour>
      <contour>
        <pt x="140" y="242" on="1"/>
        <pt x="141" y="227" on="0"/>
        <pt x="153" y="207" on="1"/>
        <pt x="181" y="246" on="0"/>
        <pt x="244" y="331" on="0"/>
        <pt x="310" y="420" on="0"/>
        <pt x="376" y="508" on="0"/>
        <pt x="407" y="549" on="1"/>
        <pt x="372" y="558" on="0"/>
        <pt x="313" y="589" on="0"/>
        <pt x="298" y="614" on="1"/>
        <pt x="294" y="622" on="1"/>
        <pt x="280" y="617" on="0"/>
        <pt x="252" y="601" on="0"/>
        <pt x="240" y="587" on="1"/>
        <pt x="231" y="577" on="0"/>
        <pt x="210" y="532" on="0"/>
        <pt x="187" y="471" on="0"/>
        <pt x="166" y="401" on="0"/>
        <pt x="149" y="333" on="0"/>
        <pt x="139" y="274" on="0"/>
        <pt x="139" y="255" on="1"/>
        <pt x="139" y="245" on="0"/>
      </contour>
      <contour>
        <pt x="389" y="691" on="1"/>
        <pt x="383" y="683" on="0"/>
        <pt x="383" y="675" on="1"/>
        <pt x="383" y="644" on="0"/>
        <pt x="459" y="623" on="1"/>
        <pt x="460" y="622" on="0"/>
        <pt x="462" y="622" on="1"/>
        <pt x="468" y="630" on="0"/>
        <pt x="480" y="646" on="0"/>
        <pt x="486" y="654" on="1"/>
        <pt x="486" y="655" on="0"/>
        <pt x="485" y="656" on="0"/>
        <pt x="485" y="657" on="1"/>
        <pt x="468" y="675" on="0"/>
        <pt x="422" y="697" on="0"/>
        <pt x="406" y="697" on="1"/>
        <pt x="393" y="697" on="0"/>
      </contour>
      <contour>
        <pt x="766" y="652" on="1"/>
        <pt x="754" y="642" on="0"/>
        <pt x="716" y="615" on="0"/>
        <pt x="671" y="587" on="0"/>
        <pt x="622" y="561" on="0"/>
        <pt x="600" y="552" on="1"/>
        <pt x="601" y="535" on="0"/>
        <pt x="603" y="503" on="0"/>
        <pt x="603" y="485" on="1"/>
        <pt x="603" y="436" on="0"/>
        <pt x="588" y="332" on="0"/>
        <pt x="569" y="284" on="1"/>
        <pt x="548" y="229" on="0"/>
        <pt x="480" y="118" on="0"/>
        <pt x="400" y="28" on="0"/>
        <pt x="313" y="-28" on="0"/>
        <pt x="273" y="-28" on="1"/>
        <pt x="269" y="-28" on="0"/>
        <pt x="263" y="-27" on="0"/>
        <pt x="259" y="-27" on="1"/>
        <pt x="229" y="-22" on="0"/>
        <pt x="168" y="28" on="0"/>
        <pt x="140" y="66" on="1"/>
        <pt x="121" y="37" on="0"/>
        <pt x="98" y="3" on="0"/>
        <pt x="96" y="0" on="1"/>
        <pt x="20" y="26" on="1"/>
        <pt x="31" y="42" on="0"/>
        <pt x="59" y="78" on="0"/>
        <pt x="71" y="95" on="1"/>
        <pt x="85" y="113" on="0"/>
        <pt x="98" y="133" on="1"/>
        <pt x="75" y="179" on="0"/>
        <pt x="46" y="272" on="0"/>
        <pt x="46" y="310" on="1"/>
        <pt x="46" y="316" on="0"/>
        <pt x="47" y="329" on="0"/>
        <pt x="48" y="335" on="1"/>
        <pt x="55" y="376" on="0"/>
        <pt x="94" y="490" on="0"/>
        <pt x="150" y="601" on="0"/>
        <pt x="222" y="692" on="0"/>
        <pt x="262" y="709" on="1"/>
        <pt x="271" y="713" on="0"/>
        <pt x="307" y="718" on="0"/>
        <pt x="316" y="720" on="1"/>
        <pt x="332" y="737" on="0"/>
        <pt x="368" y="761" on="0"/>
        <pt x="382" y="764" on="1"/>
        <pt x="384" y="764" on="0"/>
        <pt x="391" y="765" on="0"/>
        <pt x="395" y="765" on="1"/>
        <pt x="408" y="765" on="0"/>
        <pt x="444" y="758" on="0"/>
        <pt x="483" y="746" on="0"/>
        <pt x="521" y="728" on="0"/>
        <pt x="536" y="717" on="1"/>
        <pt x="575" y="768" on="0"/>
        <pt x="584" y="772" on="1"/>
        <pt x="654" y="737" on="1"/>
        <pt x="646" y="732" on="0"/>
        <pt x="608" y="689" on="0"/>
        <pt x="581" y="654" on="1"/>
        <pt x="583" y="649" on="0"/>
        <pt x="585" y="639" on="0"/>
        <pt x="587" y="634" on="1"/>
        <pt x="626" y="651" on="0"/>
        <pt x="697" y="695" on="0"/>
        <pt x="719" y="707" on="1"/>
      </contour>
    </TTGlyph>
    <TTGlyph name="Otilde" xMin="31" yMin="-28" xMax="750" yMax="929">
      <component glyphName="O" x="0" y="0" flags="0x204"/>
      <component glyphName="dieresis" x="252" y="175" flags="0x4"/>
    </TTGlyph>
    <TTGlyph name="P" xMin="5" yMin="-13" xMax="607" yMax="746">
      <contour>
        <pt x="538" y="566" on="1"/>
        <pt x="540" y="573" on="0"/>
        <pt x="542" y="587" on="0"/>
        <pt x="542" y="593" on="1"/>
        <pt x="542" y="612" on="0"/>
        <pt x="528" y="642" on="0"/>
        <pt x="508" y="663" on="0"/>
        <pt x="484" y="673" on="0"/>
        <pt x="475" y="673" on="1"/>
        <pt x="474" y="673" on="1"/>
        <pt x="463" y="673" on="0"/>
        <pt x="407" y="654" on="0"/>
        <pt x="342" y="623" on="0"/>
        <pt x="281" y="585" on="0"/>
        <pt x="266" y="566" on="1"/>
        <pt x="264" y="565" on="1"/>
        <pt x="256" y="522" on="0"/>
        <pt x="227" y="405" on="0"/>
        <pt x="210" y="341" on="1"/>
        <pt x="221" y="324" on="0"/>
        <pt x="250" y="299" on="0"/>
        <pt x="264" y="299" on="1"/>
        <pt x="266" y="299" on="0"/>
        <pt x="267" y="300" on="0"/>
        <pt x="269" y="300" on="1"/>
        <pt x="278" y="301" on="0"/>
        <pt x="322" y="333" on="0"/>
        <pt x="379" y="380" on="0"/>
        <pt x="441" y="439" on="0"/>
        <pt x="495" y="497" on="0"/>
        <pt x="533" y="549" on="0"/>
      </contour>
      <contour>
        <pt x="601" y="683" on="1"/>
        <pt x="607" y="666" on="0"/>
        <pt x="607" y="631" on="1"/>
        <pt x="607" y="606" on="0"/>
        <pt x="600" y="547" on="0"/>
        <pt x="588" y="490" on="0"/>
        <pt x="570" y="442" on="0"/>
        <pt x="559" y="428" on="1"/>
        <pt x="549" y="416" on="0"/>
        <pt x="509" y="376" on="0"/>
        <pt x="456" y="331" on="0"/>
        <pt x="397" y="285" on="0"/>
        <pt x="340" y="247" on="0"/>
        <pt x="289" y="224" on="0"/>
        <pt x="272" y="224" on="1"/>
        <pt x="269" y="224" on="1"/>
        <pt x="249" y="226" on="0"/>
        <pt x="206" y="247" on="0"/>
        <pt x="186" y="261" on="1"/>
        <pt x="173" y="214" on="0"/>
        <pt x="145" y="128" on="0"/>
        <pt x="117" y="55" on="0"/>
        <pt x="91" y="1" on="0"/>
        <pt x="80" y="-13" on="1"/>
        <pt x="5" y="8" on="1"/>
        <pt x="14" y="23" on="0"/>
        <pt x="42" y="87" on="0"/>
        <pt x="75" y="173" on="0"/>
        <pt x="111" y="275" on="0"/>
        <pt x="128" y="326" on="1"/>
        <pt x="122" y="336" on="0"/>
        <pt x="122" y="346" on="1"/>
        <pt x="139" y="358" on="1"/>
        <pt x="160" y="422" on="0"/>
        <pt x="191" y="533" on="0"/>
        <pt x="199" y="567" on="1"/>
        <pt x="173" y="596" on="1"/>
        <pt x="183" y="606" on="0"/>
        <pt x="201" y="618" on="1"/>
        <pt x="195" y="651" on="0"/>
        <pt x="174" y="651" on="1"/>
        <pt x="164" y="651" on="0"/>
        <pt x="153" y="643" on="1"/>
        <pt x="144" y="637" on="0"/>
        <pt x="133" y="628" on="1"/>
        <pt x="113" y="613" on="0"/>
        <pt x="83" y="581" on="1"/>
        <pt x="54" y="642" on="1"/>
        <pt x="68" y="658" on="0"/>
        <pt x="105" y="689" on="0"/>
        <pt x="145" y="714" on="0"/>
        <pt x="187" y="731" on="0"/>
        <pt x="207" y="733" on="1"/>
        <pt x="216" y="733" on="1"/>
        <pt x="244" y="733" on="0"/>
        <pt x="270" y="699" on="0"/>
        <pt x="273" y="669" on="1"/>
        <pt x="295" y="682" on="0"/>
        <pt x="340" y="708" on="0"/>
        <pt x="382" y="729" on="0"/>
        <pt x="416" y="743" on="0"/>
        <pt x="428" y="745" on="1"/>
        <pt x="432" y="746" on="0"/>
        <pt x="443" y="746" on="0"/>
        <pt x="450" y="746" on="1"/>
        <pt x="468" y="746" on="0"/>
        <pt x="515" y="740" on="0"/>
        <pt x="559" y="725" on="0"/>
        <pt x="595" y="701" on="0"/>
      </contour>
    </TTGlyph>
    <TTGlyph name="Q" xMin="-41" yMin="-88" xMax="553" yMax="760">
      <contour>
        <pt x="46" y="82" on="1"/>
        <pt x="46" y="71" on="0"/>
        <pt x="70" y="45" on="0"/>
        <pt x="93" y="45" on="1"/>
        <pt x="106" y="45" on="0"/>
        <pt x="134" y="55" on="0"/>
        <pt x="151" y="67" on="1"/>
        <pt x="125" y="78" on="0"/>
        <pt x="76" y="91" on="0"/>
        <pt x="62" y="91" on="1"/>
        <pt x="47" y="91" on="0"/>
        <pt x="46" y="85" on="1"/>
      </contour>
      <contour>
        <pt x="553" y="-45" on="1"/>
        <pt x="527" y="-60" on="0"/>
        <pt x="481" y="-76" on="0"/>
        <pt x="464" y="-81" on="1"/>
        <pt x="444" y="-86" on="0"/>
        <pt x="426" y="-88" on="1"/>
        <pt x="417" y="-88" on="1"/>
        <pt x="391" y="-88" on="0"/>
        <pt x="317" y="-73" on="0"/>
        <pt x="282" y="-59" on="1"/>
        <pt x="272" y="-55" on="0"/>
        <pt x="251" y="-35" on="0"/>
        <pt x="230" y="-10" on="0"/>
        <pt x="208" y="18" on="0"/>
        <pt x="198" y="30" on="1"/>
        <pt x="145" y="-12" on="0"/>
        <pt x="110" y="-18" on="1"/>
        <pt x="105" y="-19" on="0"/>
        <pt x="97" y="-19" on="0"/>
        <pt x="92" y="-19" on="1"/>
        <pt x="65" y="-19" on="0"/>
        <pt x="16" y="4" on="0"/>
        <pt x="-20" y="40" on="0"/>
        <pt x="-41" y="82" on="0"/>
        <pt x="-41" y="101" on="1"/>
        <pt x="-41" y="115" on="0"/>
        <pt x="-37" y="124" on="1"/>
        <pt x="-27" y="144" on="0"/>
        <pt x="31" y="164" on="0"/>
        <pt x="68" y="164" on="1"/>
        <pt x="101" y="164" on="0"/>
        <pt x="168" y="147" on="0"/>
        <pt x="191" y="130" on="1"/>
        <pt x="198" y="125" on="0"/>
        <pt x="205" y="119" on="1"/>
        <pt x="208" y="123" on="0"/>
        <pt x="213" y="129" on="0"/>
        <pt x="216" y="133" on="1"/>
        <pt x="234" y="157" on="0"/>
        <pt x="281" y="226" on="0"/>
        <pt x="332" y="306" on="0"/>
        <pt x="380" y="392" on="0"/>
        <pt x="419" y="473" on="0"/>
        <pt x="442" y="542" on="0"/>
        <pt x="442" y="566" on="1"/>
        <pt x="442" y="568" on="1"/>
        <pt x="440" y="635" on="0"/>
        <pt x="399" y="693" on="0"/>
        <pt x="372" y="693" on="1"/>
        <pt x="369" y="693" on="0"/>
        <pt x="367" y="692" on="1"/>
        <pt x="354" y="689" on="0"/>
        <pt x="328" y="674" on="1"/>
        <pt x="306" y="661" on="0"/>
        <pt x="230" y="608" on="0"/>
        <pt x="170" y="560" on="1"/>
        <pt x="105" y="607" on="1"/>
        <pt x="121" y="629" on="0"/>
        <pt x="193" y="681" on="0"/>
        <pt x="273" y="726" on="0"/>
        <pt x="345" y="758" on="0"/>
        <pt x="361" y="760" on="1"/>
        <pt x="368" y="760" on="1"/>
        <pt x="386" y="760" on="0"/>
        <pt x="439" y="738" on="0"/>
        <pt x="489" y="704" on="0"/>
        <pt x="526" y="660" on="0"/>
        <pt x="528" y="639" on="1"/>
        <pt x="528" y="630" on="1"/>
        <pt x="528" y="604" on="0"/>
        <pt x="514" y="519" on="0"/>
        <pt x="490" y="425" on="0"/>
        <pt x="460" y="336" on="0"/>
        <pt x="445" y="306" on="1"/>
        <pt x="435" y="287" on="0"/>
        <pt x="396" y="232" on="0"/>
        <pt x="343" y="169" on="0"/>
        <pt x="283" y="104" on="0"/>
        <pt x="252" y="75" on="1"/>
        <pt x="270" y="56" on="0"/>
        <pt x="307" y="16" on="0"/>
        <pt x="341" y="-16" on="0"/>
        <pt x="372" y="-36" on="0"/>
        <pt x="385" y="-36" on="1"/>
        <pt x="387" y="-36" on="1"/>
        <pt x="401" y="-35" on="0"/>
        <pt x="423" y="-28" on="1"/>
        <pt x="442" y="-22" on="0"/>
        <pt x="498" y="1" on="0"/>
        <pt x="537" y="22" on="1"/>
      </contour>
    </TTGlyph>
    <TTGlyph name="R" xMin="20" yMin="-171" xMax="610" yMax="754">
      <contour>
        <pt x="295" y="291" on="1"/>
        <pt x="301" y="285" on="0"/>
        <pt x="314" y="285" on="1"/>
        <pt x="336" y="285" on="0"/>
        <pt x="359" y="300" on="1"/>
        <pt x="349" y="308" on="0"/>
        <pt x="335" y="308" on="1"/>
        <pt x="324" y="308" on="0"/>
        <pt x="302" y="299" on="0"/>
      </contour>
      <contour>
        <pt x="555" y="-20" on="1"/>
        <pt x="570" y="-51" on="0"/>
        <pt x="598" y="-99" on="0"/>
        <pt x="610" y="-108" on="1"/>
        <pt x="579" y="-171" on="1"/>
        <pt x="565" y="-160" on="0"/>
        <pt x="538" y="-130" on="0"/>
        <pt x="527" y="-117" on="1"/>
        <pt x="515" y="-102" on="0"/>
        <pt x="504" y="-86" on="1"/>
        <pt x="489" y="-69" on="0"/>
        <pt x="464" y="-23" on="0"/>
        <pt x="444" y="23" on="0"/>
        <pt x="433" y="64" on="0"/>
        <pt x="433" y="75" on="1"/>
        <pt x="433" y="86" on="0"/>
        <pt x="434" y="108" on="0"/>
        <pt x="435" y="121" on="1"/>
        <pt x="435" y="129" on="1"/>
        <pt x="436" y="129" on="1"/>
        <pt x="438" y="153" on="0"/>
        <pt x="442" y="202" on="0"/>
        <pt x="442" y="223" on="1"/>
        <pt x="442" y="239" on="0"/>
        <pt x="439" y="263" on="0"/>
        <pt x="434" y="271" on="1"/>
        <pt x="394" y="241" on="0"/>
        <pt x="368" y="229" on="1"/>
        <pt x="358" y="226" on="0"/>
        <pt x="340" y="224" on="0"/>
        <pt x="330" y="224" on="1"/>
        <pt x="311" y="224" on="0"/>
        <pt x="273" y="233" on="0"/>
        <pt x="243" y="246" on="0"/>
        <pt x="222" y="263" on="0"/>
        <pt x="221" y="271" on="1"/>
        <pt x="221" y="274" on="1"/>
        <pt x="221" y="284" on="0"/>
        <pt x="241" y="311" on="0"/>
        <pt x="274" y="334" on="0"/>
        <pt x="317" y="350" on="0"/>
        <pt x="339" y="350" on="1"/>
        <pt x="342" y="350" on="1"/>
        <pt x="376" y="348" on="0"/>
        <pt x="416" y="341" on="1"/>
        <pt x="429" y="354" on="0"/>
        <pt x="459" y="386" on="0"/>
        <pt x="486" y="417" on="0"/>
        <pt x="508" y="445" on="0"/>
        <pt x="514" y="456" on="1"/>
        <pt x="521" y="469" on="0"/>
        <pt x="521" y="495" on="1"/>
        <pt x="521" y="519" on="0"/>
        <pt x="508" y="580" on="0"/>
        <pt x="488" y="633" on="0"/>
        <pt x="464" y="670" on="0"/>
        <pt x="452" y="670" on="1"/>
        <pt x="450" y="670" on="1"/>
        <pt x="439" y="670" on="0"/>
        <pt x="403" y="661" on="0"/>
        <pt x="359" y="645" on="0"/>
        <pt x="312" y="624" on="0"/>
        <pt x="291" y="612" on="1"/>
        <pt x="291" y="591" on="1"/>
        <pt x="291" y="566" on="0"/>
        <pt x="288" y="510" on="0"/>
        <pt x="281" y="457" on="0"/>
        <pt x="270" y="411" on="0"/>
        <pt x="261" y="395" on="1"/>
        <pt x="250" y="372" on="0"/>
        <pt x="230" y="321" on="1"/>
        <pt x="213" y="277" on="0"/>
        <pt x="156" y="119" on="0"/>
        <pt x="113" y="-8" on="1"/>
        <pt x="20" y="3" on="1"/>
        <pt x="71" y="126" on="0"/>
        <pt x="134" y="289" on="0"/>
        <pt x="153" y="340" on="1"/>
        <pt x="175" y="398" on="0"/>
        <pt x="186" y="432" on="1"/>
        <pt x="201" y="470" on="0"/>
        <pt x="215" y="535" on="0"/>
        <pt x="220" y="561" on="1"/>
        <pt x="171" y="597" on="1"/>
        <pt x="176" y="604" on="0"/>
        <pt x="203" y="630" on="0"/>
        <pt x="222" y="645" on="1"/>
        <pt x="217" y="662" on="0"/>
        <pt x="195" y="679" on="0"/>
        <pt x="181" y="679" on="1"/>
        <pt x="173" y="679" on="0"/>
        <pt x="166" y="676" on="1"/>
        <pt x="158" y="673" on="0"/>
        <pt x="147" y="666" on="1"/>
        <pt x="138" y="660" on="0"/>
        <pt x="110" y="639" on="0"/>
        <pt x="92" y="623" on="1"/>
        <pt x="36" y="670" on="1"/>
        <pt x="63" y="690" on="0"/>
        <pt x="90" y="717" on="0"/>
        <pt x="110" y="735" on="0"/>
        <pt x="134" y="747" on="0"/>
        <pt x="157" y="752" on="1"/>
        <pt x="162" y="753" on="0"/>
        <pt x="171" y="754" on="0"/>
        <pt x="176" y="754" on="1"/>
        <pt x="210" y="754" on="0"/>
        <pt x="268" y="715" on="0"/>
        <pt x="280" y="689" on="1"/>
        <pt x="309" y="709" on="0"/>
        <pt x="364" y="740" on="0"/>
        <pt x="381" y="743" on="1"/>
        <pt x="387" y="744" on="0"/>
        <pt x="399" y="745" on="0"/>
        <pt x="407" y="745" on="1"/>
        <pt x="428" y="745" on="0"/>
        <pt x="478" y="736" on="0"/>
        <pt x="524" y="721" on="0"/>
        <pt x="561" y="701" on="0"/>
        <pt x="570" y="689" on="1"/>
        <pt x="578" y="679" on="0"/>
        <pt x="592" y="629" on="0"/>
        <pt x="602" y="566" on="0"/>
        <pt x="608" y="500" on="0"/>
        <pt x="608" y="475" on="1"/>
        <pt x="608" y="459" on="0"/>
        <pt x="606" y="435" on="0"/>
        <pt x="602" y="430" on="1"/>
        <pt x="599" y="425" on="0"/>
        <pt x="578" y="401" on="0"/>
        <pt x="546" y="370" on="0"/>
        <pt x="508" y="334" on="0"/>
        <pt x="487" y="316" on="1"/>
        <pt x="518" y="301" on="0"/>
        <pt x="526" y="281" on="1"/>
        <pt x="535" y="260" on="0"/>
        <pt x="535" y="223" on="1"/>
        <pt x="535" y="205" on="0"/>
        <pt x="532" y="166" on="0"/>
        <pt x="528" y="130" on="0"/>
        <pt x="525" y="101" on="0"/>
        <pt x="525" y="93" on="1"/>
        <pt x="525" y="88" on="1"/>
        <pt x="526" y="84" on="0"/>
        <pt x="526" y="74" on="0"/>
        <pt x="527" y="68" on="1"/>
        <pt x="533" y="43" on="0"/>
        <pt x="546" y="-1" on="0"/>
      </contour>
    </TTGlyph>
    <TTGlyph name="S" xMin="-20" yMin="-49" xMax="548" yMax="764">
      <contour>
        <pt x="465" y="166" on="1"/>
        <pt x="466" y="169" on="0"/>
        <pt x="466" y="177" on="1"/>
        <pt x="466" y="195" on="0"/>
        <pt x="442" y="243" on="0"/>
        <pt x="407" y="293" on="0"/>
        <pt x="368" y="339" on="0"/>
        <pt x="353" y="354" on="1"/>
        <pt x="336" y="331" on="0"/>
        <pt x="279" y="258" on="0"/>
        <pt x="247" y="220" on="1"/>
        <pt x="275" y="210" on="0"/>
        <pt x="317" y="199" on="0"/>
        <pt x="328" y="199" on="1"/>
        <pt x="329" y="199" on="1"/>
        <pt x="317" y="135" on="1"/>
        <pt x="297" y="137" on="0"/>
        <pt x="234" y="155" on="0"/>
        <pt x="201" y="166" on="1"/>
        <pt x="186" y="148" on="0"/>
        <pt x="159" y="118" on="0"/>
        <pt x="148" y="105" on="1"/>
        <pt x="180" y="77" on="0"/>
        <pt x="247" y="36" on="0"/>
        <pt x="267" y="34" on="1"/>
        <pt x="269" y="33" on="0"/>
        <pt x="272" y="33" on="1"/>
        <pt x="293" y="33" on="0"/>
        <pt x="354" y="62" on="0"/>
        <pt x="413" y="103" on="0"/>
        <pt x="459" y="149" on="0"/>
      </contour>
      <contour>
        <pt x="103" y="154" on="1"/>
        <pt x="111" y="163" on="0"/>
        <pt x="125" y="181" on="0"/>
        <pt x="132" y="190" on="1"/>
        <pt x="122" y="194" on="0"/>
        <pt x="112" y="198" on="1"/>
        <pt x="103" y="202" on="0"/>
        <pt x="83" y="210" on="0"/>
        <pt x="74" y="214" on="1"/>
        <pt x="76" y="200" on="0"/>
        <pt x="91" y="170" on="0"/>
      </contour>
      <contour>
        <pt x="407" y="700" on="1"/>
        <pt x="392" y="698" on="0"/>
        <pt x="361" y="672" on="0"/>
        <pt x="336" y="634" on="0"/>
        <pt x="319" y="588" on="0"/>
        <pt x="319" y="564" on="1"/>
        <pt x="319" y="547" on="0"/>
        <pt x="330" y="516" on="0"/>
        <pt x="341" y="503" on="1"/>
        <pt x="343" y="500" on="0"/>
        <pt x="347" y="493" on="0"/>
        <pt x="349" y="488" on="1"/>
        <pt x="349" y="488" on="0"/>
        <pt x="350" y="486" on="1"/>
        <pt x="353" y="491" on="0"/>
        <pt x="359" y="499" on="0"/>
        <pt x="361" y="503" on="1"/>
        <pt x="384" y="535" on="0"/>
        <pt x="422" y="584" on="0"/>
        <pt x="428" y="597" on="1"/>
        <pt x="451" y="644" on="0"/>
        <pt x="451" y="667" on="1"/>
        <pt x="451" y="683" on="0"/>
        <pt x="433" y="696" on="0"/>
        <pt x="422" y="700" on="1"/>
        <pt x="419" y="701" on="0"/>
        <pt x="413" y="701" on="1"/>
        <pt x="409" y="701" on="0"/>
      </contour>
      <contour>
        <pt x="404" y="421" on="1"/>
        <pt x="436" y="389" on="0"/>
        <pt x="496" y="328" on="0"/>
        <pt x="506" y="305" on="1"/>
        <pt x="517" y="280" on="0"/>
        <pt x="530" y="204" on="0"/>
        <pt x="530" y="167" on="1"/>
        <pt x="530" y="146" on="0"/>
        <pt x="526" y="109" on="0"/>
        <pt x="521" y="95" on="1"/>
        <pt x="516" y="82" on="0"/>
        <pt x="482" y="51" on="0"/>
        <pt x="434" y="19" on="0"/>
        <pt x="377" y="-11" on="0"/>
        <pt x="324" y="-35" on="0"/>
        <pt x="279" y="-49" on="0"/>
        <pt x="267" y="-49" on="1"/>
        <pt x="265" y="-49" on="1"/>
        <pt x="254" y="-49" on="0"/>
        <pt x="217" y="-31" on="0"/>
        <pt x="172" y="-1" on="0"/>
        <pt x="122" y="38" on="0"/>
        <pt x="99" y="59" on="1"/>
        <pt x="81" y="41" on="1"/>
        <pt x="73" y="33" on="0"/>
        <pt x="50" y="9" on="0"/>
        <pt x="39" y="-4" on="1"/>
        <pt x="-14" y="11" on="1"/>
        <pt x="-3" y="22" on="0"/>
        <pt x="35" y="66" on="0"/>
        <pt x="60" y="98" on="1"/>
        <pt x="46" y="114" on="0"/>
        <pt x="27" y="142" on="0"/>
        <pt x="23" y="155" on="1"/>
        <pt x="19" y="165" on="0"/>
        <pt x="5" y="194" on="0"/>
        <pt x="-9" y="224" on="0"/>
        <pt x="-19" y="254" on="0"/>
        <pt x="-20" y="267" on="1"/>
        <pt x="-20" y="273" on="0"/>
        <pt x="-9" y="289" on="0"/>
        <pt x="6" y="304" on="0"/>
        <pt x="21" y="314" on="0"/>
        <pt x="25" y="314" on="1"/>
        <pt x="25" y="314" on="0"/>
        <pt x="26" y="313" on="1"/>
        <pt x="55" y="298" on="0"/>
        <pt x="134" y="263" on="0"/>
        <pt x="175" y="247" on="1"/>
        <pt x="207" y="289" on="0"/>
        <pt x="270" y="373" on="0"/>
        <pt x="299" y="414" on="1"/>
        <pt x="276" y="446" on="0"/>
        <pt x="237" y="526" on="0"/>
        <pt x="237" y="566" on="1"/>
        <pt x="237" y="572" on="0"/>
        <pt x="237" y="586" on="0"/>
        <pt x="239" y="592" on="1"/>
        <pt x="246" y="623" on="0"/>
        <pt x="284" y="685" on="0"/>
        <pt x="330" y="734" on="0"/>
        <pt x="375" y="764" on="0"/>
        <pt x="389" y="764" on="1"/>
        <pt x="390" y="764" on="1"/>
        <pt x="403" y="764" on="0"/>
        <pt x="457" y="751" on="0"/>
        <pt x="509" y="721" on="0"/>
        <pt x="548" y="674" on="0"/>
        <pt x="548" y="641" on="1"/>
        <pt x="548" y="615" on="0"/>
        <pt x="519" y="557" on="0"/>
        <pt x="475" y="499" on="0"/>
        <pt x="425" y="444" on="0"/>
      </contour>
    </TTGlyph>
    <TTGlyph name="Scaron" xMin="-20" yMin="-49" xMax="593" yMax="984">
      <component glyphName="S" x="0" y="0" flags="0x4"/>
      <component glyphName="caron" x="278" y="196" flags="0x4"/>
    </TTGlyph>
    <TTGlyph name="T" xMin="-10" yMin="-11" xMax="787" yMax="783">
      <contour>
        <pt x="787" y="713" on="1"/>
        <pt x="773" y="704" on="0"/>
        <pt x="722" y="680" on="0"/>
        <pt x="661" y="657" on="0"/>
        <pt x="597" y="639" on="0"/>
        <pt x="570" y="636" on="1"/>
        <pt x="563" y="618" on="0"/>
        <pt x="540" y="555" on="0"/>
        <pt x="513" y="479" on="0"/>
        <pt x="486" y="396" on="0"/>
        <pt x="461" y="321" on="0"/>
        <pt x="441" y="259" on="0"/>
        <pt x="436" y="242" on="1"/>
        <pt x="427" y="209" on="0"/>
        <pt x="403" y="141" on="0"/>
        <pt x="374" y="80" on="0"/>
        <pt x="341" y="30" on="0"/>
        <pt x="322" y="16" on="1"/>
        <pt x="303" y="2" on="0"/>
        <pt x="229" y="-11" on="0"/>
        <pt x="187" y="-11" on="1"/>
        <pt x="147" y="-11" on="0"/>
        <pt x="79" y="2" on="0"/>
        <pt x="67" y="14" on="1"/>
        <pt x="57" y="24" on="0"/>
        <pt x="31" y="86" on="0"/>
        <pt x="7" y="168" on="0"/>
        <pt x="-10" y="258" on="0"/>
        <pt x="-10" y="296" on="1"/>
        <pt x="-10" y="298" on="1"/>
        <pt x="-10" y="316" on="0"/>
        <pt x="19" y="338" on="0"/>
        <pt x="34" y="338" on="1"/>
        <pt x="40" y="338" on="0"/>
        <pt x="46" y="335" on="1"/>
        <pt x="81" y="312" on="0"/>
        <pt x="152" y="278" on="0"/>
        <pt x="181" y="278" on="1"/>
        <pt x="182" y="278" on="1"/>
        <pt x="199" y="278" on="1"/>
        <pt x="207" y="278" on="0"/>
        <pt x="224" y="279" on="0"/>
        <pt x="232" y="279" on="1"/>
        <pt x="252" y="279" on="1"/>
        <pt x="244" y="208" on="1"/>
        <pt x="200" y="209" on="0"/>
        <pt x="121" y="216" on="0"/>
        <pt x="86" y="234" on="1"/>
        <pt x="85" y="223" on="0"/>
        <pt x="85" y="198" on="0"/>
        <pt x="85" y="185" on="1"/>
        <pt x="85" y="171" on="0"/>
        <pt x="86" y="145" on="0"/>
        <pt x="87" y="137" on="1"/>
        <pt x="89" y="124" on="0"/>
        <pt x="111" y="95" on="0"/>
        <pt x="145" y="71" on="0"/>
        <pt x="188" y="55" on="0"/>
        <pt x="210" y="55" on="1"/>
        <pt x="214" y="55" on="0"/>
        <pt x="221" y="56" on="0"/>
        <pt x="225" y="56" on="1"/>
        <pt x="241" y="58" on="0"/>
        <pt x="274" y="93" on="0"/>
        <pt x="305" y="144" on="0"/>
        <pt x="332" y="207" on="0"/>
        <pt x="355" y="268" on="0"/>
        <pt x="371" y="322" on="0"/>
        <pt x="375" y="339" on="1"/>
        <pt x="378" y="354" on="0"/>
        <pt x="392" y="405" on="0"/>
        <pt x="411" y="467" on="0"/>
        <pt x="432" y="534" on="0"/>
        <pt x="454" y="595" on="0"/>
        <pt x="475" y="645" on="0"/>
        <pt x="483" y="660" on="1"/>
        <pt x="465" y="669" on="0"/>
        <pt x="423" y="687" on="0"/>
        <pt x="380" y="702" on="0"/>
        <pt x="340" y="712" on="0"/>
        <pt x="325" y="712" on="1"/>
        <pt x="310" y="712" on="0"/>
        <pt x="300" y="707" on="1"/>
        <pt x="289" y="699" on="0"/>
        <pt x="273" y="685" on="1"/>
        <pt x="259" y="673" on="0"/>
        <pt x="221" y="634" on="0"/>
        <pt x="195" y="605" on="1"/>
        <pt x="129" y="646" on="1"/>
        <pt x="140" y="664" on="0"/>
        <pt x="187" y="711" on="0"/>
        <pt x="244" y="753" on="0"/>
        <pt x="302" y="783" on="0"/>
        <pt x="324" y="783" on="1"/>
        <pt x="332" y="783" on="1"/>
        <pt x="350" y="779" on="0"/>
        <pt x="412" y="756" on="0"/>
        <pt x="480" y="732" on="0"/>
        <pt x="545" y="713" on="0"/>
        <pt x="568" y="713" on="1"/>
        <pt x="573" y="713" on="0"/>
        <pt x="583" y="715" on="1"/>
        <pt x="599" y="719" on="0"/>
        <pt x="621" y="728" on="1"/>
        <pt x="640" y="736" on="0"/>
        <pt x="694" y="760" on="0"/>
        <pt x="731" y="780" on="1"/>
        <pt x="787" y="713" on="1"/>
      </contour>
    </TTGlyph>
    <TTGlyph name="Thorn" xMin="36" yMin="-13" xMax="600" yMax="733">
      <contour>
        <pt x="531" y="455" on="1"/>
        <pt x="535" y="467" on="0"/>
        <pt x="535" y="481" on="1"/>
        <pt x="535" y="500" on="0"/>
        <pt x="521" y="530" on="0"/>
        <pt x="501" y="550" on="0"/>
        <pt x="478" y="561" on="0"/>
        <pt x="468" y="561" on="1"/>
        <pt x="458" y="561" on="0"/>
        <pt x="409" y="544" on="0"/>
        <pt x="351" y="519" on="0"/>
        <pt x="292" y="486" on="0"/>
        <pt x="273" y="469" on="1"/>
        <pt x="259" y="412" on="0"/>
        <pt x="225" y="285" on="0"/>
        <pt x="207" y="224" on="1"/>
        <pt x="218" y="210" on="0"/>
        <pt x="244" y="187" on="0"/>
        <pt x="258" y="187" on="1"/>
        <pt x="261" y="187" on="0"/>
        <pt x="262" y="188" on="1"/>
        <pt x="271" y="190" on="0"/>
        <pt x="315" y="222" on="0"/>
        <pt x="372" y="270" on="0"/>
        <pt x="435" y="328" on="0"/>
        <pt x="489" y="386" on="0"/>
        <pt x="527" y="437" on="0"/>
      </contour>
      <contour>
        <pt x="594" y="571" on="1"/>
        <pt x="600" y="554" on="0"/>
        <pt x="600" y="519" on="1"/>
        <pt x="600" y="494" on="0"/>
        <pt x="594" y="435" on="0"/>
        <pt x="582" y="378" on="0"/>
        <pt x="564" y="330" on="0"/>
        <pt x="553" y="316" on="1"/>
        <pt x="543" y="304" on="0"/>
        <pt x="502" y="264" on="0"/>
        <pt x="450" y="219" on="0"/>
        <pt x="390" y="173" on="0"/>
        <pt x="333" y="136" on="0"/>
        <pt x="283" y="113" on="0"/>
        <pt x="266" y="113" on="1"/>
        <pt x="262" y="113" on="1"/>
        <pt x="242" y="115" on="0"/>
        <pt x="201" y="133" on="0"/>
        <pt x="182" y="147" on="1"/>
        <pt x="163" y="91" on="0"/>
        <pt x="126" y="5" on="0"/>
        <pt x="111" y="-13" on="1"/>
        <pt x="36" y="8" on="1"/>
        <pt x="49" y="30" on="0"/>
        <pt x="95" y="143" on="0"/>
        <pt x="121" y="215" on="1"/>
        <pt x="118" y="220" on="0"/>
        <pt x="116" y="229" on="0"/>
        <pt x="115" y="233" on="1"/>
        <pt x="132" y="247" on="1"/>
        <pt x="150" y="298" on="0"/>
        <pt x="184" y="402" on="0"/>
        <pt x="198" y="449" on="1"/>
        <pt x="166" y="483" on="1"/>
        <pt x="174" y="492" on="0"/>
        <pt x="202" y="513" on="0"/>
        <pt x="219" y="525" on="1"/>
        <pt x="225" y="550" on="0"/>
        <pt x="232" y="586" on="0"/>
        <pt x="232" y="596" on="1"/>
        <pt x="232" y="599" on="1"/>
        <pt x="232" y="625" on="0"/>
        <pt x="217" y="651" on="0"/>
        <pt x="205" y="651" on="1"/>
        <pt x="194" y="651" on="0"/>
        <pt x="183" y="643" on="1"/>
        <pt x="174" y="637" on="0"/>
        <pt x="163" y="628" on="1"/>
        <pt x="154" y="620" on="0"/>
        <pt x="129" y="597" on="0"/>
        <pt x="114" y="581" on="1"/>
        <pt x="85" y="642" on="1"/>
        <pt x="99" y="658" on="0"/>
        <pt x="135" y="689" on="0"/>
        <pt x="176" y="714" on="0"/>
        <pt x="218" y="731" on="0"/>
        <pt x="238" y="733" on="1"/>
        <pt x="247" y="733" on="1"/>
        <pt x="282" y="733" on="0"/>
        <pt x="306" y="681" on="0"/>
        <pt x="306" y="639" on="1"/>
        <pt x="306" y="638" on="1"/>
        <pt x="306" y="630" on="0"/>
        <pt x="302" y="597" on="0"/>
        <pt x="297" y="574" on="1"/>
        <pt x="334" y="597" on="0"/>
        <pt x="401" y="630" on="0"/>
        <pt x="421" y="633" on="1"/>
        <pt x="426" y="634" on="0"/>
        <pt x="436" y="635" on="0"/>
        <pt x="443" y="635" on="1"/>
        <pt x="461" y="635" on="0"/>
        <pt x="508" y="628" on="0"/>
        <pt x="553" y="613" on="0"/>
        <pt x="588" y="588" on="0"/>
      </contour>
    </TTGlyph>
    <TTGlyph name="U" xMin="31" yMin="-37" xMax="714" yMax="761">
      <contour>
        <pt x="714" y="158" on="1"/>
        <pt x="702" y="129" on="0"/>
        <pt x="673" y="85" on="0"/>
        <pt x="660" y="71" on="1"/>
        <pt x="645" y="53" on="0"/>
        <pt x="630" y="42" on="1"/>
        <pt x="616" y="29" on="0"/>
        <pt x="575" y="1" on="0"/>
        <pt x="532" y="-22" on="0"/>
        <pt x="489" y="-37" on="0"/>
        <pt x="473" y="-37" on="1"/>
        <pt x="463" y="-37" on="0"/>
        <pt x="456" y="-34" on="1"/>
        <pt x="442" y="-28" on="0"/>
        <pt x="413" y="-6" on="0"/>
        <pt x="387" y="24" on="0"/>
        <pt x="371" y="61" on="0"/>
        <pt x="371" y="82" on="1"/>
        <pt x="371" y="91" on="0"/>
        <pt x="372" y="96" on="1"/>
        <pt x="374" y="110" on="0"/>
        <pt x="379" y="141" on="0"/>
        <pt x="382" y="157" on="1"/>
        <pt x="367" y="136" on="0"/>
        <pt x="337" y="93" on="0"/>
        <pt x="309" y="55" on="0"/>
        <pt x="284" y="26" on="0"/>
        <pt x="275" y="19" on="1"/>
        <pt x="267" y="13" on="0"/>
        <pt x="240" y="0" on="0"/>
        <pt x="207" y="-10" on="0"/>
        <pt x="172" y="-16" on="0"/>
        <pt x="156" y="-16" on="1"/>
        <pt x="131" y="-16" on="0"/>
        <pt x="115" y="-8" on="1"/>
        <pt x="103" y="-1" on="0"/>
        <pt x="80" y="29" on="0"/>
        <pt x="62" y="69" on="0"/>
        <pt x="51" y="119" on="0"/>
        <pt x="51" y="145" on="1"/>
        <pt x="51" y="158" on="0"/>
        <pt x="53" y="182" on="0"/>
        <pt x="56" y="195" on="1"/>
        <pt x="61" y="215" on="0"/>
        <pt x="82" y="287" on="0"/>
        <pt x="109" y="375" on="0"/>
        <pt x="139" y="473" on="0"/>
        <pt x="167" y="566" on="0"/>
        <pt x="189" y="647" on="0"/>
        <pt x="194" y="674" on="1"/>
        <pt x="170" y="649" on="0"/>
        <pt x="134" y="579" on="0"/>
        <pt x="110" y="547" on="1"/>
        <pt x="31" y="615" on="1"/>
        <pt x="47" y="639" on="0"/>
        <pt x="86" y="689" on="0"/>
        <pt x="128" y="732" on="0"/>
        <pt x="168" y="760" on="0"/>
        <pt x="186" y="761" on="1"/>
        <pt x="189" y="761" on="1"/>
        <pt x="205" y="761" on="0"/>
        <pt x="237" y="741" on="0"/>
        <pt x="264" y="710" on="0"/>
        <pt x="281" y="674" on="0"/>
        <pt x="281" y="659" on="1"/>
        <pt x="281" y="654" on="0"/>
        <pt x="279" y="648" on="1"/>
        <pt x="276" y="638" on="0"/>
        <pt x="252" y="565" on="0"/>
        <pt x="219" y="467" on="0"/>
        <pt x="183" y="355" on="0"/>
        <pt x="153" y="256" on="0"/>
        <pt x="133" y="181" on="0"/>
        <pt x="133" y="170" on="1"/>
        <pt x="133" y="169" on="1"/>
        <pt x="133" y="142" on="0"/>
        <pt x="176" y="103" on="0"/>
        <pt x="208" y="103" on="1"/>
        <pt x="225" y="103" on="0"/>
        <pt x="242" y="110" on="1"/>
        <pt x="282" y="125" on="0"/>
        <pt x="352" y="204" on="0"/>
        <pt x="411" y="312" on="0"/>
        <pt x="462" y="439" on="0"/>
        <pt x="504" y="565" on="0"/>
        <pt x="537" y="681" on="0"/>
        <pt x="551" y="724" on="1"/>
        <pt x="553" y="732" on="0"/>
        <pt x="572" y="738" on="0"/>
        <pt x="585" y="738" on="1"/>
        <pt x="603" y="738" on="0"/>
        <pt x="637" y="724" on="0"/>
        <pt x="637" y="710" on="1"/>
        <pt x="637" y="706" on="1"/>
        <pt x="634" y="694" on="0"/>
        <pt x="612" y="628" on="0"/>
        <pt x="580" y="537" on="0"/>
        <pt x="544" y="431" on="0"/>
        <pt x="528" y="380" on="1"/>
        <pt x="514" y="336" on="0"/>
        <pt x="486" y="253" on="0"/>
        <pt x="463" y="185" on="0"/>
        <pt x="448" y="138" on="0"/>
        <pt x="447" y="130" on="1"/>
        <pt x="447" y="126" on="1"/>
        <pt x="447" y="111" on="0"/>
        <pt x="456" y="82" on="0"/>
        <pt x="472" y="59" on="0"/>
        <pt x="492" y="46" on="0"/>
        <pt x="504" y="46" on="1"/>
        <pt x="512" y="46" on="0"/>
        <pt x="517" y="48" on="1"/>
        <pt x="531" y="52" on="0"/>
        <pt x="571" y="84" on="0"/>
        <pt x="611" y="132" on="0"/>
        <pt x="646" y="193" on="0"/>
        <pt x="655" y="228" on="1"/>
      </contour>
    </TTGlyph>
    <TTGlyph name="Uacute" xMin="31" yMin="-37" xMax="714" yMax="930">
      <component glyphName="U" x="0" y="0" flags="0x204"/>
      <component glyphName="acute" x="314" y="167" flags="0x4"/>
    </TTGlyph>
    <TTGlyph name="Ucircumflex" xMin="31" yMin="-37" xMax="714" yMax="953">
      <component glyphName="U" x="0" y="0" flags="0x204"/>
      <component glyphName="circumflex" x="247" y="165" flags="0x4"/>
    </TTGlyph>
    <TTGlyph name="Udieresis" xMin="31" yMin="-37" xMax="714" yMax="908">
      <component glyphName="U" x="0" y="0" flags="0x204"/>
      <component glyphName="dieresis" x="212" y="154" flags="0x4"/>
    </TTGlyph>
    <TTGlyph name="Ugrave" xMin="31" yMin="-37" xMax="714" yMax="926">
      <component glyphName="U" x="0" y="0" flags="0x204"/>
      <component glyphName="grave" x="186" y="153" flags="0x4"/>
    </TTGlyph>
    <TTGlyph name="V" xMin="15" yMin="-23" xMax="719" yMax="774">
      <contour>
        <pt x="719" y="711" on="1"/>
        <pt x="705" y="708" on="0"/>
        <pt x="665" y="678" on="0"/>
        <pt x="641" y="658" on="1"/>
        <pt x="603" y="627" on="0"/>
        <pt x="539" y="524" on="0"/>
        <pt x="485" y="410" on="0"/>
        <pt x="441" y="298" on="0"/>
        <pt x="424" y="257" on="1"/>
        <pt x="400" y="202" on="0"/>
        <pt x="349" y="101" on="0"/>
        <pt x="302" y="23" on="0"/>
        <pt x="264" y="-23" on="0"/>
        <pt x="253" y="-23" on="1"/>
        <pt x="251" y="-19" on="1"/>
        <pt x="248" y="-20" on="0"/>
        <pt x="244" y="-20" on="1"/>
        <pt x="222" y="-20" on="0"/>
        <pt x="176" y="10" on="0"/>
        <pt x="139" y="53" on="0"/>
        <pt x="116" y="102" on="0"/>
        <pt x="116" y="122" on="1"/>
        <pt x="116" y="124" on="0"/>
        <pt x="117" y="126" on="0"/>
        <pt x="117" y="128" on="1"/>
        <pt x="118" y="139" on="0"/>
        <pt x="127" y="202" on="0"/>
        <pt x="140" y="290" on="0"/>
        <pt x="157" y="396" on="0"/>
        <pt x="166" y="450" on="1"/>
        <pt x="176" y="517" on="0"/>
        <pt x="198" y="638" on="0"/>
        <pt x="198" y="676" on="1"/>
        <pt x="184" y="663" on="0"/>
        <pt x="165" y="644" on="1"/>
        <pt x="148" y="627" on="0"/>
        <pt x="101" y="578" on="0"/>
        <pt x="72" y="543" on="1"/>
        <pt x="15" y="593" on="1"/>
        <pt x="46" y="633" on="0"/>
        <pt x="94" y="686" on="0"/>
        <pt x="134" y="721" on="0"/>
        <pt x="170" y="743" on="0"/>
        <pt x="189" y="753" on="1"/>
        <pt x="201" y="759" on="0"/>
        <pt x="212" y="759" on="1"/>
        <pt x="228" y="759" on="0"/>
        <pt x="257" y="742" on="0"/>
        <pt x="279" y="716" on="0"/>
        <pt x="293" y="687" on="0"/>
        <pt x="293" y="675" on="1"/>
        <pt x="293" y="670" on="1"/>
        <pt x="292" y="662" on="0"/>
        <pt x="277" y="598" on="0"/>
        <pt x="256" y="504" on="0"/>
        <pt x="232" y="392" on="0"/>
        <pt x="212" y="281" on="0"/>
        <pt x="199" y="182" on="0"/>
        <pt x="199" y="148" on="1"/>
        <pt x="199" y="128" on="0"/>
        <pt x="205" y="101" on="0"/>
        <pt x="212" y="97" on="1"/>
        <pt x="216" y="95" on="0"/>
        <pt x="219" y="95" on="1"/>
        <pt x="229" y="95" on="0"/>
        <pt x="255" y="117" on="0"/>
        <pt x="269" y="136" on="1"/>
        <pt x="272" y="133" on="1"/>
        <pt x="301" y="191" on="0"/>
        <pt x="369" y="340" on="0"/>
        <pt x="437" y="485" on="0"/>
        <pt x="497" y="606" on="0"/>
        <pt x="518" y="636" on="1"/>
        <pt x="541" y="666" on="0"/>
        <pt x="571" y="693" on="1"/>
        <pt x="597" y="716" on="0"/>
        <pt x="670" y="762" on="0"/>
        <pt x="717" y="774" on="1"/>
      </contour>
    </TTGlyph>
    <TTGlyph name="W" xMin="-51" yMin="-23" xMax="974" yMax="774">
      <contour>
        <pt x="499" y="557" on="1"/>
        <pt x="494" y="553" on="0"/>
        <pt x="485" y="533" on="0"/>
        <pt x="477" y="509" on="0"/>
        <pt x="472" y="485" on="0"/>
        <pt x="472" y="476" on="1"/>
        <pt x="472" y="474" on="1"/>
        <pt x="483" y="502" on="0"/>
        <pt x="497" y="540" on="0"/>
      </contour>
      <contour>
        <pt x="974" y="711" on="1"/>
        <pt x="960" y="708" on="0"/>
        <pt x="920" y="678" on="0"/>
        <pt x="896" y="658" on="1"/>
        <pt x="858" y="627" on="0"/>
        <pt x="794" y="524" on="0"/>
        <pt x="740" y="410" on="0"/>
        <pt x="696" y="298" on="0"/>
        <pt x="679" y="257" on="1"/>
        <pt x="655" y="202" on="0"/>
        <pt x="604" y="101" on="0"/>
        <pt x="557" y="23" on="0"/>
        <pt x="519" y="-23" on="0"/>
        <pt x="508" y="-23" on="1"/>
        <pt x="489" y="-22" on="0"/>
        <pt x="449" y="-14" on="0"/>
        <pt x="415" y="3" on="0"/>
        <pt x="391" y="30" on="0"/>
        <pt x="388" y="50" on="1"/>
        <pt x="387" y="59" on="0"/>
        <pt x="386" y="86" on="0"/>
        <pt x="386" y="101" on="1"/>
        <pt x="386" y="126" on="0"/>
        <pt x="387" y="182" on="0"/>
        <pt x="389" y="207" on="1"/>
        <pt x="370" y="187" on="0"/>
        <pt x="336" y="155" on="0"/>
        <pt x="322" y="139" on="1"/>
        <pt x="289" y="101" on="0"/>
        <pt x="240" y="45" on="0"/>
        <pt x="203" y="7" on="0"/>
        <pt x="174" y="-11" on="0"/>
        <pt x="161" y="-11" on="1"/>
        <pt x="154" y="-11" on="0"/>
        <pt x="145" y="-8" on="1"/>
        <pt x="128" y="-1" on="0"/>
        <pt x="112" y="52" on="0"/>
        <pt x="112" y="91" on="1"/>
        <pt x="112" y="154" on="0"/>
        <pt x="133" y="234" on="1"/>
        <pt x="139" y="255" on="0"/>
        <pt x="156" y="322" on="0"/>
        <pt x="175" y="401" on="0"/>
        <pt x="193" y="489" on="0"/>
        <pt x="208" y="572" on="0"/>
        <pt x="217" y="647" on="0"/>
        <pt x="217" y="674" on="1"/>
        <pt x="217" y="685" on="1"/>
        <pt x="190" y="682" on="0"/>
        <pt x="122" y="653" on="0"/>
        <pt x="62" y="615" on="0"/>
        <pt x="17" y="573" on="0"/>
        <pt x="13" y="557" on="1"/>
        <pt x="-51" y="594" on="1"/>
        <pt x="-35" y="617" on="0"/>
        <pt x="18" y="671" on="0"/>
        <pt x="76" y="718" on="0"/>
        <pt x="132" y="752" on="0"/>
        <pt x="152" y="756" on="1"/>
        <pt x="162" y="758" on="0"/>
        <pt x="167" y="758" on="1"/>
        <pt x="188" y="758" on="0"/>
        <pt x="241" y="742" on="0"/>
        <pt x="287" y="715" on="0"/>
        <pt x="319" y="679" on="0"/>
        <pt x="319" y="660" on="1"/>
        <pt x="319" y="648" on="0"/>
        <pt x="305" y="579" on="0"/>
        <pt x="284" y="482" on="0"/>
        <pt x="258" y="368" on="0"/>
        <pt x="235" y="255" on="0"/>
        <pt x="216" y="154" on="0"/>
        <pt x="213" y="119" on="1"/>
        <pt x="236" y="145" on="0"/>
        <pt x="296" y="217" on="0"/>
        <pt x="352" y="291" on="0"/>
        <pt x="397" y="357" on="0"/>
        <pt x="406" y="378" on="1"/>
        <pt x="410" y="411" on="0"/>
        <pt x="421" y="484" on="0"/>
        <pt x="438" y="552" on="0"/>
        <pt x="463" y="607" on="0"/>
        <pt x="482" y="622" on="1"/>
        <pt x="497" y="633" on="0"/>
        <pt x="517" y="633" on="1"/>
        <pt x="531" y="633" on="0"/>
        <pt x="558" y="623" on="0"/>
        <pt x="580" y="607" on="0"/>
        <pt x="593" y="588" on="0"/>
        <pt x="593" y="580" on="1"/>
        <pt x="593" y="573" on="0"/>
        <pt x="574" y="519" on="0"/>
        <pt x="539" y="441" on="0"/>
        <pt x="492" y="350" on="0"/>
        <pt x="465" y="305" on="1"/>
        <pt x="464" y="295" on="0"/>
        <pt x="464" y="274" on="0"/>
        <pt x="464" y="263" on="1"/>
        <pt x="464" y="235" on="0"/>
        <pt x="466" y="176" on="0"/>
        <pt x="470" y="121" on="0"/>
        <pt x="479" y="73" on="0"/>
        <pt x="485" y="56" on="1"/>
        <pt x="503" y="84" on="0"/>
        <pt x="550" y="179" on="0"/>
        <pt x="603" y="292" on="0"/>
        <pt x="659" y="413" on="0"/>
        <pt x="711" y="523" on="0"/>
        <pt x="756" y="612" on="0"/>
        <pt x="773" y="636" on="1"/>
        <pt x="796" y="666" on="0"/>
        <pt x="826" y="693" on="1"/>
        <pt x="852" y="716" on="0"/>
        <pt x="925" y="762" on="0"/>
        <pt x="972" y="774" on="1"/>
      </contour>
    </TTGlyph>
    <TTGlyph name="X" xMin="5" yMin="-142" xMax="641" yMax="758">
      <contour>
        <pt x="412" y="60" on="1"/>
        <pt x="423" y="29" on="0"/>
        <pt x="462" y="-16" on="0"/>
        <pt x="512" y="-45" on="0"/>
        <pt x="568" y="-59" on="0"/>
        <pt x="596" y="-59" on="1"/>
        <pt x="604" y="-59" on="0"/>
        <pt x="618" y="-58" on="0"/>
        <pt x="626" y="-57" on="1"/>
        <pt x="630" y="-138" on="1"/>
        <pt x="613" y="-140" on="0"/>
        <pt x="585" y="-142" on="0"/>
        <pt x="571" y="-142" on="1"/>
        <pt x="544" y="-142" on="0"/>
        <pt x="502" y="-136" on="0"/>
        <pt x="487" y="-132" on="1"/>
        <pt x="469" y="-128" on="0"/>
        <pt x="456" y="-122" on="1"/>
        <pt x="439" y="-114" on="0"/>
        <pt x="400" y="-63" on="0"/>
        <pt x="361" y="9" on="0"/>
        <pt x="324" y="93" on="0"/>
        <pt x="296" y="175" on="0"/>
        <pt x="280" y="248" on="0"/>
        <pt x="280" y="272" on="1"/>
        <pt x="250" y="236" on="0"/>
        <pt x="186" y="147" on="0"/>
        <pt x="132" y="65" on="0"/>
        <pt x="97" y="-1" on="0"/>
        <pt x="96" y="-16" on="1"/>
        <pt x="16" y="23" on="1"/>
        <pt x="25" y="42" on="0"/>
        <pt x="61" y="100" on="0"/>
        <pt x="108" y="169" on="0"/>
        <pt x="163" y="244" on="0"/>
        <pt x="216" y="315" on="0"/>
        <pt x="265" y="377" on="0"/>
        <pt x="283" y="398" on="1"/>
        <pt x="284" y="413" on="0"/>
        <pt x="284" y="443" on="0"/>
        <pt x="284" y="459" on="1"/>
        <pt x="284" y="497" on="0"/>
        <pt x="280" y="571" on="0"/>
        <pt x="271" y="631" on="0"/>
        <pt x="256" y="672" on="0"/>
        <pt x="244" y="677" on="1"/>
        <pt x="243" y="677" on="0"/>
        <pt x="241" y="678" on="1"/>
        <pt x="239" y="678" on="0"/>
        <pt x="235" y="679" on="0"/>
        <pt x="232" y="679" on="1"/>
        <pt x="224" y="679" on="0"/>
        <pt x="195" y="671" on="0"/>
        <pt x="153" y="647" on="0"/>
        <pt x="98" y="601" on="0"/>
        <pt x="63" y="563" on="1"/>
        <pt x="5" y="621" on="1"/>
        <pt x="30" y="645" on="0"/>
        <pt x="87" y="693" on="0"/>
        <pt x="142" y="731" on="0"/>
        <pt x="190" y="755" on="0"/>
        <pt x="206" y="757" on="1"/>
        <pt x="208" y="758" on="0"/>
        <pt x="213" y="758" on="1"/>
        <pt x="230" y="758" on="0"/>
        <pt x="275" y="745" on="0"/>
        <pt x="315" y="724" on="0"/>
        <pt x="344" y="696" on="0"/>
        <pt x="346" y="681" on="1"/>
        <pt x="347" y="675" on="0"/>
        <pt x="349" y="640" on="0"/>
        <pt x="353" y="587" on="0"/>
        <pt x="357" y="520" on="0"/>
        <pt x="360" y="482" on="1"/>
        <pt x="388" y="513" on="0"/>
        <pt x="455" y="590" on="0"/>
        <pt x="516" y="665" on="0"/>
        <pt x="564" y="729" on="0"/>
        <pt x="573" y="746" on="1"/>
        <pt x="641" y="709" on="1"/>
        <pt x="635" y="701" on="0"/>
        <pt x="602" y="656" on="0"/>
        <pt x="555" y="594" on="0"/>
        <pt x="499" y="522" on="0"/>
        <pt x="443" y="451" on="0"/>
        <pt x="389" y="388" on="0"/>
        <pt x="369" y="367" on="1"/>
        <pt x="373" y="318" on="0"/>
        <pt x="383" y="223" on="0"/>
        <pt x="393" y="140" on="0"/>
        <pt x="405" y="77" on="0"/>
      </contour>
    </TTGlyph>
    <TTGlyph name="Y" xMin="-5" yMin="-395" xMax="705" yMax="759">
      <contour>
        <pt x="230" y="-264" on="1"/>
        <pt x="243" y="-252" on="0"/>
        <pt x="275" y="-197" on="0"/>
        <pt x="308" y="-126" on="0"/>
        <pt x="340" y="-47" on="0"/>
        <pt x="367" y="24" on="0"/>
        <pt x="385" y="79" on="0"/>
        <pt x="387" y="90" on="1"/>
        <pt x="369" y="56" on="0"/>
        <pt x="319" y="-42" on="0"/>
        <pt x="271" y="-144" on="0"/>
        <pt x="234" y="-236" on="0"/>
      </contour>
      <contour>
        <pt x="487" y="234" on="1"/>
        <pt x="532" y="249" on="0"/>
        <pt x="572" y="263" on="1"/>
        <pt x="606" y="275" on="0"/>
        <pt x="674" y="299" on="0"/>
        <pt x="692" y="306" on="1"/>
        <pt x="705" y="242" on="1"/>
        <pt x="681" y="233" on="0"/>
        <pt x="603" y="205" on="0"/>
        <pt x="565" y="191" on="1"/>
        <pt x="521" y="175" on="0"/>
        <pt x="473" y="159" on="1"/>
        <pt x="451" y="58" on="0"/>
        <pt x="387" y="-122" on="0"/>
        <pt x="323" y="-261" on="0"/>
        <pt x="269" y="-352" on="0"/>
        <pt x="257" y="-365" on="1"/>
        <pt x="241" y="-381" on="0"/>
        <pt x="204" y="-395" on="0"/>
        <pt x="186" y="-395" on="1"/>
        <pt x="155" y="-395" on="0"/>
        <pt x="109" y="-356" on="0"/>
        <pt x="109" y="-324" on="1"/>
        <pt x="109" y="-314" on="0"/>
        <pt x="110" y="-310" on="1"/>
        <pt x="113" y="-289" on="0"/>
        <pt x="146" y="-208" on="0"/>
        <pt x="193" y="-109" on="0"/>
        <pt x="248" y="-2" on="0"/>
        <pt x="273" y="45" on="1"/>
        <pt x="253" y="26" on="0"/>
        <pt x="200" y="5" on="0"/>
        <pt x="174" y="5" on="1"/>
        <pt x="157" y="5" on="0"/>
        <pt x="141" y="9" on="1"/>
        <pt x="125" y="15" on="0"/>
        <pt x="98" y="51" on="0"/>
        <pt x="79" y="101" on="0"/>
        <pt x="68" y="158" on="0"/>
        <pt x="68" y="185" on="1"/>
        <pt x="68" y="208" on="0"/>
        <pt x="72" y="224" on="1"/>
        <pt x="75" y="240" on="0"/>
        <pt x="98" y="305" on="0"/>
        <pt x="129" y="388" on="0"/>
        <pt x="164" y="483" on="0"/>
        <pt x="194" y="574" on="0"/>
        <pt x="214" y="653" on="0"/>
        <pt x="216" y="680" on="1"/>
        <pt x="196" y="679" on="0"/>
        <pt x="144" y="653" on="0"/>
        <pt x="93" y="619" on="0"/>
        <pt x="51" y="582" on="0"/>
        <pt x="41" y="569" on="1"/>
        <pt x="-5" y="618" on="1"/>
        <pt x="59" y="675" on="0"/>
        <pt x="150" y="754" on="0"/>
        <pt x="182" y="759" on="1"/>
        <pt x="190" y="759" on="1"/>
        <pt x="206" y="759" on="0"/>
        <pt x="246" y="747" on="0"/>
        <pt x="282" y="726" on="0"/>
        <pt x="306" y="699" on="0"/>
        <pt x="306" y="685" on="1"/>
        <pt x="306" y="684" on="0"/>
        <pt x="305" y="683" on="1"/>
        <pt x="304" y="673" on="0"/>
        <pt x="282" y="598" on="0"/>
        <pt x="250" y="496" on="0"/>
        <pt x="212" y="379" on="0"/>
        <pt x="181" y="273" on="0"/>
        <pt x="160" y="192" on="0"/>
        <pt x="160" y="177" on="1"/>
        <pt x="160" y="175" on="1"/>
        <pt x="160" y="141" on="0"/>
        <pt x="184" y="97" on="0"/>
        <pt x="206" y="97" on="1"/>
        <pt x="215" y="97" on="0"/>
        <pt x="224" y="101" on="1"/>
        <pt x="231" y="104" on="0"/>
        <pt x="259" y="116" on="0"/>
        <pt x="298" y="142" on="0"/>
        <pt x="344" y="187" on="0"/>
        <pt x="368" y="223" on="1"/>
        <pt x="387" y="253" on="0"/>
        <pt x="431" y="350" on="0"/>
        <pt x="474" y="461" on="0"/>
        <pt x="513" y="576" on="0"/>
        <pt x="544" y="673" on="0"/>
        <pt x="564" y="740" on="0"/>
        <pt x="566" y="748" on="1"/>
        <pt x="673" y="742" on="1"/>
        <pt x="667" y="722" on="0"/>
        <pt x="620" y="622" on="0"/>
        <pt x="561" y="484" on="0"/>
        <pt x="503" y="319" on="0"/>
      </contour>
    </TTGlyph>
    <TTGlyph name="Yacute" xMin="-5" yMin="-395" xMax="705" yMax="958">
      <component glyphName="Y" x="0" y="0" flags="0x204"/>
      <component glyphName="acute" x="338" y="195" flags="0x4"/>
    </TTGlyph>
    <TTGlyph name="Ydieresis" xMin="-5" yMin="-395" xMax="705" yMax="929">
      <component glyphName="Y" x="0" y="0" flags="0x204"/>
      <component glyphName="dieresis" x="234" y="175" flags="0x4"/>
    </TTGlyph>
    <TTGlyph name="Z" xMin="20" yMin="-396" xMax="668" yMax="763">
      <contour>
        <pt x="218" y="-257" on="1"/>
        <pt x="227" y="-252" on="0"/>
        <pt x="253" y="-214" on="0"/>
        <pt x="283" y="-162" on="0"/>
        <pt x="311" y="-105" on="0"/>
        <pt x="322" y="-81" on="1"/>
        <pt x="336" y="-49" on="0"/>
        <pt x="361" y="11" on="0"/>
        <pt x="371" y="38" on="1"/>
        <pt x="337" y="-10" on="0"/>
        <pt x="279" y="-112" on="0"/>
        <pt x="256" y="-160" on="1"/>
        <pt x="241" y="-192" on="0"/>
        <pt x="218" y="-244" on="0"/>
      </contour>
      <contour>
        <pt x="171" y="142" on="1"/>
        <pt x="184" y="150" on="0"/>
        <pt x="213" y="170" on="0"/>
        <pt x="237" y="192" on="0"/>
        <pt x="255" y="213" on="0"/>
        <pt x="258" y="222" on="1"/>
        <pt x="214" y="203" on="0"/>
        <pt x="141" y="154" on="0"/>
        <pt x="127" y="128" on="1"/>
        <pt x="133" y="128" on="0"/>
        <pt x="136" y="129" on="1"/>
        <pt x="135" y="128" on="0"/>
        <pt x="135" y="127" on="1"/>
        <pt x="149" y="129" on="0"/>
      </contour>
      <contour>
        <pt x="656" y="231" on="1"/>
        <pt x="646" y="227" on="0"/>
        <pt x="599" y="215" on="0"/>
        <pt x="546" y="200" on="0"/>
        <pt x="497" y="182" on="0"/>
        <pt x="484" y="172" on="1"/>
        <pt x="484" y="160" on="0"/>
        <pt x="480" y="128" on="0"/>
        <pt x="474" y="94" on="0"/>
        <pt x="466" y="60" on="0"/>
        <pt x="462" y="45" on="1"/>
        <pt x="449" y="-2" on="0"/>
        <pt x="410" y="-102" on="0"/>
        <pt x="366" y="-198" on="0"/>
        <pt x="318" y="-285" on="0"/>
        <pt x="273" y="-351" on="0"/>
        <pt x="234" y="-393" on="0"/>
        <pt x="220" y="-395" on="1"/>
        <pt x="216" y="-396" on="0"/>
        <pt x="208" y="-396" on="1"/>
        <pt x="191" y="-396" on="0"/>
        <pt x="167" y="-378" on="0"/>
        <pt x="152" y="-349" on="0"/>
        <pt x="145" y="-311" on="0"/>
        <pt x="145" y="-290" on="1"/>
        <pt x="145" y="-262" on="0"/>
        <pt x="155" y="-209" on="0"/>
        <pt x="163" y="-189" on="1"/>
        <pt x="211" y="-74" on="0"/>
        <pt x="324" y="123" on="0"/>
        <pt x="400" y="196" on="1"/>
        <pt x="395" y="205" on="0"/>
        <pt x="383" y="205" on="1"/>
        <pt x="380" y="205" on="1"/>
        <pt x="374" y="204" on="0"/>
        <pt x="357" y="202" on="0"/>
        <pt x="346" y="200" on="1"/>
        <pt x="335" y="180" on="0"/>
        <pt x="312" y="149" on="0"/>
        <pt x="301" y="137" on="1"/>
        <pt x="255" y="89" on="0"/>
        <pt x="161" y="45" on="0"/>
        <pt x="126" y="45" on="1"/>
        <pt x="84" y="45" on="0"/>
        <pt x="68" y="70" on="1"/>
        <pt x="54" y="87" on="0"/>
        <pt x="54" y="109" on="1"/>
        <pt x="54" y="144" on="0"/>
        <pt x="119" y="213" on="0"/>
        <pt x="168" y="241" on="1"/>
        <pt x="194" y="255" on="0"/>
        <pt x="261" y="276" on="0"/>
        <pt x="296" y="282" on="1"/>
        <pt x="317" y="316" on="0"/>
        <pt x="356" y="397" on="0"/>
        <pt x="388" y="479" on="0"/>
        <pt x="407" y="557" on="0"/>
        <pt x="407" y="588" on="1"/>
        <pt x="407" y="590" on="0"/>
        <pt x="406" y="596" on="0"/>
        <pt x="406" y="598" on="1"/>
        <pt x="403" y="632" on="0"/>
        <pt x="382" y="677" on="0"/>
        <pt x="371" y="691" on="1"/>
        <pt x="330" y="678" on="0"/>
        <pt x="241" y="632" on="0"/>
        <pt x="165" y="579" on="0"/>
        <pt x="108" y="525" on="0"/>
        <pt x="99" y="506" on="1"/>
        <pt x="20" y="547" on="1"/>
        <pt x="32" y="564" on="0"/>
        <pt x="74" y="608" on="0"/>
        <pt x="126" y="654" on="0"/>
        <pt x="185" y="699" on="0"/>
        <pt x="241" y="736" on="0"/>
        <pt x="289" y="760" on="0"/>
        <pt x="306" y="762" on="1"/>
        <pt x="310" y="762" on="0"/>
        <pt x="318" y="763" on="0"/>
        <pt x="323" y="763" on="1"/>
        <pt x="349" y="763" on="0"/>
        <pt x="416" y="745" on="0"/>
        <pt x="476" y="715" on="0"/>
        <pt x="518" y="674" on="0"/>
        <pt x="520" y="651" on="1"/>
        <pt x="520" y="647" on="1"/>
        <pt x="520" y="628" on="0"/>
        <pt x="500" y="550" on="0"/>
        <pt x="465" y="451" on="0"/>
        <pt x="419" y="340" on="0"/>
        <pt x="394" y="288" on="1"/>
        <pt x="414" y="286" on="0"/>
        <pt x="446" y="276" on="0"/>
        <pt x="457" y="267" on="1"/>
        <pt x="463" y="261" on="0"/>
        <pt x="467" y="249" on="1"/>
        <pt x="478" y="256" on="0"/>
        <pt x="534" y="274" on="0"/>
        <pt x="597" y="291" on="0"/>
        <pt x="654" y="306" on="0"/>
        <pt x="668" y="311" on="1"/>
      </contour>
    </TTGlyph>
    <TTGlyph name="Zcaron" xMin="20" yMin="-396" xMax="668" yMax="976">
      <component glyphName="Z" x="0" y="0" flags="0x204"/>
      <component glyphName="caron" x="157" y="188" flags="0x4"/>
    </TTGlyph>
    <TTGlyph name="a" xMin="0" yMin="-34" xMax="566" yMax="505">
      <contour>
        <pt x="115" y="60" on="1"/>
        <pt x="126" y="60" on="0"/>
        <pt x="162" y="83" on="0"/>
        <pt x="204" y="121" on="0"/>
        <pt x="249" y="169" on="0"/>
        <pt x="270" y="193" on="1"/>
        <pt x="281" y="228" on="0"/>
        <pt x="316" y="329" on="0"/>
        <pt x="338" y="388" on="1"/>
        <pt x="324" y="361" on="1"/>
        <pt x="321" y="376" on="0"/>
        <pt x="307" y="402" on="0"/>
        <pt x="289" y="423" on="0"/>
        <pt x="270" y="435" on="0"/>
        <pt x="263" y="435" on="1"/>
        <pt x="258" y="435" on="0"/>
        <pt x="256" y="433" on="1"/>
        <pt x="252" y="430" on="0"/>
        <pt x="225" y="399" on="0"/>
        <pt x="188" y="353" on="0"/>
        <pt x="147" y="297" on="0"/>
        <pt x="112" y="243" on="0"/>
        <pt x="86" y="196" on="0"/>
        <pt x="84" y="182" on="1"/>
        <pt x="82" y="168" on="0"/>
        <pt x="78" y="139" on="0"/>
        <pt x="78" y="125" on="1"/>
        <pt x="78" y="99" on="0"/>
        <pt x="93" y="61" on="0"/>
        <pt x="113" y="60" on="1"/>
      </contour>
      <contour>
        <pt x="566" y="127" on="1"/>
        <pt x="553" y="112" on="0"/>
        <pt x="505" y="58" on="0"/>
        <pt x="450" y="5" on="0"/>
        <pt x="395" y="-34" on="0"/>
        <pt x="376" y="-34" on="1"/>
        <pt x="374" y="-34" on="1"/>
        <pt x="355" y="-34" on="0"/>
        <pt x="311" y="-24" on="0"/>
        <pt x="274" y="-7" on="0"/>
        <pt x="249" y="16" on="0"/>
        <pt x="249" y="30" on="1"/>
        <pt x="249" y="31" on="1"/>
        <pt x="249" y="41" on="0"/>
        <pt x="251" y="68" on="0"/>
        <pt x="252" y="83" on="1"/>
        <pt x="209" y="41" on="0"/>
        <pt x="124" y="-15" on="0"/>
        <pt x="92" y="-15" on="1"/>
        <pt x="84" y="-15" on="0"/>
        <pt x="81" y="-14" on="1"/>
        <pt x="63" y="-11" on="0"/>
        <pt x="33" y="18" on="0"/>
        <pt x="12" y="61" on="0"/>
        <pt x="0" y="113" on="0"/>
        <pt x="0" y="139" on="1"/>
        <pt x="0" y="177" on="0"/>
        <pt x="12" y="210" on="1"/>
        <pt x="20" y="231" on="0"/>
        <pt x="50" y="289" on="0"/>
        <pt x="89" y="353" on="0"/>
        <pt x="134" y="416" on="0"/>
        <pt x="179" y="468" on="0"/>
        <pt x="223" y="501" on="0"/>
        <pt x="242" y="504" on="1"/>
        <pt x="247" y="505" on="0"/>
        <pt x="255" y="505" on="0"/>
        <pt x="259" y="505" on="1"/>
        <pt x="280" y="505" on="0"/>
        <pt x="313" y="493" on="0"/>
        <pt x="338" y="474" on="0"/>
        <pt x="354" y="452" on="0"/>
        <pt x="358" y="443" on="1"/>
        <pt x="361" y="455" on="0"/>
        <pt x="365" y="462" on="1"/>
        <pt x="430" y="452" on="1"/>
        <pt x="403" y="384" on="0"/>
        <pt x="357" y="245" on="0"/>
        <pt x="344" y="182" on="1"/>
        <pt x="345" y="179" on="1"/>
        <pt x="343" y="177" on="1"/>
        <pt x="337" y="147" on="0"/>
        <pt x="330" y="93" on="0"/>
        <pt x="330" y="70" on="1"/>
        <pt x="330" y="59" on="0"/>
        <pt x="331" y="43" on="0"/>
        <pt x="332" y="35" on="1"/>
        <pt x="357" y="44" on="0"/>
        <pt x="420" y="80" on="0"/>
        <pt x="481" y="124" on="0"/>
        <pt x="535" y="171" on="0"/>
        <pt x="552" y="189" on="1"/>
      </contour>
    </TTGlyph>
    <TTGlyph name="aacute" xMin="0" yMin="-34" xMax="566" yMax="708">
      <component glyphName="a" x="0" y="0" flags="0x204"/>
      <component glyphName="acute" x="233" y="-55" flags="0x4"/>
    </TTGlyph>
    <TTGlyph name="acircumflex" xMin="0" yMin="-34" xMax="566" yMax="724">
      <component glyphName="a" x="0" y="0" flags="0x204"/>
      <component glyphName="circumflex" x="128" y="-64" flags="0x4"/>
    </TTGlyph>
    <TTGlyph name="acute" xMin="31" yMin="591" xMax="230" yMax="763">
      <contour>
        <pt x="31" y="640" on="1"/>
        <pt x="42" y="652" on="0"/>
        <pt x="62" y="670" on="1"/>
        <pt x="79" y="685" on="0"/>
        <pt x="137" y="731" on="0"/>
        <pt x="181" y="763" on="1"/>
        <pt x="230" y="689" on="1"/>
        <pt x="216" y="683" on="0"/>
        <pt x="196" y="671" on="1"/>
        <pt x="179" y="660" on="0"/>
        <pt x="124" y="622" on="0"/>
        <pt x="86" y="591" on="1"/>
      </contour>
    </TTGlyph>
    <TTGlyph name="adieresis" xMin="0" yMin="-34" xMax="566" yMax="679">
      <component glyphName="a" x="0" y="0" flags="0x204"/>
      <component glyphName="dieresis" x="116" y="-75" flags="0x4"/>
    </TTGlyph>
    <TTGlyph name="ae" xMin="0" yMin="-33" xMax="699" yMax="505">
      <contour>
        <pt x="113" y="60" on="1"/>
        <pt x="114" y="60" on="0"/>
        <pt x="114" y="59" on="0"/>
        <pt x="115" y="59" on="1"/>
        <pt x="127" y="59" on="0"/>
        <pt x="161" y="79" on="0"/>
        <pt x="203" y="112" on="0"/>
        <pt x="249" y="157" on="0"/>
        <pt x="272" y="182" on="1"/>
        <pt x="283" y="212" on="0"/>
        <pt x="323" y="298" on="0"/>
        <pt x="342" y="348" on="1"/>
        <pt x="342" y="360" on="1"/>
        <pt x="340" y="375" on="0"/>
        <pt x="322" y="403" on="0"/>
        <pt x="298" y="423" on="0"/>
        <pt x="273" y="435" on="0"/>
        <pt x="264" y="435" on="1"/>
        <pt x="258" y="435" on="0"/>
        <pt x="256" y="433" on="1"/>
        <pt x="252" y="430" on="0"/>
        <pt x="225" y="399" on="0"/>
        <pt x="188" y="353" on="0"/>
        <pt x="147" y="297" on="0"/>
        <pt x="112" y="243" on="0"/>
        <pt x="86" y="196" on="0"/>
        <pt x="84" y="182" on="1"/>
        <pt x="82" y="168" on="0"/>
        <pt x="78" y="139" on="0"/>
        <pt x="78" y="125" on="1"/>
        <pt x="78" y="99" on="0"/>
        <pt x="93" y="61" on="0"/>
      </contour>
      <contour>
        <pt x="499" y="413" on="1"/>
        <pt x="491" y="413" on="0"/>
        <pt x="464" y="389" on="0"/>
        <pt x="433" y="350" on="0"/>
        <pt x="400" y="298" on="0"/>
        <pt x="386" y="270" on="1"/>
        <pt x="381" y="260" on="0"/>
        <pt x="373" y="240" on="0"/>
        <pt x="369" y="229" on="1"/>
        <pt x="395" y="234" on="0"/>
        <pt x="451" y="249" on="0"/>
        <pt x="465" y="258" on="1"/>
        <pt x="472" y="263" on="0"/>
        <pt x="490" y="293" on="0"/>
        <pt x="504" y="330" on="0"/>
        <pt x="514" y="371" on="0"/>
        <pt x="514" y="386" on="1"/>
        <pt x="514" y="397" on="0"/>
        <pt x="508" y="413" on="0"/>
        <pt x="500" y="413" on="1"/>
      </contour>
      <contour>
        <pt x="699" y="118" on="1"/>
        <pt x="673" y="99" on="0"/>
        <pt x="599" y="48" on="0"/>
        <pt x="529" y="2" on="0"/>
        <pt x="474" y="-31" on="0"/>
        <pt x="467" y="-32" on="1"/>
        <pt x="464" y="-33" on="0"/>
        <pt x="458" y="-33" on="1"/>
        <pt x="442" y="-33" on="0"/>
        <pt x="387" y="-16" on="0"/>
        <pt x="331" y="9" on="0"/>
        <pt x="284" y="38" on="0"/>
        <pt x="276" y="51" on="1"/>
        <pt x="268" y="64" on="0"/>
        <pt x="266" y="95" on="1"/>
        <pt x="244" y="75" on="0"/>
        <pt x="195" y="35" on="0"/>
        <pt x="148" y="4" on="0"/>
        <pt x="105" y="-15" on="0"/>
        <pt x="89" y="-15" on="1"/>
        <pt x="84" y="-15" on="0"/>
        <pt x="81" y="-14" on="1"/>
        <pt x="63" y="-11" on="0"/>
        <pt x="33" y="16" on="0"/>
        <pt x="12" y="56" on="0"/>
        <pt x="0" y="105" on="0"/>
        <pt x="0" y="131" on="1"/>
        <pt x="0" y="167" on="0"/>
        <pt x="12" y="200" on="1"/>
        <pt x="20" y="221" on="0"/>
        <pt x="52" y="281" on="0"/>
        <pt x="93" y="346" on="0"/>
        <pt x="140" y="412" on="0"/>
        <pt x="188" y="466" on="0"/>
        <pt x="233" y="501" on="0"/>
        <pt x="252" y="504" on="1"/>
        <pt x="257" y="505" on="0"/>
        <pt x="265" y="505" on="0"/>
        <pt x="269" y="505" on="1"/>
        <pt x="290" y="505" on="0"/>
        <pt x="320" y="493" on="0"/>
        <pt x="341" y="474" on="0"/>
        <pt x="354" y="452" on="0"/>
        <pt x="358" y="443" on="1"/>
        <pt x="360" y="440" on="0"/>
        <pt x="372" y="406" on="0"/>
        <pt x="377" y="385" on="1"/>
        <pt x="395" y="404" on="0"/>
        <pt x="432" y="440" on="0"/>
        <pt x="467" y="468" on="0"/>
        <pt x="499" y="486" on="0"/>
        <pt x="512" y="487" on="1"/>
        <pt x="513" y="487" on="0"/>
        <pt x="514" y="488" on="0"/>
        <pt x="515" y="488" on="1"/>
        <pt x="532" y="488" on="0"/>
        <pt x="564" y="460" on="0"/>
        <pt x="588" y="420" on="0"/>
        <pt x="603" y="375" on="0"/>
        <pt x="603" y="357" on="1"/>
        <pt x="603" y="348" on="0"/>
        <pt x="601" y="344" on="1"/>
        <pt x="597" y="328" on="0"/>
        <pt x="569" y="281" on="0"/>
        <pt x="536" y="236" on="0"/>
        <pt x="505" y="201" on="0"/>
        <pt x="497" y="195" on="1"/>
        <pt x="490" y="190" on="0"/>
        <pt x="459" y="181" on="0"/>
        <pt x="419" y="172" on="0"/>
        <pt x="372" y="164" on="0"/>
        <pt x="350" y="161" on="1"/>
        <pt x="345" y="141" on="0"/>
        <pt x="342" y="112" on="0"/>
        <pt x="340" y="106" on="1"/>
        <pt x="342" y="95" on="0"/>
        <pt x="363" y="73" on="0"/>
        <pt x="393" y="55" on="0"/>
        <pt x="430" y="44" on="0"/>
        <pt x="449" y="44" on="1"/>
        <pt x="454" y="44" on="0"/>
        <pt x="461" y="44" on="0"/>
        <pt x="466" y="45" on="1"/>
        <pt x="484" y="50" on="0"/>
        <pt x="538" y="82" on="0"/>
        <pt x="595" y="124" on="0"/>
        <pt x="648" y="170" on="0"/>
        <pt x="664" y="189" on="1"/>
      </contour>
    </TTGlyph>
    <TTGlyph name="agrave" xMin="0" yMin="-34" xMax="566" yMax="732">
      <component glyphName="a" x="0" y="0" flags="0x204"/>
      <component glyphName="grave" x="85" y="-41" flags="0x4"/>
    </TTGlyph>
    <TTGlyph name="ampersand" xMin="20" yMin="-42" xMax="594" yMax="750">
      <contour>
        <pt x="239" y="95" on="1"/>
        <pt x="258" y="103" on="0"/>
        <pt x="317" y="139" on="0"/>
        <pt x="352" y="160" on="1"/>
        <pt x="323" y="210" on="0"/>
        <pt x="265" y="311" on="0"/>
        <pt x="245" y="356" on="1"/>
        <pt x="190" y="314" on="0"/>
        <pt x="108" y="238" on="0"/>
        <pt x="100" y="209" on="1"/>
        <pt x="97" y="194" on="0"/>
        <pt x="97" y="181" on="1"/>
        <pt x="97" y="137" on="0"/>
        <pt x="154" y="85" on="0"/>
        <pt x="193" y="85" on="1"/>
        <pt x="216" y="85" on="0"/>
      </contour>
      <contour>
        <pt x="313" y="603" on="1"/>
        <pt x="303" y="576" on="0"/>
        <pt x="295" y="525" on="0"/>
        <pt x="295" y="502" on="1"/>
        <pt x="295" y="496" on="0"/>
        <pt x="295" y="482" on="0"/>
        <pt x="296" y="476" on="1"/>
        <pt x="318" y="495" on="0"/>
        <pt x="356" y="530" on="0"/>
        <pt x="373" y="547" on="1"/>
        <pt x="393" y="570" on="0"/>
        <pt x="418" y="615" on="0"/>
        <pt x="418" y="634" on="1"/>
        <pt x="418" y="651" on="0"/>
        <pt x="404" y="662" on="1"/>
        <pt x="388" y="673" on="0"/>
        <pt x="376" y="673" on="1"/>
        <pt x="340" y="673" on="0"/>
      </contour>
      <contour>
        <pt x="458" y="140" on="1"/>
        <pt x="487" y="92" on="0"/>
        <pt x="534" y="24" on="0"/>
        <pt x="547" y="16" on="1"/>
        <pt x="484" y="-42" on="1"/>
        <pt x="474" y="-29" on="0"/>
        <pt x="421" y="49" on="0"/>
        <pt x="388" y="102" on="1"/>
        <pt x="347" y="81" on="0"/>
        <pt x="264" y="42" on="0"/>
        <pt x="191" y="13" on="0"/>
        <pt x="132" y="-5" on="0"/>
        <pt x="115" y="-5" on="1"/>
        <pt x="110" y="-5" on="0"/>
        <pt x="108" y="-4" on="1"/>
        <pt x="90" y="-1" on="0"/>
        <pt x="58" y="37" on="0"/>
        <pt x="34" y="94" on="0"/>
        <pt x="20" y="162" on="0"/>
        <pt x="20" y="194" on="1"/>
        <pt x="20" y="223" on="0"/>
        <pt x="34" y="272" on="0"/>
        <pt x="49" y="289" on="1"/>
        <pt x="68" y="308" on="0"/>
        <pt x="163" y="375" on="0"/>
        <pt x="218" y="417" on="1"/>
        <pt x="214" y="428" on="0"/>
        <pt x="209" y="447" on="0"/>
        <pt x="207" y="456" on="1"/>
        <pt x="206" y="461" on="0"/>
        <pt x="205" y="473" on="0"/>
        <pt x="205" y="479" on="1"/>
        <pt x="205" y="521" on="0"/>
        <pt x="247" y="616" on="0"/>
        <pt x="306" y="697" on="0"/>
        <pt x="372" y="750" on="0"/>
        <pt x="396" y="750" on="1"/>
        <pt x="398" y="750" on="0"/>
        <pt x="399" y="749" on="1"/>
        <pt x="418" y="747" on="0"/>
        <pt x="449" y="725" on="0"/>
        <pt x="471" y="691" on="0"/>
        <pt x="482" y="647" on="0"/>
        <pt x="482" y="623" on="1"/>
        <pt x="482" y="607" on="0"/>
        <pt x="477" y="576" on="0"/>
        <pt x="472" y="560" on="1"/>
        <pt x="467" y="546" on="0"/>
        <pt x="438" y="511" on="0"/>
        <pt x="396" y="473" on="0"/>
        <pt x="342" y="431" on="0"/>
        <pt x="314" y="409" on="1"/>
        <pt x="329" y="373" on="0"/>
        <pt x="388" y="261" on="0"/>
        <pt x="421" y="203" on="1"/>
        <pt x="441" y="216" on="0"/>
        <pt x="464" y="231" on="1"/>
        <pt x="483" y="244" on="0"/>
        <pt x="531" y="275" on="0"/>
        <pt x="554" y="291" on="1"/>
        <pt x="594" y="228" on="1"/>
        <pt x="574" y="211" on="0"/>
        <pt x="503" y="166" on="0"/>
      </contour>
    </TTGlyph>
    <TTGlyph name="aring" xMin="0" yMin="-34" xMax="566" yMax="742">
      <component glyphName="a" x="0" y="0" flags="0x204"/>
      <component glyphName="ring" x="209" y="-55" flags="0x4"/>
    </TTGlyph>
    <TTGlyph name="asciicircum" xMin="10" yMin="344" xMax="396" yMax="741">
      <contour>
        <pt x="326" y="344" on="1"/>
        <pt x="314" y="382" on="0"/>
        <pt x="290" y="456" on="0"/>
        <pt x="271" y="532" on="0"/>
        <pt x="257" y="611" on="0"/>
        <pt x="255" y="655" on="1"/>
        <pt x="226" y="622" on="0"/>
        <pt x="169" y="541" on="0"/>
        <pt x="122" y="463" on="0"/>
        <pt x="92" y="394" on="0"/>
        <pt x="89" y="372" on="1"/>
        <pt x="10" y="411" on="1"/>
        <pt x="20" y="429" on="0"/>
        <pt x="63" y="509" on="0"/>
        <pt x="118" y="606" on="0"/>
        <pt x="181" y="705" on="0"/>
        <pt x="211" y="741" on="1"/>
        <pt x="293" y="738" on="1"/>
        <pt x="311" y="695" on="0"/>
        <pt x="335" y="583" on="0"/>
        <pt x="356" y="478" on="0"/>
        <pt x="379" y="395" on="0"/>
        <pt x="396" y="380" on="1"/>
      </contour>
    </TTGlyph>
    <TTGlyph name="asciitilde" xMin="31" yMin="222" xMax="620" yMax="422">
      <contour>
        <pt x="31" y="335" on="1"/>
        <pt x="50" y="357" on="0"/>
        <pt x="98" y="390" on="0"/>
        <pt x="151" y="411" on="0"/>
        <pt x="205" y="422" on="0"/>
        <pt x="229" y="422" on="1"/>
        <pt x="254" y="422" on="0"/>
        <pt x="270" y="418" on="1"/>
        <pt x="296" y="412" on="0"/>
        <pt x="322" y="379" on="0"/>
        <pt x="343" y="341" on="0"/>
        <pt x="367" y="309" on="0"/>
        <pt x="391" y="303" on="1"/>
        <pt x="392" y="302" on="0"/>
        <pt x="393" y="302" on="1"/>
        <pt x="399" y="302" on="1"/>
        <pt x="407" y="302" on="0"/>
        <pt x="435" y="308" on="0"/>
        <pt x="474" y="328" on="0"/>
        <pt x="524" y="366" on="0"/>
        <pt x="554" y="398" on="1"/>
        <pt x="620" y="336" on="1"/>
        <pt x="557" y="293" on="0"/>
        <pt x="465" y="247" on="0"/>
        <pt x="435" y="236" on="1"/>
        <pt x="399" y="224" on="0"/>
        <pt x="375" y="222" on="1"/>
        <pt x="346" y="222" on="0"/>
        <pt x="313" y="247" on="0"/>
        <pt x="287" y="282" on="0"/>
        <pt x="256" y="317" on="0"/>
        <pt x="229" y="327" on="1"/>
        <pt x="224" y="328" on="0"/>
        <pt x="219" y="329" on="1"/>
        <pt x="214" y="330" on="0"/>
        <pt x="201" y="332" on="0"/>
        <pt x="193" y="332" on="1"/>
        <pt x="170" y="332" on="0"/>
        <pt x="106" y="314" on="0"/>
        <pt x="68" y="285" on="1"/>
      </contour>
    </TTGlyph>
    <TTGlyph name="asterisk" xMin="31" yMin="484" xMax="323" yMax="774">
      <contour>
        <pt x="31" y="616" on="1"/>
        <pt x="54" y="630" on="0"/>
        <pt x="103" y="651" on="0"/>
        <pt x="119" y="651" on="1"/>
        <pt x="120" y="651" on="0"/>
        <pt x="121" y="650" on="0"/>
        <pt x="123" y="650" on="1"/>
        <pt x="114" y="657" on="0"/>
        <pt x="105" y="669" on="1"/>
        <pt x="97" y="680" on="0"/>
        <pt x="80" y="713" on="0"/>
        <pt x="72" y="737" on="1"/>
        <pt x="141" y="774" on="1"/>
        <pt x="145" y="764" on="0"/>
        <pt x="151" y="748" on="1"/>
        <pt x="156" y="734" on="0"/>
        <pt x="170" y="693" on="0"/>
        <pt x="180" y="665" on="1"/>
        <pt x="246" y="745" on="1"/>
        <pt x="284" y="700" on="1"/>
        <pt x="224" y="641" on="1"/>
        <pt x="227" y="641" on="0"/>
        <pt x="231" y="642" on="1"/>
        <pt x="241" y="644" on="0"/>
        <pt x="254" y="644" on="1"/>
        <pt x="266" y="644" on="0"/>
        <pt x="301" y="639" on="0"/>
        <pt x="323" y="631" on="1"/>
        <pt x="306" y="575" on="1"/>
        <pt x="221" y="595" on="1"/>
        <pt x="226" y="585" on="0"/>
        <pt x="235" y="574" on="1"/>
        <pt x="243" y="565" on="0"/>
        <pt x="264" y="543" on="0"/>
        <pt x="280" y="532" on="1"/>
        <pt x="228" y="499" on="1"/>
        <pt x="180" y="575" on="1"/>
        <pt x="177" y="567" on="0"/>
        <pt x="171" y="554" on="1"/>
        <pt x="166" y="543" on="0"/>
        <pt x="148" y="508" on="0"/>
        <pt x="134" y="484" on="1"/>
        <pt x="72" y="515" on="1"/>
        <pt x="78" y="526" on="0"/>
        <pt x="88" y="539" on="1"/>
        <pt x="96" y="550" on="0"/>
        <pt x="124" y="582" on="0"/>
        <pt x="144" y="602" on="1"/>
        <pt x="118" y="597" on="0"/>
        <pt x="83" y="584" on="0"/>
        <pt x="72" y="578" on="1"/>
        <pt x="60" y="571" on="0"/>
        <pt x="52" y="563" on="1"/>
      </contour>
    </TTGlyph>
    <TTGlyph name="at" xMin="0" yMin="-28" xMax="682" yMax="761">
      <contour>
        <pt x="403" y="332" on="1"/>
        <pt x="413" y="345" on="0"/>
        <pt x="426" y="387" on="0"/>
        <pt x="436" y="430" on="0"/>
        <pt x="444" y="466" on="0"/>
        <pt x="447" y="473" on="1"/>
        <pt x="447" y="474" on="1"/>
        <pt x="447" y="493" on="0"/>
        <pt x="435" y="513" on="0"/>
        <pt x="427" y="518" on="1"/>
        <pt x="418" y="523" on="0"/>
        <pt x="408" y="525" on="1"/>
        <pt x="407" y="525" on="1"/>
        <pt x="392" y="525" on="0"/>
        <pt x="354" y="509" on="0"/>
        <pt x="317" y="481" on="0"/>
        <pt x="284" y="445" on="0"/>
        <pt x="272" y="426" on="1"/>
        <pt x="257" y="400" on="0"/>
        <pt x="229" y="329" on="0"/>
        <pt x="229" y="298" on="1"/>
        <pt x="229" y="260" on="0"/>
        <pt x="254" y="246" on="1"/>
        <pt x="261" y="242" on="0"/>
        <pt x="271" y="242" on="1"/>
        <pt x="285" y="242" on="0"/>
        <pt x="319" y="256" on="0"/>
        <pt x="355" y="280" on="0"/>
        <pt x="389" y="313" on="0"/>
      </contour>
      <contour>
        <pt x="536" y="744" on="1"/>
        <pt x="558" y="731" on="0"/>
        <pt x="609" y="682" on="0"/>
        <pt x="652" y="618" on="0"/>
        <pt x="682" y="540" on="0"/>
        <pt x="682" y="499" on="1"/>
        <pt x="682" y="496" on="1"/>
        <pt x="682" y="454" on="0"/>
        <pt x="656" y="351" on="0"/>
        <pt x="615" y="259" on="0"/>
        <pt x="568" y="192" on="0"/>
        <pt x="547" y="187" on="1"/>
        <pt x="523" y="181" on="0"/>
        <pt x="496" y="181" on="1"/>
        <pt x="464" y="181" on="0"/>
        <pt x="410" y="207" on="0"/>
        <pt x="403" y="242" on="1"/>
        <pt x="374" y="215" on="0"/>
        <pt x="314" y="167" on="0"/>
        <pt x="288" y="167" on="1"/>
        <pt x="285" y="167" on="1"/>
        <pt x="264" y="168" on="0"/>
        <pt x="219" y="192" on="0"/>
        <pt x="181" y="230" on="0"/>
        <pt x="155" y="280" on="0"/>
        <pt x="154" y="308" on="1"/>
        <pt x="154" y="311" on="1"/>
        <pt x="154" y="330" on="0"/>
        <pt x="172" y="382" on="0"/>
        <pt x="202" y="437" on="0"/>
        <pt x="239" y="493" on="0"/>
        <pt x="277" y="539" on="0"/>
        <pt x="310" y="571" on="0"/>
        <pt x="322" y="575" on="1"/>
        <pt x="337" y="582" on="0"/>
        <pt x="379" y="589" on="0"/>
        <pt x="401" y="589" on="1"/>
        <pt x="430" y="589" on="0"/>
        <pt x="481" y="573" on="0"/>
        <pt x="494" y="552" on="1"/>
        <pt x="499" y="544" on="0"/>
        <pt x="503" y="516" on="0"/>
        <pt x="504" y="498" on="1"/>
        <pt x="512" y="493" on="0"/>
        <pt x="512" y="484" on="1"/>
        <pt x="512" y="482" on="1"/>
        <pt x="509" y="466" on="0"/>
        <pt x="502" y="414" on="0"/>
        <pt x="500" y="386" on="1"/>
        <pt x="497" y="356" on="0"/>
        <pt x="494" y="300" on="0"/>
        <pt x="494" y="278" on="1"/>
        <pt x="494" y="270" on="0"/>
        <pt x="494" y="259" on="0"/>
        <pt x="495" y="254" on="1"/>
        <pt x="517" y="276" on="0"/>
        <pt x="559" y="345" on="0"/>
        <pt x="591" y="419" on="0"/>
        <pt x="610" y="486" on="0"/>
        <pt x="610" y="506" on="1"/>
        <pt x="610" y="508" on="0"/>
        <pt x="609" y="510" on="0"/>
        <pt x="609" y="511" on="1"/>
        <pt x="607" y="533" on="0"/>
        <pt x="565" y="595" on="0"/>
        <pt x="505" y="652" on="0"/>
        <pt x="438" y="692" on="0"/>
        <pt x="411" y="693" on="1"/>
        <pt x="408" y="693" on="1"/>
        <pt x="383" y="693" on="0"/>
        <pt x="320" y="664" on="0"/>
        <pt x="255" y="617" on="0"/>
        <pt x="193" y="557" on="0"/>
        <pt x="143" y="494" on="0"/>
        <pt x="110" y="432" on="0"/>
        <pt x="108" y="408" on="1"/>
        <pt x="105" y="379" on="0"/>
        <pt x="99" y="299" on="0"/>
        <pt x="99" y="257" on="1"/>
        <pt x="99" y="228" on="0"/>
        <pt x="104" y="175" on="0"/>
        <pt x="115" y="130" on="0"/>
        <pt x="134" y="97" on="0"/>
        <pt x="148" y="90" on="1"/>
        <pt x="180" y="75" on="0"/>
        <pt x="248" y="58" on="0"/>
        <pt x="282" y="58" on="1"/>
        <pt x="326" y="58" on="0"/>
        <pt x="408" y="89" on="0"/>
        <pt x="445" y="121" on="1"/>
        <pt x="517" y="88" on="1"/>
        <pt x="506" y="78" on="0"/>
        <pt x="451" y="40" on="0"/>
        <pt x="384" y="1" on="0"/>
        <pt x="315" y="-28" on="0"/>
        <pt x="290" y="-28" on="1"/>
        <pt x="287" y="-28" on="1"/>
        <pt x="270" y="-28" on="0"/>
        <pt x="216" y="-11" on="0"/>
        <pt x="153" y="16" on="0"/>
        <pt x="90" y="52" on="0"/>
        <pt x="37" y="93" on="0"/>
        <pt x="2" y="137" on="0"/>
        <pt x="0" y="158" on="1"/>
        <pt x="0" y="168" on="1"/>
        <pt x="0" y="193" on="0"/>
        <pt x="18" y="285" on="0"/>
        <pt x="50" y="394" on="0"/>
        <pt x="92" y="512" on="0"/>
        <pt x="139" y="613" on="0"/>
        <pt x="188" y="689" on="0"/>
        <pt x="212" y="702" on="1"/>
        <pt x="237" y="716" on="0"/>
        <pt x="296" y="738" on="0"/>
        <pt x="357" y="753" on="0"/>
        <pt x="419" y="761" on="0"/>
        <pt x="446" y="761" on="1"/>
        <pt x="474" y="761" on="0"/>
        <pt x="520" y="753" on="0"/>
      </contour>
    </TTGlyph>
    <TTGlyph name="atilde" xMin="0" yMin="-34" xMax="566" yMax="721">
      <component glyphName="a" x="0" y="0" flags="0x204"/>
      <component glyphName="tilde" x="102" y="-40" flags="0x4"/>
    </TTGlyph>
    <TTGlyph name="b" xMin="20" yMin="-39" xMax="646" yMax="779">
      <contour>
        <pt x="388" y="391" on="1"/>
        <pt x="390" y="397" on="0"/>
        <pt x="395" y="426" on="0"/>
        <pt x="395" y="437" on="1"/>
        <pt x="395" y="442" on="0"/>
        <pt x="393" y="451" on="0"/>
        <pt x="390" y="451" on="1"/>
        <pt x="387" y="451" on="0"/>
        <pt x="381" y="445" on="1"/>
        <pt x="378" y="443" on="0"/>
        <pt x="376" y="439" on="1"/>
        <pt x="372" y="431" on="0"/>
        <pt x="372" y="423" on="1"/>
        <pt x="372" y="416" on="0"/>
        <pt x="379" y="400" on="0"/>
      </contour>
      <contour>
        <pt x="279" y="721" on="1"/>
        <pt x="265" y="703" on="0"/>
        <pt x="236" y="641" on="0"/>
        <pt x="211" y="575" on="0"/>
        <pt x="195" y="514" on="0"/>
        <pt x="194" y="495" on="1"/>
        <pt x="202" y="507" on="0"/>
        <pt x="226" y="567" on="0"/>
        <pt x="252" y="637" on="0"/>
        <pt x="274" y="703" on="0"/>
      </contour>
      <contour>
        <pt x="646" y="314" on="1"/>
        <pt x="610" y="288" on="0"/>
        <pt x="537" y="252" on="0"/>
        <pt x="490" y="252" on="1"/>
        <pt x="482" y="252" on="0"/>
        <pt x="478" y="253" on="1"/>
        <pt x="453" y="255" on="0"/>
        <pt x="425" y="267" on="1"/>
        <pt x="405" y="226" on="0"/>
        <pt x="346" y="121" on="0"/>
        <pt x="281" y="28" on="0"/>
        <pt x="214" y="-37" on="0"/>
        <pt x="186" y="-39" on="1"/>
        <pt x="177" y="-39" on="1"/>
        <pt x="144" y="-39" on="0"/>
        <pt x="87" y="-9" on="0"/>
        <pt x="45" y="39" on="0"/>
        <pt x="20" y="100" on="0"/>
        <pt x="20" y="132" on="1"/>
        <pt x="20" y="137" on="0"/>
        <pt x="20" y="146" on="0"/>
        <pt x="22" y="151" on="1"/>
        <pt x="25" y="174" on="0"/>
        <pt x="50" y="278" on="0"/>
        <pt x="86" y="408" on="0"/>
        <pt x="130" y="549" on="0"/>
        <pt x="174" y="671" on="0"/>
        <pt x="214" y="757" on="0"/>
        <pt x="228" y="767" on="1"/>
        <pt x="238" y="774" on="0"/>
        <pt x="257" y="779" on="0"/>
        <pt x="267" y="779" on="1"/>
        <pt x="285" y="779" on="0"/>
        <pt x="321" y="763" on="0"/>
        <pt x="349" y="739" on="0"/>
        <pt x="367" y="712" on="0"/>
        <pt x="367" y="701" on="1"/>
        <pt x="367" y="692" on="0"/>
        <pt x="346" y="636" on="0"/>
        <pt x="310" y="561" on="0"/>
        <pt x="264" y="475" on="0"/>
        <pt x="215" y="396" on="0"/>
        <pt x="167" y="332" on="0"/>
        <pt x="148" y="318" on="1"/>
        <pt x="136" y="277" on="0"/>
        <pt x="116" y="168" on="0"/>
        <pt x="116" y="118" on="1"/>
        <pt x="116" y="84" on="0"/>
        <pt x="128" y="30" on="0"/>
        <pt x="143" y="14" on="1"/>
        <pt x="174" y="30" on="0"/>
        <pt x="238" y="99" on="0"/>
        <pt x="296" y="185" on="0"/>
        <pt x="343" y="275" on="0"/>
        <pt x="358" y="312" on="1"/>
        <pt x="335" y="332" on="0"/>
        <pt x="306" y="377" on="0"/>
        <pt x="306" y="396" on="1"/>
        <pt x="306" y="398" on="1"/>
        <pt x="306" y="416" on="0"/>
        <pt x="329" y="453" on="0"/>
        <pt x="362" y="483" on="0"/>
        <pt x="400" y="502" on="0"/>
        <pt x="415" y="502" on="1"/>
        <pt x="425" y="502" on="0"/>
        <pt x="430" y="498" on="1"/>
        <pt x="448" y="489" on="0"/>
        <pt x="466" y="430" on="0"/>
        <pt x="466" y="398" on="1"/>
        <pt x="466" y="382" on="0"/>
        <pt x="462" y="351" on="0"/>
        <pt x="457" y="338" on="1"/>
        <pt x="455" y="334" on="0"/>
        <pt x="450" y="320" on="0"/>
        <pt x="445" y="311" on="1"/>
        <pt x="449" y="310" on="0"/>
        <pt x="455" y="310" on="1"/>
        <pt x="475" y="310" on="0"/>
        <pt x="526" y="324" on="0"/>
        <pt x="579" y="345" on="0"/>
        <pt x="626" y="369" on="0"/>
        <pt x="642" y="380" on="1"/>
      </contour>
    </TTGlyph>
    <TTGlyph name="backslash" xMin="20" yMin="-15" xMax="245" yMax="757">
      <contour>
        <pt x="245" y="19" on="1"/>
        <pt x="174" y="-15" on="1"/>
        <pt x="157" y="16" on="0"/>
        <pt x="134" y="107" on="1"/>
        <pt x="124" y="146" on="0"/>
        <pt x="100" y="256" on="0"/>
        <pt x="72" y="408" on="0"/>
        <pt x="39" y="605" on="0"/>
        <pt x="20" y="731" on="1"/>
        <pt x="96" y="757" on="1"/>
        <pt x="97" y="753" on="0"/>
        <pt x="108" y="687" on="0"/>
        <pt x="123" y="585" on="0"/>
        <pt x="143" y="457" on="0"/>
        <pt x="166" y="324" on="0"/>
        <pt x="190" y="195" on="0"/>
        <pt x="214" y="92" on="0"/>
        <pt x="236" y="25" on="0"/>
      </contour>
    </TTGlyph>
    <TTGlyph name="bar" xMin="31" yMin="-15" xMax="369" yMax="757">
      <contour>
        <pt x="31" y="10" on="1"/>
        <pt x="75" y="147" on="0"/>
        <pt x="144" y="357" on="0"/>
        <pt x="196" y="514" on="0"/>
        <pt x="234" y="622" on="0"/>
        <pt x="248" y="658" on="1"/>
        <pt x="279" y="742" on="0"/>
        <pt x="290" y="757" on="1"/>
        <pt x="369" y="722" on="1"/>
        <pt x="362" y="716" on="0"/>
        <pt x="332" y="648" on="0"/>
        <pt x="293" y="545" on="0"/>
        <pt x="248" y="417" on="0"/>
        <pt x="203" y="284" on="0"/>
        <pt x="161" y="156" on="0"/>
        <pt x="130" y="54" on="0"/>
        <pt x="111" y="-11" on="0"/>
        <pt x="111" y="-15" on="1"/>
      </contour>
    </TTGlyph>
    <TTGlyph name="braceleft" xMin="31" yMin="-122" xMax="465" yMax="761">
      <contour>
        <pt x="324" y="757" on="1"/>
        <pt x="327" y="758" on="0"/>
        <pt x="331" y="759" on="1"/>
        <pt x="341" y="761" on="0"/>
        <pt x="354" y="761" on="1"/>
        <pt x="372" y="761" on="0"/>
        <pt x="427" y="752" on="0"/>
        <pt x="465" y="737" on="1"/>
        <pt x="408" y="666" on="1"/>
        <pt x="394" y="673" on="0"/>
        <pt x="373" y="677" on="0"/>
        <pt x="365" y="677" on="1"/>
        <pt x="357" y="677" on="0"/>
        <pt x="353" y="675" on="1"/>
        <pt x="351" y="674" on="0"/>
        <pt x="350" y="674" on="1"/>
        <pt x="345" y="672" on="0"/>
        <pt x="327" y="635" on="0"/>
        <pt x="303" y="580" on="0"/>
        <pt x="276" y="515" on="0"/>
        <pt x="249" y="456" on="0"/>
        <pt x="226" y="409" on="0"/>
        <pt x="218" y="399" on="1"/>
        <pt x="207" y="385" on="0"/>
        <pt x="171" y="368" on="0"/>
        <pt x="154" y="362" on="1"/>
        <pt x="162" y="350" on="0"/>
        <pt x="178" y="324" on="0"/>
        <pt x="180" y="314" on="1"/>
        <pt x="180" y="312" on="1"/>
        <pt x="180" y="304" on="0"/>
        <pt x="171" y="258" on="0"/>
        <pt x="156" y="197" on="0"/>
        <pt x="140" y="128" on="0"/>
        <pt x="125" y="62" on="0"/>
        <pt x="116" y="7" on="0"/>
        <pt x="116" y="-8" on="1"/>
        <pt x="116" y="-19" on="0"/>
        <pt x="118" y="-22" on="1"/>
        <pt x="121" y="-25" on="0"/>
        <pt x="127" y="-28" on="1"/>
        <pt x="132" y="-30" on="0"/>
        <pt x="151" y="-34" on="0"/>
        <pt x="165" y="-34" on="1"/>
        <pt x="177" y="-34" on="0"/>
        <pt x="209" y="-31" on="0"/>
        <pt x="229" y="-26" on="1"/>
        <pt x="220" y="-111" on="1"/>
        <pt x="209" y="-117" on="0"/>
        <pt x="180" y="-122" on="0"/>
        <pt x="163" y="-122" on="1"/>
        <pt x="142" y="-122" on="0"/>
        <pt x="98" y="-115" on="0"/>
        <pt x="62" y="-103" on="0"/>
        <pt x="38" y="-89" on="0"/>
        <pt x="36" y="-81" on="1"/>
        <pt x="35" y="-80" on="0"/>
        <pt x="35" y="-73" on="1"/>
        <pt x="35" y="-61" on="0"/>
        <pt x="42" y="-12" on="0"/>
        <pt x="52" y="49" on="0"/>
        <pt x="65" y="116" on="0"/>
        <pt x="77" y="177" on="0"/>
        <pt x="86" y="227" on="0"/>
        <pt x="88" y="241" on="1"/>
        <pt x="89" y="245" on="0"/>
        <pt x="89" y="253" on="0"/>
        <pt x="89" y="257" on="1"/>
        <pt x="89" y="275" on="0"/>
        <pt x="78" y="304" on="0"/>
        <pt x="61" y="326" on="0"/>
        <pt x="42" y="338" on="0"/>
        <pt x="35" y="338" on="1"/>
        <pt x="33" y="338" on="1"/>
        <pt x="31" y="404" on="1"/>
        <pt x="48" y="410" on="0"/>
        <pt x="92" y="431" on="0"/>
        <pt x="134" y="457" on="0"/>
        <pt x="168" y="487" on="0"/>
        <pt x="174" y="503" on="1"/>
        <pt x="177" y="510" on="0"/>
        <pt x="196" y="551" on="0"/>
        <pt x="222" y="605" on="0"/>
        <pt x="253" y="664" on="0"/>
        <pt x="284" y="716" on="0"/>
        <pt x="313" y="753" on="0"/>
      </contour>
    </TTGlyph>
    <TTGlyph name="braceright" xMin="31" yMin="-122" xMax="465" yMax="761">
      <contour>
        <pt x="171" y="-119" on="1"/>
        <pt x="168" y="-120" on="0"/>
        <pt x="164" y="-121" on="1"/>
        <pt x="159" y="-122" on="0"/>
        <pt x="140" y="-122" on="1"/>
        <pt x="123" y="-122" on="0"/>
        <pt x="69" y="-113" on="0"/>
        <pt x="31" y="-98" on="1"/>
        <pt x="87" y="-28" on="1"/>
        <pt x="101" y="-34" on="0"/>
        <pt x="123" y="-38" on="0"/>
        <pt x="130" y="-38" on="1"/>
        <pt x="138" y="-38" on="0"/>
        <pt x="141" y="-37" on="1"/>
        <pt x="143" y="-37" on="0"/>
        <pt x="145" y="-36" on="1"/>
        <pt x="150" y="-34" on="0"/>
        <pt x="169" y="3" on="0"/>
        <pt x="192" y="58" on="0"/>
        <pt x="220" y="123" on="0"/>
        <pt x="245" y="183" on="0"/>
        <pt x="268" y="230" on="0"/>
        <pt x="276" y="240" on="1"/>
        <pt x="287" y="254" on="0"/>
        <pt x="323" y="271" on="0"/>
        <pt x="342" y="276" on="1"/>
        <pt x="333" y="289" on="0"/>
        <pt x="317" y="315" on="0"/>
        <pt x="315" y="324" on="1"/>
        <pt x="315" y="327" on="1"/>
        <pt x="315" y="335" on="0"/>
        <pt x="325" y="381" on="0"/>
        <pt x="339" y="441" on="0"/>
        <pt x="356" y="511" on="0"/>
        <pt x="370" y="577" on="0"/>
        <pt x="380" y="631" on="0"/>
        <pt x="380" y="646" on="1"/>
        <pt x="380" y="657" on="0"/>
        <pt x="377" y="660" on="1"/>
        <pt x="374" y="663" on="0"/>
        <pt x="368" y="666" on="1"/>
        <pt x="363" y="668" on="0"/>
        <pt x="344" y="672" on="0"/>
        <pt x="330" y="672" on="1"/>
        <pt x="304" y="672" on="0"/>
        <pt x="266" y="665" on="1"/>
        <pt x="274" y="750" on="1"/>
        <pt x="296" y="761" on="0"/>
        <pt x="333" y="761" on="1"/>
        <pt x="354" y="761" on="0"/>
        <pt x="398" y="754" on="0"/>
        <pt x="434" y="742" on="0"/>
        <pt x="458" y="727" on="0"/>
        <pt x="460" y="720" on="1"/>
        <pt x="460" y="712" on="1"/>
        <pt x="460" y="699" on="0"/>
        <pt x="453" y="651" on="0"/>
        <pt x="443" y="590" on="0"/>
        <pt x="431" y="523" on="0"/>
        <pt x="419" y="462" on="0"/>
        <pt x="410" y="411" on="0"/>
        <pt x="408" y="398" on="1"/>
        <pt x="407" y="393" on="0"/>
        <pt x="406" y="386" on="0"/>
        <pt x="406" y="382" on="1"/>
        <pt x="406" y="364" on="0"/>
        <pt x="417" y="334" on="0"/>
        <pt x="433" y="313" on="0"/>
        <pt x="453" y="301" on="0"/>
        <pt x="461" y="301" on="1"/>
        <pt x="462" y="301" on="1"/>
        <pt x="465" y="234" on="1"/>
        <pt x="447" y="228" on="0"/>
        <pt x="403" y="208" on="0"/>
        <pt x="361" y="182" on="0"/>
        <pt x="328" y="152" on="0"/>
        <pt x="322" y="136" on="1"/>
        <pt x="319" y="129" on="0"/>
        <pt x="300" y="87" on="0"/>
        <pt x="274" y="34" on="0"/>
        <pt x="243" y="-26" on="0"/>
        <pt x="211" y="-77" on="0"/>
        <pt x="182" y="-115" on="0"/>
      </contour>
    </TTGlyph>
    <TTGlyph name="bracketleft" xMin="31" yMin="-132" xMax="485" yMax="768">
      <contour>
        <pt x="485" y="667" on="1"/>
        <pt x="482" y="667" on="0"/>
        <pt x="475" y="666" on="0"/>
        <pt x="470" y="666" on="1"/>
        <pt x="458" y="666" on="0"/>
        <pt x="426" y="669" on="0"/>
        <pt x="391" y="675" on="0"/>
        <pt x="355" y="683" on="0"/>
        <pt x="339" y="687" on="1"/>
        <pt x="332" y="662" on="0"/>
        <pt x="302" y="552" on="0"/>
        <pt x="261" y="410" on="0"/>
        <pt x="216" y="252" on="0"/>
        <pt x="173" y="107" on="0"/>
        <pt x="136" y="-10" on="0"/>
        <pt x="125" y="-40" on="1"/>
        <pt x="145" y="-37" on="0"/>
        <pt x="188" y="-35" on="0"/>
        <pt x="208" y="-35" on="1"/>
        <pt x="231" y="-35" on="0"/>
        <pt x="263" y="-38" on="0"/>
        <pt x="267" y="-41" on="1"/>
        <pt x="241" y="-113" on="1"/>
        <pt x="239" y="-111" on="0"/>
        <pt x="232" y="-111" on="1"/>
        <pt x="223" y="-111" on="0"/>
        <pt x="188" y="-118" on="0"/>
        <pt x="148" y="-125" on="0"/>
        <pt x="110" y="-132" on="0"/>
        <pt x="98" y="-132" on="1"/>
        <pt x="89" y="-132" on="0"/>
        <pt x="85" y="-129" on="1"/>
        <pt x="80" y="-125" on="0"/>
        <pt x="72" y="-118" on="1"/>
        <pt x="65" y="-112" on="0"/>
        <pt x="45" y="-93" on="0"/>
        <pt x="31" y="-79" on="1"/>
        <pt x="85" y="107" on="0"/>
        <pt x="162" y="375" on="0"/>
        <pt x="212" y="562" on="0"/>
        <pt x="241" y="676" on="0"/>
        <pt x="256" y="740" on="0"/>
        <pt x="259" y="763" on="0"/>
        <pt x="259" y="766" on="1"/>
        <pt x="259" y="768" on="1"/>
        <pt x="290" y="756" on="0"/>
        <pt x="326" y="742" on="0"/>
        <pt x="336" y="739" on="1"/>
        <pt x="347" y="735" on="0"/>
        <pt x="351" y="735" on="1"/>
        <pt x="353" y="735" on="1"/>
        <pt x="354" y="735" on="0"/>
        <pt x="365" y="736" on="0"/>
        <pt x="387" y="738" on="0"/>
        <pt x="423" y="742" on="0"/>
        <pt x="451" y="746" on="1"/>
        <pt x="485" y="667" on="1"/>
      </contour>
    </TTGlyph>
</ttFont>
